{
.appVersion = "3226";
.formatVersion = 3;
DisplayStrings = (
"
-T
nizyid 
niofid 
X,
TEHSYDIV 
TEHSUDIV 
nicsid 
nizaid 
nikzid 
TEHKSDIV 
TEHJDIV 
nictid 
nifzid 
niewid 
nitsid 
nicaid 
TEHTTDIV 
Yider "
);
classes = (
{
automatic = 1;

glyphs = (
{
glyphname = A;
lastChange = "2023-11-10 06:07:35 +0000";
layers = (
{
anchors = (
{
name = bottom;
pos = (567,0);
},
{
name = ogonek;
pos = (1021,10);
},
{
name = top;
pos = (567,1394);
}
);
layerId = "B61D43DE-5272-4FF4-A680-608B6BF5ED9E";
shapes = (
{
closed = 1;
nodes = (
(246,0,l),
(532,776,l),
(598,1006,l),
(528,1006,l),
(598,776,l),
(896,0,l),
(1168,0,l),
(576,1418,l),
(556,1418,l),
(-34,0,l)
);
},
{
closed = 1;
nodes = (
(878,202,l),
(868,396,l),
(270,396,l),
(262,202,l)
);
}
);
width = 1134;
}
);
unicode = 65;
userData = {
KernOnName = A;
};
},
{
color = 1;
glyphname = "Alpha-latin";
lastChange = "2023-10-18 23:57:43 +0000";
layers = (
{
anchors = (
{
name = car;
pos = (1887,1660);
},
{
name = vslash;
pos = (634,690);
}
);
layerId = "B61D43DE-5272-4FF4-A680-608B6BF5ED9E";
shapes = (
{
closed = 1;
nodes = (
(1352,-24,o),
(1436,12,o),
(1460,48,c),
(1408,239,l),
(1368,211,o),
(1340,185,o),
(1285,185,cs),
(1254,185,o),
(1205,191,o),
(1205,323,cs),
(1205,1394,l),
(959,1394,l),
(959,323,ls),
(959,104,o),
(1036,-24,o),
(1201,-24,cs)
);
},
{
closed = 1;
nodes = (
(864,-24,o),
(961,53,o),
(1017,147,c),
(1040,221,l),
(959,323,l),
(877,237,o),
(776,204,o),
(650,204,cs),
(486,204,o),
(352,382,o),
(352,730,cs),
(352,996,o),
(468,1188,o),
(672,1188,cs),
(806,1188,o),
(854,1165,o),
(966,1084,c),
(1036,1153,l),
(1020,1294,l),
(968,1342,o),
(882,1418,o),
(662,1418,cs),
(338,1418,o),
(74,1172,o),
(74,716,cs),
(74,208,o),
(350,-24,o),
(640,-24,cs)
);
}
);
width = 1480;
}
);
metricLeft = C;
metricRight = "=|esh";
unicode = 11373;
},
{
color = 4;
glyphname = Aogonek;
lastChange = "2023-10-18 23:57:43 +0000";
layers = (
{
layerId = "B61D43DE-5272-4FF4-A680-608B6BF5ED9E";
shapes = (
{
closed = 1;
nodes = (
(910,-122,o),
(1020,-37,o),
(1167,2,c),
(576,1418,l),
(556,1418,l),
(-34,0,l),
(246,0,l),
(320,202,l),
(818,202,l),
(896,0,l),
(783,-41,o),
(704,-138,o),
(704,-256,cs),
(704,-398,o),
(794,-480,o),
(1002,-480,cs),
(1071,-480,o),
(1130,-468,o),
(1170,-449,c),
(1170,-268,l),
(1122,-291,o),
(1074,-298,o),
(1034,-298,cs),
(956,-298,o),
(910,-270,o),
(910,-202,cs)
);
},
{
closed = 1;
nodes = (
(564,888,l),
(598,776,l),
(744,396,l),
(392,396,l),
(532,776,l)
);
}
);
width = 1172;
}
);
unicode = 260;
},
{
glyphname = Aring;
lastChange = "2019-10-28 18:28:25 +0000";
layers = (
{
layerId = "B61D43DE-5272-4FF4-A680-608B6BF5ED9E";
shapes = (
{
closed = 1;
nodes = (
(742,1342,o),
(868,1450,o),
(868,1604,cs),
(868,1756,o),
(742,1866,o),
(594,1866,cs),
(446,1866,o),
(320,1760,o),
(320,1604,cs),
(320,1450,o),
(446,1342,o),
(594,1342,cs)
);
},
{
closed = 1;
nodes = (
(526,1470,o),
(466,1514,o),
(466,1606,cs),
(466,1704,o),
(526,1740,o),
(594,1740,cs),
(662,1740,o),
(722,1702,o),
(722,1606,cs),
(722,1514,o),
(662,1470,o),
(594,1470,cs)
);
},
{
ref = A;
}
);
width = 1172;
}
);
unicode = 197;
},
{
glyphname = Aringacute;
lastChange = "2023-10-18 23:57:43 +0000";
layers = (
{
layerId = "B61D43DE-5272-4FF4-A680-608B6BF5ED9E";
shapes = (
{
closed = 1;
nodes = (
(742,1348,o),
(870,1456,o),
(870,1610,cs),
(870,1760,o),
(742,1870,o),
(594,1870,cs),
(446,1870,o),
(320,1764,o),
(320,1610,cs),
(320,1456,o),
(446,1348,o),
(594,1348,cs)
);
},
{
closed = 1;
nodes = (
(528,1474,o),
(466,1518,o),
(466,1610,cs),
(466,1708,o),
(528,1746,o),
(594,1746,cs),
(662,1746,o),
(724,1708,o),
(724,1610,cs),
(724,1518,o),
(662,1474,o),
(594,1474,cs)
);
},
{
closed = 1;
nodes = (
(692,1788,l),
(874,2064,l),
(672,2064,l),
(536,1788,l)
);
},
{
ref = A;
}
);
width = 1172;
}
);
unicode = 506;
},
{
glyphname = AE;
lastChange = "2023-11-10 01:11:51 +0000";
layers = (
{
anchors = (
{
name = bottom;
pos = (839,0);
},
{
name = top;
pos = (998,1394);
}
);
layerId = "B61D43DE-5272-4FF4-A680-608B6BF5ED9E";
shapes = (
{
closed = 1;
nodes = (
(294,0,l),
(720,828,l),
(834,1080,l),
(862,1394,l),
(788,1394,l),
(10,0,l)
);
},
{
closed = 1;
nodes = (
(968,314,l),
(968,500,l),
(376,500,l),
(292,314,l)
);
},
{
closed = 1;
nodes = (
(1596,0,l),
(1596,220,l),
(1040,220,l),
(1072,182,l),
(1072,672,l),
(1036,638,l),
(1458,638,l),
(1458,850,l),
(1036,850,l),
(1072,816,l),
(1072,1210,l),
(1040,1182,l),
(1556,1182,l),
(1556,1394,l),
(828,1394,l),
(828,0,l)
);
}
);
width = 1668;
}
);
metricRight = E;
unicode = 198;
},
{
glyphname = B;
lastChange = "2023-11-10 06:07:35 +0000";
layers = (
{
anchors = (
{
name = bottom;
pos = (543,0);
},
{
name = center;
pos = (543,697);
},
{
name = top;
pos = (543,1394);
}
);
layerId = "B61D43DE-5272-4FF4-A680-608B6BF5ED9E";
shapes = (
{
closed = 1;
nodes = (
(521,0,ls),
(897,0,o),
(1055,156,o),
(1055,402,cs),
(1055,618,o),
(945,750,o),
(705,750,c),
(681,708,l),
(901,708,o),
(985,882,o),
(985,1022,cs),
(985,1258,o),
(843,1394,o),
(515,1394,cs),
(143,1394,l),
(143,0,l)
);
},
{
closed = 1;
nodes = (
(395,648,l),
(357,624,l),
(537,624,ls),
(661,624,o),
(791,598,o),
(791,416,cs),
(791,236,o),
(669,202,o),
(549,202,cs),
(359,202,l),
(395,166,l)
);
},
{
closed = 1;
nodes = (
(395,1228,l),
(359,1196,l),
(515,1196,ls),
(629,1196,o),
(737,1158,o),
(737,1014,cs),
(737,926,o),
(693,810,o),
(557,810,cs),
(357,810,l),
(395,774,l)
);
}
);
width = 1115;
}
);
metricLeft = H;
unicode = 66;
userData = {
KernOnName = B;
};
},
{
glyphname = "Beta-latin";
lastChange = "2023-11-10 04:38:18 +0000";
layers = (
{
anchors = (
{
name = bottom;
pos = (543,0);
},
{
name = center;
pos = (543,697);
},
{
name = top;
pos = (543,1394);
}
);
layerId = "B61D43DE-5272-4FF4-A680-608B6BF5ED9E";
shapes = (
{
closed = 1;
nodes = (
(394,-276,l),
(394,0,l),
(521,0,ls),
(897,0,o),
(1055,156,o),
(1055,402,cs),
(1055,579,o),
(981,700,o),
(822,738,c),
(938,793,o),
(985,917,o),
(985,1022,cs),
(985,1258,o),
(843,1394,o),
(515,1394,cs),
(143,1394,l),
(143,-276,l)
);
},
{
closed = 1;
nodes = (
(395,624,l),
(537,624,ls),
(661,624,o),
(791,598,o),
(791,416,cs),
(791,236,o),
(669,202,o),
(549,202,cs),
(395,202,l)
);
},
{
closed = 1;
nodes = (
(395,1196,l),
(515,1196,ls),
(629,1196,o),
(737,1158,o),
(737,1014,cs),
(737,926,o),
(693,810,o),
(557,810,cs),
(395,810,l)
);
}
);
width = 1115;
}
);
unicode = 42932;
},
{
color = 1;
glyphname = Bhook;
lastChange = "2023-11-10 01:11:51 +0000";
layers = (
{
anchors = (
{
name = bottom;
pos = (833,0);
}
);
layerId = "B61D43DE-5272-4FF4-A680-608B6BF5ED9E";
shapes = (
{
closed = 1;
nodes = (
(811,0,ls),
(1187,0,o),
(1345,156,o),
(1345,402,cs),
(1345,618,o),
(1235,750,o),
(995,750,c),
(971,708,l),
(1191,708,o),
(1275,882,o),
(1275,1022,cs),
(1275,1258,o),
(1133,1394,o),
(805,1394,cs),
(433,1394,l),
(433,0,l)
);
},
{
closed = 1;
nodes = (
(685,648,l),
(647,624,l),
(827,624,ls),
(951,624,o),
(1081,598,o),
(1081,416,cs),
(1081,236,o),
(959,202,o),
(839,202,cs),
(649,202,l),
(685,166,l)
);
},
{
closed = 1;
nodes = (
(685,1228,l),
(649,1196,l),
(805,1196,ls),
(919,1196,o),
(1027,1158,o),
(1027,1014,cs),
(1027,926,o),
(983,810,o),
(847,810,cs),
(647,810,l),
(685,774,l)
);
},
{
closed = 1;
nodes = (
(129,1394,o),
(10,1255,o),
(10,1066,cs),
(10,945,o),
(69,847,o),
(99,823,c),
(320,862,l),
(292,902,o),
(257,945,o),
(257,1036,cs),
(257,1121,o),
(303,1176,o),
(433,1176,c),
(520,1271,l),
(433,1394,l)
);
}
);
width = 1405;
}
);
metricLeft = Hhook;
metricRight = B;
unicode = 385;
},
{
color = 1;
glyphname = Bstroke;
lastChange = "2023-11-10 01:11:51 +0000";
layers = (
{
anchors = (
{
name = bottom;
pos = (602,0);
}
);
layerId = "B61D43DE-5272-4FF4-A680-608B6BF5ED9E";
shapes = (
{
closed = 1;
nodes = (
(580,0,ls),
(956,0,o),
(1114,156,o),
(1114,402,cs),
(1114,618,o),
(1004,750,o),
(764,750,c),
(740,708,l),
(960,708,o),
(1044,882,o),
(1044,1022,cs),
(1044,1258,o),
(902,1394,o),
(574,1394,cs),
(202,1394,l),
(202,0,l)
);
},
{
closed = 1;
nodes = (
(454,648,l),
(416,624,l),
(596,624,ls),
(720,624,o),
(850,598,o),
(850,416,cs),
(850,236,o),
(728,202,o),
(608,202,cs),
(418,202,l),
(454,166,l)
);
},
{
closed = 1;
nodes = (
(454,1228,l),
(418,1196,l),
(574,1196,ls),
(688,1196,o),
(796,1158,o),
(796,1014,cs),
(796,926,o),
(752,810,o),
(616,810,cs),
(416,810,l),
(454,774,l)
);
},
{
closed = 1;
nodes = (
(416,624,l),
(416,810,l),
(42,806,l),
(42,624,l)
);
}
);
width = 1174;
}
);
metricLeft = Eth;
metricRight = B;
unicode = (579,384);
},
{
glyphname = C;
lastChange = "2023-11-10 06:07:35 +0000";
layers = (
{
anchors = (
{
name = bottom;
pos = (627,0);
},
{
name = top;
pos = (662,1394);
},
{
name = vslash;
pos = (634,690);
}
);
layerId = "B61D43DE-5272-4FF4-A680-608B6BF5ED9E";
shapes = (
{
closed = 1;
nodes = (
(864,-24,o),
(966,48,o),
(1022,94,c),
(912,292,l),
(868,246,o),
(776,204,o),
(650,204,cs),
(486,204,o),
(352,382,o),
(352,730,cs),
(352,996,o),
(468,1188,o),
(672,1188,cs),
(806,1188,o),
(850,1146,o),
(908,1084,c),
(1020,1294,l),
(968,1342,o),
(882,1418,o),
(662,1418,cs),
(338,1418,o),
(74,1172,o),
(74,716,cs),
(74,208,o),
(350,-24,o),
(640,-24,cs)
);
}
);
width = 1054;
}
);
unicode = 67;
userData = {
KernOnName = C;
com.typemytype.robofont.mark = (
0.6,
1,
0.628,
1
);
};
},
{
color = 1;
glyphname = Chook;
lastChange = "2023-10-18 23:57:43 +0000";
layers = (
{
anchors = (
{
name = vslash;
pos = (634,690);
}
);
layerId = "B61D43DE-5272-4FF4-A680-608B6BF5ED9E";
shapes = (
{
closed = 1;
nodes = (
(894,1157,l),
(1020,1294,l),
(1000,1475,o),
(1046,1560,o),
(1147,1560,cs),
(1202,1560,o),
(1230,1534,o),
(1270,1506,c),
(1322,1697,l),
(1298,1733,o),
(1217,1778,o),
(1116,1778,cs),
(841,1778,o),
(801,1536,o),
(821,1312,c)
);
},
{
closed = 1;
nodes = (
(864,-24,o),
(966,48,o),
(1022,94,c),
(912,292,l),
(868,246,o),
(776,204,o),
(650,204,cs),
(486,204,o),
(352,382,o),
(352,730,cs),
(352,996,o),
(468,1188,o),
(672,1188,cs),
(806,1188,o),
(850,1146,o),
(908,1084,c),
(1020,1294,l),
(968,1342,o),
(882,1418,o),
(662,1418,cs),
(338,1418,o),
(74,1172,o),
(74,716,cs),
(74,208,o),
(350,-24,o),
(640,-24,cs)
);
}
);
width = 1122;
}
);
metricLeft = C;
unicode = 391;
},
{
glyphname = D;
lastChange = "2023-11-10 06:07:35 +0000";
layers = (
{
anchors = (
{
name = bottom;
pos = (607,0);
},
{
name = center;
pos = (607,697);
},
{
name = top;
pos = (607,1394);
}
);
layerId = "B61D43DE-5272-4FF4-A680-608B6BF5ED9E";
shapes = (
{
closed = 1;
nodes = (
(520,0,ls),
(930,0,o),
(1154,278,o),
(1154,714,cs),
(1154,1168,o),
(926,1394,o),
(522,1394,cs),
(162,1394,l),
(162,0,l)
);
},
{
closed = 1;
nodes = (
(420,1236,l),
(382,1194,l),
(514,1194,ls),
(802,1194,o),
(894,960,o),
(894,708,cs),
(894,464,o),
(806,220,o),
(514,220,cs),
(386,220,l),
(420,176,l)
);
}
);
width = 1209;
}
);
unicode = 68;
userData = {
KernOnName = D;
};
},
{
glyphname = Dcroat;
lastChange = "2023-11-10 01:11:51 +0000";
layers = (
{
layerId = "B61D43DE-5272-4FF4-A680-608B6BF5ED9E";
shapes = (
{
closed = 1;
nodes = (
(676,632,l),
(676,802,l),
(42,802,l),
(42,632,l)
);
},
{
ref = D;
}
);
width = 1209;
}
);
metricRight = D;
unicode = (272,273);
},
{
color = 1;
glyphname = Dhook;
lastChange = "2023-11-10 01:11:51 +0000";
layers = (
{
layerId = "B61D43DE-5272-4FF4-A680-608B6BF5ED9E";
shapes = (
{
closed = 1;
nodes = (
(791,0,ls),
(1201,0,o),
(1425,278,o),
(1425,714,cs),
(1425,1168,o),
(1197,1394,o),
(793,1394,cs),
(433,1394,l),
(433,0,l)
);
},
{
closed = 1;
nodes = (
(691,1236,l),
(653,1194,l),
(785,1194,ls),
(1073,1194,o),
(1165,960,o),
(1165,708,cs),
(1165,464,o),
(1077,220,o),
(785,220,cs),
(657,220,l),
(691,176,l)
);
},
{
closed = 1;
nodes = (
(129,1394,o),
(10,1255,o),
(10,1066,cs),
(10,945,o),
(69,847,o),
(99,823,c),
(320,862,l),
(292,902,o),
(257,945,o),
(257,1036,cs),
(257,1121,o),
(303,1176,o),
(433,1176,c),
(520,1271,l),
(433,1394,l)
);
}
);
width = 1480;
}
);
metricLeft = Hhook;
metricRight = D;
unicode = 394;
},
{
glyphname = Eth;
lastChange = "2023-11-10 01:11:51 +0000";
layers = (
{
layerId = "B61D43DE-5272-4FF4-A680-608B6BF5ED9E";
shapes = (
{
closed = 1;
nodes = (
(646,632,l),
(646,802,l),
(42,802,l),
(42,632,l)
);
},
{
closed = 1;
nodes = (
(520,0,ls),
(930,0,o),
(1154,278,o),
(1154,714,cs),
(1154,1168,o),
(926,1394,o),
(522,1394,cs),
(162,1394,l),
(162,0,l)
);
},
{
closed = 1;
nodes = (
(420,1236,l),
(382,1194,l),
(514,1194,ls),
(802,1194,o),
(894,960,o),
(894,708,cs),
(894,464,o),
(806,220,o),
(514,220,cs),
(386,220,l),
(420,176,l)
);
}
);
width = 1209;
}
);
metricRight = D;
unicode = 208;
},
{
glyphname = E;
lastChange = "2023-11-10 06:07:35 +0000";
layers = (
{
anchors = (
{
name = bottom;
pos = (506,0);
},
{
name = ogonek;
pos = (911,10);
},
{
name = top;
pos = (542,1394);
},
{
name = topleft;
pos = (20,1394);
},
{
name = vslash;
pos = (602,690);
}
);
layerId = "B61D43DE-5272-4FF4-A680-608B6BF5ED9E";
shapes = (
{
closed = 1;
nodes = (
(930,0,l),
(930,226,l),
(380,226,l),
(412,188,l),
(412,672,l),
(376,638,l),
(792,638,l),
(792,850,l),
(376,850,l),
(412,816,l),
(412,1204,l),
(380,1176,l),
(890,1176,l),
(890,1394,l),
(162,1394,l),
(162,0,l)
);
}
);
width = 1002;
}
);
unicode = 69;
userData = {
KernOnName = E;
};
},
{
color = 4;
glyphname = Eogonek;
lastChange = "2023-11-10 01:11:51 +0000";
layers = (
{
anchors = (
{
name = vslash;
pos = (512,690);
}
);
layerId = "B61D43DE-5272-4FF4-A680-608B6BF5ED9E";
shapes = (
{
closed = 1;
nodes = (
(672,-116,o),
(792,-34,o),
(932,0,c),
(930,1,l),
(930,226,l),
(412,226,l),
(412,638,l),
(792,638,l),
(792,850,l),
(412,850,l),
(412,1176,l),
(890,1176,l),
(890,1394,l),
(162,1394,l),
(162,0,l),
(671,0,l),
(509,-54,o),
(446,-164,o),
(446,-256,cs),
(446,-398,o),
(556,-500,o),
(764,-500,cs),
(833,-500,o),
(892,-488,o),
(932,-469,c),
(932,-268,l),
(884,-291,o),
(836,-298,o),
(796,-298,cs),
(718,-298,o),
(672,-270,o),
(672,-202,cs)
);
}
);
width = 1004;
}
);
metricLeft = E;
metricRight = E;
unicode = 280;
},
{
color = 1;
glyphname = Eopen;
lastChange = "2023-11-10 01:11:51 +0000";
layers = (
{
layerId = "B61D43DE-5272-4FF4-A680-608B6BF5ED9E";
shapes = (
{
closed = 1;
nodes = (
(292,1428,o),
(60,1270,o),
(60,1006,cs),
(60,838,o),
(160,678,o),
(330,678,c),
(182,640,o),
(98,480,o),
(98,328,cs),
(98,100,o),
(274,-30,o),
(550,-30,cs),
(760,-30,o),
(914,36,o),
(996,108,c),
(896,320,l),
(824,240,o),
(682,198,o),
(604,198,cs),
(460,198,o),
(378,236,o),
(378,368,cs),
(378,490,o),
(456,580,o),
(620,580,cs),
(728,580,l),
(728,778,l),
(622,778,ls),
(476,778,o),
(342,814,o),
(342,976,cs),
(342,1104,o),
(424,1200,o),
(604,1200,cs),
(710,1200,o),
(828,1158,o),
(904,1084,c),
(988,1312,l),
(876,1392,o),
(730,1428,o),
(578,1428,cs)
);
}
);
width = 1028;
}
);
metricLeft = "=|B";
metricRight = C;
unicode = 400;
},
{
color = 1;
glyphname = Ereversed;
lastChange = "2023-11-10 01:11:51 +0000";
layers = (
{
anchors = (
{
name = vslash;
pos = (490,690);
}
);
layerId = "B61D43DE-5272-4FF4-A680-608B6BF5ED9E";
shapes = (
{
closed = 1;
nodes = (
(840,1394,l),
(112,1394,l),
(112,1176,l),
(622,1176,l),
(590,1204,l),
(590,816,l),
(626,850,l),
(210,850,l),
(210,638,l),
(626,638,l),
(590,672,l),
(590,188,l),
(622,226,l),
(72,226,l),
(72,0,l),
(840,0,l)
);
}
);
width = 1002;
}
);
metricLeft = "=|E";
metricRight = "=|E";
unicode = 398;
},
{
color = 1;
glyphname = Esh;
lastChange = "2023-11-10 01:44:08 +0000";
layers = (
{
layerId = "B61D43DE-5272-4FF4-A680-608B6BF5ED9E";
shapes = (
{
closed = 1;
nodes = (
(345,244,o),
(306,211,o),
(225,211,cs),
(140,211,o),
(112,237,o),
(72,265,c),
(20,54,l),
(44,18,o),
(128,-18,o),
(229,-18,cs),
(504,-18,o),
(601,110,o),
(601,329,cs),
(601,1043,ls),
(601,1145,o),
(650,1181,o),
(721,1181,cs),
(806,1181,o),
(834,1155,o),
(874,1127,c),
(926,1338,l),
(902,1374,o),
(818,1410,o),
(717,1410,cs),
(442,1410,o),
(345,1282,o),
(345,1063,cs),
(345,349,ls)
);
}
);
width = 946;
}
);
unicode = 425;
},
{
glyphname = Schwa;
lastChange = "2023-10-19 00:21:47 +0000";
layers = (
{
anchors = (
{
name = bottom;
pos = (633,0);
},
{
name = top;
pos = (633,1394);
}
);
layerId = "B61D43DE-5272-4FF4-A680-608B6BF5ED9E";
shapes = (
{
closed = 1;
nodes = (
(434,1418,o),
(274,1342,o),
(174,1254,c),
(286,1048,l),
(328,1100,o),
(434,1196,o),
(598,1196,cs),
(786,1196,o),
(908,1038,o),
(922,770,c),
(78,770,l),
(78,668,ls),
(78,258,o),
(256,-20,o),
(626,-20,cs),
(972,-20,o),
(1188,268,o),
(1188,728,cs),
(1188,1158,o),
(972,1418,o),
(630,1418,cs)
);
},
{
closed = 1;
nodes = (
(422,184,o),
(346,392,o),
(346,572,c),
(916,572,l),
(888,330,o),
(784,184,o),
(634,184,cs)
);
}
);
width = 1266;
}
);
metricLeft = O;
metricRight = O;
unicode = 399;
userData = {
com.typemytype.robofont.mark = (
0.6,
1,
0.628,
1
);
};
},
{
color = 1;
glyphname = Ezh;
lastChange = "2023-11-10 01:11:51 +0000";
layers = (
{
anchors = (
{
name = bottom;
pos = (556,0);
}
);
layerId = "B61D43DE-5272-4FF4-A680-608B6BF5ED9E";
shapes = (
{
closed = 1;
nodes = (
(836,-25,o),
(1022,180,o),
(1022,420,cs),
(1022,584,o),
(949,774,o),
(624,801,c),
(1056,1394,l),
(114,1394,l),
(114,1170,l),
(652,1170,l),
(359,791,l),
(359,610,l),
(565,631,o),
(788,622,o),
(788,429,cs),
(788,277,o),
(716,190,o),
(512,190,cs),
(359,190,o),
(232,253,o),
(184,283,c),
(72,95,l),
(132,59,o),
(254,-25,o),
(536,-25,cs)
);
}
);
width = 1122;
}
);
metricLeft = "=|E";
metricRight = G;
unicode = 439;
},
{
glyphname = Ezhreversed;
lastChange = "2023-10-31 04:14:03 +0000";
layers = (
{
anchors = (
{
name = bottom;
pos = (566,0);
}
);
layerId = "B61D43DE-5272-4FF4-A680-608B6BF5ED9E";
shapes = (
{
closed = 1;
nodes = (
(868,-25,o),
(990,59,o),
(1050,95,c),
(938,283,l),
(890,253,o),
(763,190,o),
(610,190,cs),
(406,190,o),
(334,277,o),
(334,429,cs),
(334,622,o),
(557,631,o),
(763,610,c),
(763,791,l),
(470,1170,l),
(1008,1170,l),
(1008,1394,l),
(66,1394,l),
(498,801,l),
(173,774,o),
(100,584,o),
(100,420,cs),
(100,180,o),
(286,-25,o),
(586,-25,cs)
);
}
);
width = 1132;
}
);
unicode = 440;
},
{
glyphname = F;
lastChange = "2023-11-10 06:07:35 +0000";
layers = (
{
anchors = (
{
name = bottom;
pos = (439,0);
},
{
name = top;
pos = (506,1394);
}
);
layerId = "B61D43DE-5272-4FF4-A680-608B6BF5ED9E";
shapes = (
{
closed = 1;
nodes = (
(399,0,l),
(399,614,l),
(363,584,l),
(811,584,l),
(811,808,l),
(363,808,l),
(399,772,l),
(399,1210,l),
(367,1174,l),
(871,1174,l),
(871,1394,l),
(143,1394,l),
(143,0,l)
);
}
);
width = 903;
}
);
metricLeft = H;
unicode = 70;
userData = {
KernOnName = F;
};
},
{
color = 1;
glyphname = Fhook;
lastChange = "2023-10-18 23:57:44 +0000";
layers = (
{
layerId = "B61D43DE-5272-4FF4-A680-608B6BF5ED9E";
shapes = (
{
closed = 1;
nodes = (
(437,-40,l),
(437,614,l),
(401,584,l),
(849,584,l),
(849,808,l),
(401,808,l),
(437,772,l),
(437,1210,l),
(405,1174,l),
(909,1174,l),
(909,1394,l),
(181,1394,l),
(181,-40,l)
);
},
{
closed = 1;
nodes = (
(266,67,l),
(181,-40,l),
(181,-145,o),
(134,-178,o),
(33,-178,cs),
(-42,-178,o),
(-70,-152,o),
(-110,-124,c),
(-180,-315,l),
(-156,-351,o),
(-54,-405,o),
(77,-405,cs),
(322,-405,o),
(439,-259,o),
(437,-40,c)
);
}
);
width = 941;
}
);
metricRight = F;
unicode = 401;
},
{
color = 3;
glyphname = G;
lastChange = "2023-11-10 06:07:35 +0000";
layers = (
{
layerId = "B61D43DE-5272-4FF4-A680-608B6BF5ED9E";
shapes = (
{
closed = 1;
nodes = (
(1098,-36,o),
(1192,252,o),
(1192,554,cs),
(1192,610,o),
(1186,686,o),
(1180,748,c),
(658,748,l),
(658,528,l),
(1032,528,l),
(936,594,l),
(942,550,o),
(946,510,o),
(946,474,cs),
(946,288,o),
(868,188,o),
(662,188,cs),
(470,188,o),
(342,382,o),
(342,716,cs),
(342,992,o),
(494,1182,o),
(696,1182,cs),
(886,1182,o),
(958,1112,o),
(988,1072,c),
(1098,1294,l),
(1046,1344,o),
(956,1418,o),
(692,1418,cs),
(330,1418,o),
(74,1124,o),
(74,710,cs),
(74,238,o),
(304,-36,o),
(658,-36,cs)
);
}
);
width = 1258;
}
);
unicode = 71;
userData = {
KernOnName = G;
com.typemytype.robofont.mark = (
0.6,
1,
0.628,
1
);
};
},
{
color = 4;
glyphname = Ghook;
lastChange = "2023-10-18 23:57:44 +0000";
layers = (
{
layerId = "B61D43DE-5272-4FF4-A680-608B6BF5ED9E";
shapes = (
{
closed = 1;
nodes = (
(1069,1244,l),
(1045,1378,o),
(1102,1425,o),
(1181,1425,cs),
(1221,1425,o),
(1255,1407,o),
(1269,1389,c),
(1269,1617,l),
(1264,1629,o),
(1214,1661,o),
(1146,1661,cs),
(981,1661,o),
(856,1575,o),
(856,1340,c)
);
},
{
closed = 1;
nodes = (
(1098,-36,o),
(1192,252,o),
(1192,554,cs),
(1192,610,o),
(1186,686,o),
(1180,748,c),
(658,748,l),
(658,528,l),
(1032,528,l),
(936,594,l),
(942,550,o),
(946,510,o),
(946,474,cs),
(946,288,o),
(868,188,o),
(662,188,cs),
(470,188,o),
(342,382,o),
(342,716,cs),
(342,992,o),
(494,1182,o),
(696,1182,cs),
(843,1182,o),
(915,1112,o),
(969,1072,c),
(1069,1244,l),
(1017,1294,o),
(913,1418,o),
(692,1418,cs),
(330,1418,o),
(74,1124,o),
(74,710,cs),
(74,238,o),
(296,-36,o),
(658,-36,cs)
);
}
);
width = 1258;
}
);
unicode = 403;
},
{
glyphname = Gstroke;
lastChange = "2023-10-19 00:54:12 +0000";
layers = (
{
layerId = "B61D43DE-5272-4FF4-A680-608B6BF5ED9E";
shapes = (
{
closed = 1;
nodes = (
(1098,-36,o),
(1192,252,o),
(1192,624,cs),
(1192,680,o),
(1186,756,o),
(1180,818,c),
(658,818,l),
(658,598,l),
(1032,598,l),
(936,664,l),
(942,620,o),
(946,510,o),
(946,474,cs),
(946,288,o),
(868,188,o),
(662,188,cs),
(470,188,o),
(342,382,o),
(342,716,cs),
(342,992,o),
(494,1182,o),
(696,1182,cs),
(886,1182,o),
(958,1112,o),
(988,1072,c),
(1098,1294,l),
(1046,1344,o),
(956,1418,o),
(692,1418,cs),
(330,1418,o),
(74,1124,o),
(74,710,cs),
(74,238,o),
(304,-36,o),
(658,-36,cs)
);
},
{
closed = 1;
nodes = (
(1272,317,l),
(1272,513,l),
(658,513,l),
(658,317,l)
);
}
);
width = 1258;
}
);
metricLeft = G;
unicode = 484;
},
{
glyphname = H;
lastChange = "2023-11-10 06:07:35 +0000";
layers = (
{
anchors = (
{
name = bottom;
pos = (632,0);
},
{
name = center;
pos = (632,697);
},
{
name = top;
pos = (632,1394);
},
{
name = topleft;
pos = (-5,1394);
}
);
layerId = "B61D43DE-5272-4FF4-A680-608B6BF5ED9E";
shapes = (
{
closed = 1;
nodes = (
(401,0,l),
(401,620,l),
(367,592,l),
(895,592,l),
(863,620,l),
(863,0,l),
(1121,0,l),
(1121,1394,l),
(863,1394,l),
(863,776,l),
(893,812,l),
(367,812,l),
(401,778,l),
(401,1394,l),
(143,1394,l),
(143,0,l)
);
}
);
width = 1264;
}
);
unicode = 72;
userData = {
KernOnName = H;
};
},
{
glyphname = Hbar;
lastChange = "2023-10-18 23:57:44 +0000";
layers = (
{
layerId = "B61D43DE-5272-4FF4-A680-608B6BF5ED9E";
shapes = (
{
closed = 1;
nodes = (
(1262,998,l),
(1262,1166,l),
(28,1166,l),
(28,998,l)
);
},
{
closed = 1;
nodes = (
(426,0,l),
(426,540,l),
(392,512,l),
(918,512,l),
(886,540,l),
(886,0,l),
(1146,0,l),
(1146,1394,l),
(886,1394,l),
(886,696,l),
(916,732,l),
(392,732,l),
(426,698,l),
(426,1394,l),
(168,1394,l),
(168,0,l)
);
}
);
width = 1292;
}
);
unicode = (294,295);
},
{
color = 4;
glyphname = Hhook;
lastChange = "2023-11-10 01:11:51 +0000";
layers = (
{
layerId = "B61D43DE-5272-4FF4-A680-608B6BF5ED9E";
shapes = (
{
closed = 1;
nodes = (
(129,1394,o),
(10,1255,o),
(10,1066,cs),
(10,945,o),
(69,847,o),
(99,823,c),
(320,862,l),
(292,902,o),
(257,945,o),
(257,1036,cs),
(257,1121,o),
(303,1176,o),
(433,1176,c),
(520,1271,l),
(433,1394,l)
);
},
{
closed = 1;
nodes = (
(691,0,l),
(691,620,l),
(657,592,l),
(1183,592,l),
(1151,620,l),
(1151,0,l),
(1411,0,l),
(1411,1394,l),
(1151,1394,l),
(1151,776,l),
(1181,812,l),
(657,812,l),
(691,778,l),
(691,1394,l),
(433,1394,l),
(433,0,l)
);
}
);
width = 1554;
}
);
metricRight = H;
unicode = 42922;
},
{
color = 1;
glyphname = Hturned;
lastChange = "2023-11-10 01:11:51 +0000";
layers = (
{
layerId = "B61D43DE-5272-4FF4-A680-608B6BF5ED9E";
shapes = (
{
closed = 1;
nodes = (
(168,592,l),
(918,592,l),
(886,620,l),
(886,0,l),
(1146,0,l),
(1146,1394,l),
(886,1394,l),
(886,776,l),
(916,812,l),
(392,812,l),
(426,778,l),
(426,1394,l),
(168,1394,l)
);
}
);
width = 1289;
}
);
metricRight = H;
unicode = (42893,613);
},
{
glyphname = I;
lastChange = "2023-10-19 00:21:47 +0000";
layers = (
{
anchors = (
{
name = bottom;
pos = (290,0);
},
{
name = ogonek;
pos = (522,10);
},
{
name = top;
pos = (290,1394);
},
{
name = topleft;
pos = (20,1394);
}
);
layerId = "B61D43DE-5272-4FF4-A680-608B6BF5ED9E";
shapes = (
{
closed = 1;
nodes = (
(418,0,l),
(418,1394,l),
(162,1394,l),
(162,0,l)
);
}
);
width = 580;
}
);
unicode = 73;
},
{
color = 4;
glyphname = Iogonek;
lastChange = "2023-10-18 23:57:44 +0000";
layers = (
{
layerId = "B61D43DE-5272-4FF4-A680-608B6BF5ED9E";
shapes = (
{
closed = 1;
nodes = (
(268,-298,o),
(222,-270,o),
(222,-202,cs),
(222,-93,o),
(286,-31,o),
(418,0,c),
(418,1394,l),
(162,1394,l),
(162,0,l),
(72,-64,o),
(16,-154,o),
(16,-256,cs),
(16,-398,o),
(142,-480,o),
(314,-480,cs),
(383,-480,o),
(442,-468,o),
(482,-449,c),
(482,-268,l),
(434,-291,o),
(386,-298,o),
(346,-298,cs)
);
}
);
width = 580;
}
);
metricWidth = I;
unicode = 302;
},
{
color = 1;
glyphname = "Iota-latin";
lastChange = "2023-10-19 00:47:12 +0000";
layers = (
{
anchors = (
{
name = bottom;
pos = (374,-1064);
}
);
layerId = "B61D43DE-5272-4FF4-A680-608B6BF5ED9E";
shapes = (
{
closed = 1;
nodes = (
(150,321,ls),
(150,64,o),
(301,0,o),
(466,0,cs),
(534,0,o),
(604,32,o),
(609,44,c),
(609,272,l),
(595,254,o),
(561,236,o),
(521,236,cs),
(442,236,o),
(392,262,o),
(392,396,cs),
(392,1394,l),
(150,1394,l)
);
}
);
width = 629;
}
);
unicode = 406;
},
{
glyphname = Istroke;
lastChange = "2023-10-18 23:57:44 +0000";
layers = (
{
layerId = "B61D43DE-5272-4FF4-A680-608B6BF5ED9E";
shapes = (
{
closed = 1;
nodes = (
(524,0,l),
(524,1394,l),
(268,1394,l),
(268,0,l)
);
},
{
closed = 1;
nodes = (
(751,605,l),
(751,787,l),
(42,787,l),
(42,605,l)
);
}
);
width = 793;
}
);
metricLeft = Eth;
metricRight = "=|";
unicode = 407;
},
{
glyphname = J;
lastChange = "2023-11-10 06:07:35 +0000";
layers = (
{
anchors = (
{
name = bottom;
pos = (400,0);
},
{
name = top;
pos = (519,1394);
}
);
layerId = "B61D43DE-5272-4FF4-A680-608B6BF5ED9E";
shapes = (
{
closed = 1;
nodes = (
(554,-30,o),
(654,170,o),
(654,418,cs),
(654,1394,l),
(394,1394,l),
(394,394,ls),
(394,204,o),
(304,192,o),
(226,192,cs),
(174,192,o),
(116,222,o),
(82,272,c),
(-14,34,l),
(34,0,o),
(166,-30,o),
(238,-30,cs)
);
}
);
width = 800;
}
);
unicode = 74;
userData = {
KernOnName = J;
};
},
{
color = 3;
glyphname = K;
lastChange = "2023-11-10 06:08:59 +0000";
layers = (
{
anchors = (
{
name = bottom;
pos = (571,0);
},
{
name = top;
pos = (571,1394);
}
);
layerId = "B61D43DE-5272-4FF4-A680-608B6BF5ED9E";
shapes = (
{
closed = 1;
nodes = (
(1167,0,l),
(625,750,l),
(631,660,l),
(1135,1394,l),
(841,1394,l),
(387,684,l),
(847,0,l)
);
},
{
closed = 1;
nodes = (
(397,0,l),
(397,1394,l),
(143,1394,l),
(143,0,l)
);
}
);
width = 1167;
}
);
metricLeft = H;
unicode = 75;
userData = {
KernOnName = K;
};
},
{
color = 1;
glyphname = Khook;
lastChange = "2023-10-18 23:57:44 +0000";
layers = (
{
background = {
shapes = (
{
closed = 1;
nodes = (
(1192,0,l),
(650,750,l),
(656,660,l),
(1160,1394,l),
(866,1394,l),
(412,684,l),
(872,0,l)
);
}
);
};
layerId = "B61D43DE-5272-4FF4-A680-608B6BF5ED9E";
shapes = (
{
closed = 1;
nodes = (
(422,0,l),
(422,1394,l),
(168,1394,l),
(168,0,l)
);
},
{
closed = 1;
nodes = (
(997,1156,o),
(1035,1215,o),
(1103,1215,cs),
(1177,1215,o),
(1241,1142,o),
(1248,1112,c),
(1360,1306,l),
(1329,1373,o),
(1260,1449,o),
(1097,1449,cs),
(911,1449,o),
(832,1342,o),
(650,1056,c),
(903,1020,l)
);
},
{
closed = 1;
nodes = (
(1192,0,l),
(650,750,l),
(656,660,l),
(903,1020,l),
(929,1256,l),
(650,1056,l),
(412,684,l),
(872,0,l)
);
}
);
width = 1380;
}
);
unicode = 408;
},
{
glyphname = Kstroke;
lastChange = "2023-10-31 04:19:26 +0000";
layers = (
{
anchors = (
{
name = bottom;
pos = (596,0);
},
{
name = top;
pos = (596,1394);
}
);
layerId = "B61D43DE-5272-4FF4-A680-608B6BF5ED9E";
shapes = (
{
closed = 1;
nodes = (
(1192,0,l),
(650,750,l),
(656,660,l),
(1160,1394,l),
(866,1394,l),
(412,684,l),
(872,0,l)
);
},
{
closed = 1;
nodes = (
(422,0,l),
(422,1394,l),
(168,1394,l),
(168,0,l)
);
},
{
closed = 1;
nodes = (
(596,1108,l),
(596,1278,l),
(42,1278,l),
(42,1108,l)
);
}
);
width = 1192;
}
);
unicode = 42816;
},
{
glyphname = L;
lastChange = "2023-11-10 06:07:35 +0000";
layers = (
{
anchors = (
{
name = bottom;
pos = (420,0);
},
{
name = car;
pos = (639,1660);
},
{
name = center;
pos = (345,697);
},
{
name = top;
pos = (276,1394);
},
{
name = topright;
pos = (845,1394);
}
);
layerId = "B61D43DE-5272-4FF4-A680-608B6BF5ED9E";
shapes = (
{
closed = 1;
nodes = (
(813,0,l),
(813,220,l),
(367,220,l),
(397,174,l),
(397,1394,l),
(143,1394,l),
(143,0,l)
);
}
);
width = 865;
}
);
metricLeft = H;
unicode = 76;
userData = {
KernOnName = L;
};
},
{
glyphname = Lslash;
lastChange = "2023-11-10 01:45:47 +0000";
layers = (
{
layerId = "B61D43DE-5272-4FF4-A680-608B6BF5ED9E";
shapes = (
{
closed = 1;
nodes = (
(740,794,l),
(740,1018,l),
(40,648,l),
(40,424,l)
);
},
{
pos = (30,0);
ref = L;
}
);
width = 895;
}
);
metricRight = L;
unicode = 321;
},
{
glyphname = M;
lastChange = "2023-11-10 01:11:51 +0000";
layers = (
{
anchors = (
{
name = bottom;
pos = (726,0);
},
{
name = top;
pos = (726,1394);
}
);
layerId = "B61D43DE-5272-4FF4-A680-608B6BF5ED9E";
shapes = (
{
closed = 1;
nodes = (
(391,0,l),
(391,598,l),
(373,1000,l),
(343,892,l),
(451,726,l),
(725,404,l),
(999,726,l),
(1107,890,l),
(1077,1000,l),
(1061,598,l),
(1061,0,l),
(1309,0,l),
(1309,1418,l),
(1287,1418,l),
(697,718,l),
(757,718,l),
(163,1418,l),
(143,1418,l),
(143,0,l)
);
}
);
width = 1452;
}
);
metricLeft = H;
metricRight = H;
unicode = 77;
userData = {
com.typemytype.robofont.guides = (
{
angle = 0;
isGlobal = 0;
magnetic = 5;
x = 0;
y = 729;
},
{
angle = 90;
isGlobal = 0;
magnetic = 5;
x = 764;
y = 0;
}
);
com.typemytype.robofont.mark = (
0.6,
1,
0.628,
1
);
};
},
{
glyphname = Mturned;
lastChange = "2023-11-10 01:11:51 +0000";
layers = (
{
anchors = (
{
name = bottom;
pos = (834,-266);
}
);
layerId = "B61D43DE-5272-4FF4-A680-608B6BF5ED9E";
shapes = (
{
closed = 1;
nodes = (
(1314,1394,l),
(1314,364,ls),
(1314,254,o),
(1234,174,o),
(1138,174,cs),
(1046,174,o),
(996,254,o),
(996,364,cs),
(996,1394,l),
(738,1394,l),
(738,344,ls),
(738,116,o),
(840,-24,o),
(1042,-24,cs),
(1228,-24,o),
(1314,86,o),
(1362,180,c),
(1330,220,l),
(1340,0,l),
(1572,0,l),
(1572,1394,l)
);
},
{
closed = 1;
nodes = (
(160,1394,l),
(160,338,ls),
(160,112,o),
(258,-24,o),
(462,-24,cs),
(648,-24,o),
(736,80,o),
(784,170,c),
(790,256,l),
(738,364,l),
(738,254,o),
(648,178,o),
(554,178,cs),
(458,178,o),
(418,254,o),
(418,364,cs),
(418,1394,l)
);
}
);
width = 1715;
}
);
metricRight = H;
unicode = 412;
},
{
color = 4;
glyphname = N;
lastChange = "2023-11-10 06:07:35 +0000";
layers = (
{
anchors = (
{
name = bottom;
pos = (655,0);
}
);
layerId = "B61D43DE-5272-4FF4-A680-608B6BF5ED9E";
shapes = (
{
closed = 1;
nodes = (
(1129,-28,l),
(1129,1394,l),
(883,1394,l),
(883,750,l),
(903,378,l),
(1017,400,l),
(823,650,l),
(165,1418,l),
(143,1418,l),
(143,0,l),
(389,0,l),
(389,620,l),
(369,1008,l),
(237,998,l),
(441,734,l),
(1109,-28,l)
);
}
);
width = 1272;
}
);
metricLeft = H;
metricRight = H;
unicode = 78;
userData = {
KernOnName = N;
com.typemytype.robofont.mark = (
0.6,
1,
0.628,
1
);
};
},
{
color = 1;
glyphname = Nhookleft;
lastChange = "2023-10-18 23:57:44 +0000";
layers = (
{
layerId = "B61D43DE-5272-4FF4-A680-608B6BF5ED9E";
shapes = (
{
closed = 1;
nodes = (
(1167,-28,l),
(1167,1394,l),
(921,1394,l),
(921,750,l),
(941,378,l),
(1055,400,l),
(861,650,l),
(203,1418,l),
(181,1418,l),
(181,0,l),
(427,0,l),
(427,620,l),
(407,1008,l),
(275,998,l),
(479,734,l),
(1147,-28,l)
);
},
{
closed = 1;
nodes = (
(266,107,l),
(181,0,l),
(181,-105,o),
(134,-138,o),
(33,-138,cs),
(-42,-138,o),
(-70,-112,o),
(-110,-84,c),
(-180,-275,l),
(-156,-311,o),
(-54,-365,o),
(77,-365,cs),
(322,-365,o),
(429,-219,o),
(427,0,c)
);
}
);
width = 1335;
}
);
metricLeft = Fhook;
unicode = 413;
},
{
glyphname = Nlongrightleg;
lastChange = "2023-10-31 04:16:38 +0000";
layers = (
{
layerId = "B61D43DE-5272-4FF4-A680-608B6BF5ED9E";
shapes = (
{
closed = 1;
nodes = (
(168,1394,l),
(168,0,l),
(414,0,l),
(414,1066,l),
(483,1139,o),
(567,1212,o),
(718,1212,cs),
(847,1212,o),
(890,1136,o),
(890,949,cs),
(889,-276,l),
(1134,-276,l),
(1134,995,ls),
(1134,1274,o),
(1072,1410,o),
(784,1410,cs),
(611,1410,o),
(497,1339,o),
(414,1260,c),
(414,1394,l)
);
}
);
width = 1302;
}
);
unicode = 544;
},
{
color = 9;
glyphname = Eng;
lastChange = "2023-11-10 01:11:51 +0000";
layers = (
{
layerId = "B61D43DE-5272-4FF4-A680-608B6BF5ED9E";
shapes = (
{
closed = 1;
nodes = (
(143,1394,l),
(143,0,l),
(389,0,l),
(389,1066,l),
(458,1139,o),
(542,1212,o),
(693,1212,cs),
(822,1212,o),
(865,1136,o),
(865,949,cs),
(864,-78,ls),
(864,-260,o),
(779,-290,o),
(689,-290,cs),
(633,-290,o),
(549,-262,o),
(493,-228,c),
(417,-446,l),
(479,-482,o),
(585,-510,o),
(733,-510,cs),
(931,-510,o),
(1109,-368,o),
(1109,-28,cs),
(1109,995,ls),
(1109,1274,o),
(1047,1410,o),
(759,1410,cs),
(586,1410,o),
(472,1339,o),
(389,1260,c),
(389,1394,l)
);
}
);
width = 1252;
}
);
metricLeft = N;
metricRight = N;
unicode = 330;
},
{
glyphname = O;
lastChange = "2023-11-10 06:07:35 +0000";
layers = (
{
anchors = (
{
name = bottom;
pos = (658,0);
},
{
name = center;
pos = (658,697);
},
{
name = ogonek;
pos = (1184,10);
},
{
name = top;
pos = (658,1394);
},
{
name = topleft;
pos = (20,1394);
},
{
name = topright;
pos = (1296,1394);
}
);
layerId = "B61D43DE-5272-4FF4-A680-608B6BF5ED9E";
shapes = (
{
closed = 1;
nodes = (
(1032,-24,o),
(1238,260,o),
(1238,698,cs),
(1238,1126,o),
(1044,1418,o),
(654,1418,cs),
(280,1418,o),
(78,1132,o),
(78,698,cs),
(78,260,o),
(282,-24,o),
(660,-24,cs)
);
},
{
closed = 1;
nodes = (
(472,190,o),
(346,354,o),
(346,702,cs),
(346,1038,o),
(460,1210,o),
(654,1210,cs),
(852,1210,o),
(972,1038,o),
(972,704,cs),
(972,356,o),
(834,190,o),
(660,190,cs)
);
}
);
width = 1316;
}
);
unicode = 79;
userData = {
KernOnName = O;
com.typemytype.robofont.mark = (
0.6,
1,
0.628,
1
);
};
},
{
glyphname = Obarred;
lastChange = "2023-10-31 04:11:36 +0000";
layers = (
{
anchors = (
{
name = bottom;
pos = (658,0);
},
{
name = center;
pos = (658,697);
},
{
name = ogonek;
pos = (1184,10);
},
{
name = top;
pos = (658,1394);
},
{
name = topleft;
pos = (20,1394);
},
{
name = topright;
pos = (1296,1394);
}
);
layerId = "B61D43DE-5272-4FF4-A680-608B6BF5ED9E";
shapes = (
{
closed = 1;
nodes = (
(1032,-24,o),
(1238,260,o),
(1238,698,cs),
(1238,1126,o),
(1044,1418,o),
(654,1418,cs),
(280,1418,o),
(78,1132,o),
(78,698,cs),
(78,260,o),
(282,-24,o),
(660,-24,cs)
);
},
{
closed = 1;
nodes = (
(472,190,o),
(341,354,o),
(341,702,cs),
(341,1038,o),
(460,1210,o),
(654,1210,cs),
(852,1210,o),
(980,1038,o),
(980,704,cs),
(980,356,o),
(834,190,o),
(660,190,cs)
);
},
{
closed = 1;
nodes = (
(1176,608,l),
(1176,790,l),
(172,790,l),
(172,608,l)
);
}
);
width = 1316;
}
);
unicode = 415;
},
{
glyphname = Ohorn;
lastChange = "2023-10-18 20:30:22 +0000";
layers = (
{
anchors = (
{
name = bottom;
pos = (658,0);
},
{
name = center;
pos = (658,697);
},
{
name = ogonek;
pos = (1184,10);
},
{
name = top;
pos = (658,1394);
},
{
name = topleft;
pos = (20,1394);
},
{
name = topright;
pos = (1296,1394);
}
);
layerId = "B61D43DE-5272-4FF4-A680-608B6BF5ED9E";
shapes = (
{
closed = 1;
nodes = (
(1186,1236,o),
(1324,1362,o),
(1324,1526,cs),
(1324,1608,o),
(1320,1638,o),
(1310,1670,c),
(1102,1670,l),
(1114,1638,o),
(1118,1610,o),
(1118,1556,cs),
(1118,1442,o),
(1050,1366,o),
(904,1366,c),
(1032,1236,l)
);
},
{
closed = 1;
nodes = (
(1032,-24,o),
(1238,260,o),
(1238,698,cs),
(1238,1126,o),
(1084,1418,o),
(654,1418,cs),
(280,1418,o),
(78,1132,o),
(78,698,cs),
(78,260,o),
(282,-24,o),
(660,-24,cs)
);
},
{
closed = 1;
nodes = (
(472,190,o),
(346,354,o),
(346,702,cs),
(346,1038,o),
(460,1210,o),
(654,1210,cs),
(852,1210,o),
(972,1038,o),
(972,704,cs),
(972,356,o),
(834,190,o),
(660,190,cs)
);
}
);
width = 1316;
}
);
metricLeft = O;
unicode = 416;
},
{
glyphname = Ohornacute;
lastChange = "2019-10-28 18:28:25 +0000";
layers = (
{
layerId = "B61D43DE-5272-4FF4-A680-608B6BF5ED9E";
shapes = (
{
closed = 1;
nodes = (
(1146,1236,o),
(1284,1362,o),
(1284,1526,cs),
(1284,1608,o),
(1280,1638,o),
(1270,1670,c),
(1062,1670,l),
(1074,1638,o),
(1078,1610,o),
(1078,1556,cs),
(1078,1442,o),
(1010,1366,o),
(904,1366,c),
(1032,1236,l)
);
},
{
pos = (658,404);
ref = acutecomb;
},
{
ref = O;
}
);
width = 1316;
}
);
unicode = 7898;
},
{
glyphname = Ohorndotbelow;
lastChange = "2019-10-28 18:28:25 +0000";
layers = (
{
layerId = "B61D43DE-5272-4FF4-A680-608B6BF5ED9E";
shapes = (
{
closed = 1;
nodes = (
(1146,1236,o),
(1284,1362,o),
(1284,1526,cs),
(1284,1608,o),
(1280,1638,o),
(1270,1670,c),
(1062,1670,l),
(1074,1638,o),
(1078,1610,o),
(1078,1556,cs),
(1078,1442,o),
(1010,1366,o),
(904,1366,c),
(1032,1236,l)
);
},
{
pos = (660,0);
ref = dotbelowcomb;
},
{
ref = O;
}
);
width = 1316;
}
);
unicode = 7906;
},
{
glyphname = Ohorngrave;
lastChange = "2019-10-28 18:28:25 +0000";
layers = (
{
layerId = "B61D43DE-5272-4FF4-A680-608B6BF5ED9E";
shapes = (
{
closed = 1;
nodes = (
(1146,1236,o),
(1284,1362,o),
(1284,1526,cs),
(1284,1608,o),
(1280,1638,o),
(1270,1670,c),
(1062,1670,l),
(1074,1638,o),
(1078,1610,o),
(1078,1556,cs),
(1078,1442,o),
(1010,1366,o),
(904,1366,c),
(1032,1236,l)
);
},
{
ref = O;
},
{
pos = (658,0);
ref = gravecomb.case;
}
);
width = 1316;
}
);
unicode = 7900;
},
{
glyphname = Ohornhookabove;
lastChange = "2019-10-28 18:28:25 +0000";
layers = (
{
layerId = "B61D43DE-5272-4FF4-A680-608B6BF5ED9E";
shapes = (
{
closed = 1;
nodes = (
(1146,1236,o),
(1284,1362,o),
(1284,1526,cs),
(1284,1608,o),
(1280,1638,o),
(1270,1670,c),
(1062,1670,l),
(1074,1638,o),
(1078,1610,o),
(1078,1556,cs),
(1078,1442,o),
(1010,1366,o),
(904,1366,c),
(1032,1236,l)
);
},
{
ref = O;
},
{
pos = (658,0);
ref = hookabovecomb.case;
}
);
width = 1316;
}
);
unicode = 7902;
},
{
glyphname = Ohorntilde;
lastChange = "2019-10-28 18:28:25 +0000";
layers = (
{
layerId = "B61D43DE-5272-4FF4-A680-608B6BF5ED9E";
shapes = (
{
closed = 1;
nodes = (
(1146,1236,o),
(1284,1362,o),
(1284,1526,cs),
(1284,1608,o),
(1280,1638,o),
(1270,1670,c),
(1062,1670,l),
(1074,1638,o),
(1078,1610,o),
(1078,1556,cs),
(1078,1442,o),
(1010,1366,o),
(904,1366,c),
(1032,1236,l)
);
},
{
ref = O;
},
{
pos = (658,0);
ref = tildecomb.case;
}
);
width = 1316;
}
);
unicode = 7904;
},
{
color = 4;
glyphname = Oogonek;
lastChange = "2023-10-18 23:57:44 +0000";
layers = (
{
layerId = "B61D43DE-5272-4FF4-A680-608B6BF5ED9E";
shapes = (
{
closed = 1;
nodes = (
(1088,62,o),
(1238,324,o),
(1238,698,cs),
(1238,1126,o),
(1044,1418,o),
(654,1418,cs),
(280,1418,o),
(78,1132,o),
(78,698,cs),
(78,303,o),
(244,33,o),
(554,-16,c),
(438,-68,o),
(360,-168,o),
(360,-256,cs),
(360,-398,o),
(468,-480,o),
(658,-480,cs),
(728,-480,o),
(786,-468,o),
(826,-448,c),
(826,-268,l),
(778,-292,o),
(756,-298,o),
(716,-298,cs),
(656,-298,o),
(604,-284,o),
(604,-216,cs),
(604,-133,o),
(697,-60,o),
(812,-6,c)
);
},
{
closed = 1;
nodes = (
(346,1038,o),
(460,1210,o),
(654,1210,cs),
(852,1210,o),
(972,1038,o),
(972,704,cs),
(972,356,o),
(834,190,o),
(660,190,cs),
(472,190,o),
(346,354,o),
(346,702,cs)
);
}
);
width = 1316;
}
);
unicode = 490;
},
{
color = 1;
glyphname = Oopen;
lastChange = "2023-10-18 23:57:44 +0000";
layers = (
{
anchors = (
{
name = vslash;
pos = (420,690);
}
);
layerId = "B61D43DE-5272-4FF4-A680-608B6BF5ED9E";
shapes = (
{
closed = 1;
nodes = (
(704,-24,o),
(980,208,o),
(980,716,cs),
(980,1172,o),
(716,1418,o),
(392,1418,cs),
(172,1418,o),
(86,1342,o),
(34,1294,c),
(146,1084,l),
(204,1146,o),
(248,1188,o),
(382,1188,cs),
(586,1188,o),
(702,996,o),
(702,730,cs),
(702,382,o),
(568,204,o),
(404,204,cs),
(278,204,o),
(186,246,o),
(142,292,c),
(32,94,l),
(88,48,o),
(190,-24,o),
(414,-24,cs)
);
}
);
width = 1054;
}
);
metricLeft = "=|C";
metricRight = "=|C";
unicode = 390;
},
{
glyphname = Oslash;
lastChange = "2023-10-19 00:21:47 +0000";
layers = (
{
anchors = (
{
name = bottom;
pos = (658,0);
},
{
name = top;
pos = (658,1394);
}
);
layerId = "B61D43DE-5272-4FF4-A680-608B6BF5ED9E";
shapes = (
{
closed = 1;
nodes = (
(408,124,l),
(434,196,l),
(970,1200,l),
(1026,1236,l),
(1150,1458,l),
(1010,1530,l),
(890,1322,l),
(866,1238,l),
(356,266,l),
(294,238,l),
(126,-44,l),
(264,-120,l)
);
},
{
closed = 1;
nodes = (
(1032,-26,o),
(1238,258,o),
(1238,696,cs),
(1238,1124,o),
(1044,1418,o),
(654,1418,cs),
(280,1418,o),
(78,1130,o),
(78,696,cs),
(78,258,o),
(282,-26,o),
(660,-26,cs)
);
},
{
closed = 1;
nodes = (
(472,184,o),
(346,352,o),
(346,700,cs),
(346,1036,o),
(460,1214,o),
(654,1214,cs),
(852,1214,o),
(972,1036,o),
(972,702,cs),
(972,354,o),
(834,184,o),
(660,184,cs)
);
}
);
width = 1316;
}
);
metricLeft = O;
metricRight = O;
unicode = 216;
},
{
glyphname = OE;
lastChange = "2023-11-10 01:11:51 +0000";
layers = (
{
anchors = (
{
name = bottom;
pos = (912,0);
},
{
name = top;
pos = (912,1394);
}
);
layerId = "B61D43DE-5272-4FF4-A680-608B6BF5ED9E";
shapes = (
{
closed = 1;
nodes = (
(1038,-26,o),
(1138,198,o),
(1138,696,cs),
(1138,1184,o),
(1044,1418,o),
(654,1418,cs),
(280,1418,o),
(78,1130,o),
(78,696,cs),
(78,258,o),
(282,-26,o),
(660,-26,cs)
);
},
{
closed = 1;
nodes = (
(472,184,o),
(346,352,o),
(346,700,cs),
(346,1036,o),
(460,1214,o),
(654,1214,cs),
(852,1214,o),
(972,1036,o),
(972,702,cs),
(972,354,o),
(834,184,o),
(660,184,cs)
);
},
{
closed = 1;
nodes = (
(1742,0,l),
(1742,220,l),
(1172,220,l),
(1204,182,l),
(1204,672,l),
(1168,638,l),
(1604,638,l),
(1604,850,l),
(1168,850,l),
(1204,816,l),
(1204,1210,l),
(1172,1182,l),
(1702,1182,l),
(1702,1394,l),
(980,1394,l),
(980,0,l)
);
}
);
width = 1814;
}
);
metricLeft = O;
metricRight = E;
unicode = 338;
userData = {
com.typemytype.robofont.mark = (
0.6,
1,
0.628,
1
);
};
},
{
glyphname = P;
lastChange = "2023-11-10 06:07:35 +0000";
layers = (
{
anchors = (
{
name = bottom;
pos = (522,0);
},
{
name = top;
pos = (522,1394);
}
);
layerId = "B61D43DE-5272-4FF4-A680-608B6BF5ED9E";
shapes = (
{
closed = 1;
nodes = (
(401,0,l),
(401,476,l),
(331,374,l),
(525,374,ls),
(879,374,o),
(1029,632,o),
(1029,906,cs),
(1029,1284,o),
(801,1394,o),
(517,1394,cs),
(143,1394,l),
(143,0,l)
);
},
{
closed = 1;
nodes = (
(401,1228,l),
(371,1192,l),
(501,1192,ls),
(701,1192,o),
(771,1096,o),
(771,892,cs),
(771,692,o),
(683,584,o),
(507,584,cs),
(365,584,l),
(401,560,l)
);
}
);
width = 1074;
}
);
metricLeft = H;
unicode = 80;
userData = {
KernOnName = P;
};
},
{
color = 1;
glyphname = Phook;
lastChange = "2023-11-10 01:11:51 +0000";
layers = (
{
layerId = "B61D43DE-5272-4FF4-A680-608B6BF5ED9E";
shapes = (
{
closed = 1;
nodes = (
(691,0,l),
(691,476,l),
(621,374,l),
(815,374,ls),
(1169,374,o),
(1319,632,o),
(1319,906,cs),
(1319,1284,o),
(1091,1394,o),
(807,1394,cs),
(433,1394,l),
(433,0,l)
);
},
{
closed = 1;
nodes = (
(691,1228,l),
(661,1192,l),
(791,1192,ls),
(991,1192,o),
(1061,1096,o),
(1061,892,cs),
(1061,692,o),
(973,584,o),
(797,584,cs),
(655,584,l),
(691,560,l)
);
},
{
closed = 1;
nodes = (
(129,1394,o),
(10,1255,o),
(10,1066,cs),
(10,945,o),
(69,847,o),
(99,823,c),
(320,862,l),
(292,902,o),
(257,945,o),
(257,1036,cs),
(257,1121,o),
(303,1176,o),
(433,1176,c),
(520,1271,l),
(433,1394,l)
);
}
);
width = 1364;
}
);
metricLeft = Hhook;
metricRight = P;
unicode = 420;
},
{
glyphname = Thorn;
lastChange = "2023-11-10 01:11:51 +0000";
layers = (
{
layerId = "B61D43DE-5272-4FF4-A680-608B6BF5ED9E";
shapes = (
{
closed = 1;
nodes = (
(391,0,l),
(391,334,l),
(279,212,l),
(493,212,ls),
(901,212,o),
(1055,440,o),
(1055,696,cs),
(1055,1056,o),
(829,1176,o),
(515,1176,cs),
(279,1176,l),
(391,1054,l),
(391,1394,l),
(143,1394,l),
(143,0,l)
);
},
{
closed = 1;
nodes = (
(391,1096,l),
(279,974,l),
(509,974,ls),
(733,974,o),
(797,860,o),
(797,682,cs),
(797,508,o),
(723,416,o),
(499,416,cs),
(279,416,l),
(391,294,l)
);
}
);
width = 1100;
}
);
metricLeft = H;
metricRight = P;
unicode = 222;
},
{
glyphname = Q;
lastChange = "2023-11-10 06:07:35 +0000";
layers = (
{
anchors = (
{
name = bottom;
pos = (658,0);
},
{
name = top;
pos = (658,1394);
}
);
layerId = "B61D43DE-5272-4FF4-A680-608B6BF5ED9E";
shapes = (
{
closed = 1;
nodes = (
(1062,-222,l),
(878,80,l),
(674,-12,l),
(832,-346,l)
);
},
{
ref = O;
}
);
width = 1316;
}
);
unicode = 81;
userData = {
KernOnName = Q;
};
},
{
glyphname = R;
lastChange = "2023-11-10 06:07:35 +0000";
layers = (
{
anchors = (
{
name = bottom;
pos = (552,0);
},
{
name = top;
pos = (552,1394);
}
);
background = {
shapes = (
{
closed = 1;
nodes = (
(1549,0,l),
(1549,528,l),
(1545,510,l),
(1907,0,l),
(2217,0,l),
(1831,518,l),
(1677,470,l),
(1693,470,o),
(1707,468,o),
(1721,468,cs),
(2067,468,o),
(2179,738,o),
(2179,950,cs),
(2179,1284,o),
(1967,1394,o),
(1683,1394,cs),
(1295,1394,l),
(1295,0,l)
);
},
{
closed = 1;
nodes = (
(1549,1226,l),
(1513,1194,l),
(1649,1194,ls),
(1849,1194,o),
(1923,1106,o),
(1923,926,c),
(1923,770,o),
(1831,630,o),
(1655,630,c),
(1509,630,l),
(1549,608,l)
);
}
);
};
layerId = "B61D43DE-5272-4FF4-A680-608B6BF5ED9E";
shapes = (
{
closed = 1;
nodes = (
(705,484,l),
(945,544,o),
(1027,768,o),
(1027,950,cs),
(1027,1284,o),
(815,1394,o),
(531,1394,cs),
(143,1394,l),
(143,0,l),
(397,0,l),
(397,504,l),
(755,0,l),
(1065,0,l)
);
},
{
closed = 1;
nodes = (
(397,1194,l),
(497,1194,ls),
(697,1194,o),
(771,1106,o),
(771,926,cs),
(771,770,o),
(679,630,o),
(503,630,cs),
(397,630,l)
);
}
);
width = 1142;
}
);
metricLeft = H;
unicode = 82;
userData = {
KernOnName = R;
};
},
{
color = 1;
glyphname = Rstroke;
lastChange = "2023-10-31 04:03:33 +0000";
layers = (
{
layerId = "B61D43DE-5272-4FF4-A680-608B6BF5ED9E";
shapes = (
{
closed = 1;
nodes = (
(370,526,l),
(370,726,l),
(42,726,l),
(42,526,l)
);
},
{
closed = 1;
nodes = (
(760,544,l),
(1000,604,o),
(1082,828,o),
(1082,980,cs),
(1082,1284,o),
(870,1394,o),
(586,1394,cs),
(198,1394,l),
(198,0,l),
(452,0,l),
(452,564,l),
(810,0,l),
(1120,0,l)
);
},
{
closed = 1;
nodes = (
(452,1194,l),
(552,1194,ls),
(752,1194,o),
(826,1106,o),
(826,956,cs),
(826,830,o),
(734,690,o),
(558,690,cs),
(452,690,l)
);
}
);
width = 1197;
}
);
metricLeft = Eth;
metricRight = R;
unicode = (588,589);
},
{
color = 1;
glyphname = Rtail;
lastChange = "2023-11-10 01:11:51 +0000";
layers = (
{
layerId = "B61D43DE-5272-4FF4-A680-608B6BF5ED9E";
shapes = (
{
closed = 1;
nodes = (
(705,514,l),
(945,574,o),
(1027,788,o),
(1027,960,cs),
(1027,1294,o),
(815,1394,o),
(531,1394,cs),
(143,1394,l),
(143,0,l),
(397,0,l),
(397,534,l),
(775,0,l),
(1085,0,l)
);
},
{
closed = 1;
nodes = (
(397,1194,l),
(497,1194,ls),
(697,1194,o),
(771,1116,o),
(771,936,cs),
(771,790,o),
(679,660,o),
(503,660,cs),
(397,660,l)
);
},
{
closed = 1;
nodes = (
(143,-304,o),
(236,-387,o),
(485,-387,cs),
(586,-387,o),
(670,-351,o),
(694,-321,c),
(642,-94,l),
(602,-122,o),
(574,-148,o),
(503,-148,cs),
(418,-148,o),
(393,-105,o),
(393,0,c),
(266,87,l),
(143,0,l)
);
}
);
width = 1162;
}
);
metricLeft = H;
metricRight = R;
unicode = 11364;
},
{
glyphname = S;
lastChange = "2023-11-10 06:07:35 +0000";
layers = (
{
anchors = (
{
name = bottom;
pos = (498,0);
},
{
name = top;
pos = (484,1394);
}
);
layerId = "B61D43DE-5272-4FF4-A680-608B6BF5ED9E";
shapes = (
{
closed = 1;
nodes = (
(754,-22,o),
(918,124,o),
(918,368,cs),
(918,612,o),
(754,704,o),
(566,816,cs),
(452,884,o),
(362,942,o),
(362,1050,cs),
(362,1134,o),
(416,1206,o),
(524,1206,cs),
(640,1206,o),
(730,1124,o),
(758,1084,c),
(870,1288,l),
(826,1328,o),
(718,1418,o),
(514,1418,cs),
(246,1418,o),
(102,1260,o),
(102,1040,cs),
(102,794,o),
(280,694,o),
(442,596,cs),
(574,516,o),
(656,468,o),
(656,360,cs),
(656,250,o),
(570,194,o),
(470,194,cs),
(340,194,o),
(214,286,o),
(172,340,c),
(70,130,l),
(138,58,o),
(292,-22,o),
(488,-22,cs)
);
}
);
width = 988;
}
);
unicode = 83;
userData = {
KernOnName = S;
};
},
{
glyphname = Germandbls;
lastChange = "2019-10-28 18:28:25 +0000";
layers = (
{
layerId = "B61D43DE-5272-4FF4-A680-608B6BF5ED9E";
shapes = (
{
closed = 1;
nodes = (
(1138,1394,l),
(684,1394,ls),
(352,1394,o),
(132,1174,o),
(132,670,cs),
(132,0,l),
(384,0,l),
(384,692,ls),
(384,956,o),
(458,1192,o),
(696,1192,cs),
(796,1192,l),
(540,672,l),
(734,672,o),
(884,610,o),
(884,452,cs),
(884,214,o),
(718,204,o),
(588,204,cs),
(560,204,o),
(512,208,o),
(484,214,c),
(478,-4,l),
(522,-10,o),
(596,-12,o),
(636,-12,cs),
(962,-12,o),
(1154,160,o),
(1154,472,cs),
(1154,650,o),
(1048,786,o),
(860,832,c),
(1150,1376,l)
);
}
);
width = 1286;
}
);
metricLeft = U;
metricRight = U;
unicode = 7838;
},
{
glyphname = T;
lastChange = "2023-11-10 06:07:35 +0000";
layers = (
{
anchors = (
{
name = bottom;
pos = (522,0);
},
{
name = center;
pos = (521,697);
},
{
name = top;
pos = (521,1394);
}
);
layerId = "B61D43DE-5272-4FF4-A680-608B6BF5ED9E";
shapes = (
{
closed = 1;
nodes = (
(650,0,l),
(650,1214,l),
(620,1168,l),
(972,1168,l),
(972,1394,l),
(70,1394,l),
(70,1168,l),
(416,1168,l),
(392,1214,l),
(392,0,l)
);
}
);
width = 1042;
}
);
unicode = 84;
userData = {
KernOnName = T;
};
},
{
glyphname = Tbar;
lastChange = "2023-10-31 04:03:33 +0000";
layers = (
{
layerId = "B61D43DE-5272-4FF4-A680-608B6BF5ED9E";
shapes = (
{
closed = 1;
nodes = (
(876,632,l),
(876,802,l),
(142,802,l),
(142,632,l)
);
},
{
ref = T;
}
);
width = 1042;
}
);
metricLeft = T;
metricRight = T;
unicode = 358;
},
{
color = 1;
glyphname = Thook;
lastChange = "2023-10-19 00:40:36 +0000";
layers = (
{
anchors = (
{
name = bottom;
pos = (626,0);
}
);
layerId = "B61D43DE-5272-4FF4-A680-608B6BF5ED9E";
shapes = (
{
closed = 1;
nodes = (
(754,0,l),
(754,1168,l),
(1076,1168,l),
(1076,1394,l),
(433,1394,ls),
(129,1394,o),
(10,1255,o),
(10,1066,cs),
(10,945,o),
(69,847,o),
(99,823,c),
(320,862,l),
(292,902,o),
(257,945,o),
(257,1036,cs),
(257,1121,o),
(303,1168,o),
(433,1168,cs),
(496,1168,l),
(496,0,l)
);
}
);
width = 1112;
}
);
metricLeft = Hhook;
unicode = 428;
},
{
color = 1;
glyphname = Tretroflexhook;
lastChange = "2023-10-18 23:57:45 +0000";
layers = (
{
anchors = (
{
name = bottom;
pos = (488,0);
}
);
layerId = "B61D43DE-5272-4FF4-A680-608B6BF5ED9E";
shapes = (
{
closed = 1;
nodes = (
(616,0,l),
(616,1214,l),
(586,1168,l),
(938,1168,l),
(938,1394,l),
(36,1394,l),
(36,1168,l),
(382,1168,l),
(358,1214,l),
(358,0,l)
);
},
{
closed = 1;
nodes = (
(356,-249,o),
(435,-377,o),
(710,-377,cs),
(811,-377,o),
(895,-321,o),
(919,-285,c),
(867,-84,l),
(827,-112,o),
(799,-138,o),
(714,-138,cs),
(648,-138,o),
(616,-105,o),
(616,0,c),
(491,107,l),
(358,0,l)
);
}
);
width = 974;
}
);
unicode = 430;
},
{
glyphname = U;
lastChange = "2023-11-10 06:07:35 +0000";
layers = (
{
anchors = (
{
name = bottom;
pos = (621,0);
},
{
name = ogonek;
pos = (1118,10);
},
{
name = top;
pos = (621,1394);
},
{
name = topright;
pos = (1222,1394);
}
);
layerId = "B61D43DE-5272-4FF4-A680-608B6BF5ED9E";
shapes = (
{
closed = 1;
nodes = (
(894,-26,o),
(1110,98,o),
(1110,498,cs),
(1110,1394,l),
(850,1394,l),
(850,470,ls),
(850,232,o),
(722,192,o),
(624,192,cs),
(530,192,o),
(392,234,o),
(392,470,cs),
(392,1394,l),
(132,1394,l),
(132,498,ls),
(132,98,o),
(354,-26,o),
(628,-26,cs)
);
}
);
width = 1242;
}
);
unicode = 85;
userData = {
KernOnName = U;
};
},
{
glyphname = Uhorn;
lastChange = "2023-10-19 00:21:47 +0000";
layers = (
{
anchors = (
{
name = bottom;
pos = (629,0);
},
{
name = top;
pos = (629,1394);
}
);
layerId = "B61D43DE-5272-4FF4-A680-608B6BF5ED9E";
shapes = (
{
closed = 1;
nodes = (
(1134,1264,o),
(1272,1362,o),
(1272,1526,cs),
(1272,1608,o),
(1268,1638,o),
(1258,1670,c),
(1050,1670,l),
(1062,1638,o),
(1066,1610,o),
(1066,1556,cs),
(1066,1442,o),
(998,1394,o),
(892,1394,c),
(1020,1264,l)
);
},
{
ref = U;
}
);
width = 1258;
}
);
unicode = 431;
},
{
color = 3;
glyphname = Uogonek;
lastChange = "2023-10-18 23:57:45 +0000";
layers = (
{
layerId = "B61D43DE-5272-4FF4-A680-608B6BF5ED9E";
shapes = (
{
closed = 1;
nodes = (
(850,232,o),
(722,192,o),
(624,192,cs),
(530,192,o),
(392,234,o),
(392,470,cs),
(392,1394,l),
(132,1394,l),
(132,498,ls),
(132,140,o),
(310,3,o),
(543,-22,c),
(434,-76,o),
(362,-171,o),
(362,-256,cs),
(362,-398,o),
(470,-480,o),
(660,-480,cs),
(730,-480,o),
(788,-468,o),
(828,-448,c),
(828,-268,l),
(780,-292,o),
(758,-298,o),
(718,-298,cs),
(658,-298,o),
(606,-284,o),
(606,-216,cs),
(606,-130,o),
(706,-54,o),
(828,0,c),
(824,2,l),
(992,58,o),
(1110,203,o),
(1110,498,cs),
(1110,1394,l),
(850,1394,l),
(850,470,ls)
);
}
);
width = 1242;
}
);
metricLeft = U;
metricRight = U;
unicode = 370;
},
{
color = 1;
glyphname = "Upsilon-latin";
lastChange = "2023-10-19 00:47:12 +0000";
layers = (
{
background = {
shapes = (
{
pos = (64,0);
ref = O;
}
);
};
layerId = "B61D43DE-5272-4FF4-A680-608B6BF5ED9E";
shapes = (
{
closed = 1;
nodes = (
(888,1394,l),
(888,1176,l),
(1016,1042,o),
(1156,898,o),
(1156,648,cs),
(1156,440,o),
(1076,191,o),
(782,191,cs),
(490,191,o),
(410,452,o),
(410,648,cs),
(410,898,o),
(550,1042,o),
(678,1176,c),
(678,1394,l),
(98,1394,l),
(98,1134,l),
(458,1164,l),
(382,1114,o),
(146,978,o),
(146,618,cs),
(146,246,o),
(406,-34,o),
(780,-34,cs),
(1152,-34,o),
(1420,240,o),
(1420,618,cs),
(1420,978,o),
(1184,1114,o),
(1108,1164,c),
(1468,1134,l),
(1468,1394,l)
);
}
);
width = 1566;
}
);
metricLeft = Omega;
metricRight = "=|";
unicode = 433;
},
{
glyphname = V;
lastChange = "2023-11-10 06:07:35 +0000";
layers = (
{
anchors = (
{
name = bottom;
pos = (549,0);
},
{
name = top;
pos = (549,1394);
}
);
layerId = "B61D43DE-5272-4FF4-A680-608B6BF5ED9E";
shapes = (
{
closed = 1;
nodes = (
(566,-7,l),
(1118,1394,l),
(844,1394,l),
(632,780,l),
(516,429,l),
(594,429,l),
(478,780,l),
(258,1394,l),
(-20,1394,l),
(534,-7,l)
);
}
);
width = 1098;
}
);
unicode = 86;
userData = {
KernOnName = V;
com.typemytype.robofont.mark = (
0.6,
1,
0.628,
1
);
};
},
{
color = 1;
glyphname = "Gamma-latin";
lastChange = "2023-10-19 00:47:12 +0000";
layers = (
{
background = {
shapes = (
{
closed = 1;
nodes = (
(568,-7,l),
(1120,1394,l),
(846,1394,l),
(634,780,l),
(518,429,l),
(596,429,l),
(480,780,l),
(260,1394,l),
(-18,1394,l),
(536,-7,l)
);
}
);
};
layerId = "B61D43DE-5272-4FF4-A680-608B6BF5ED9E";
shapes = (
{
closed = 1;
nodes = (
(649,500,l),
(1131,1394,l),
(841,1394,l),
(631,944,l),
(475,628,l),
(635,628,l),
(481,944,l),
(273,1394,l),
(-20,1394,l),
(448,500,l)
);
},
{
closed = 1;
nodes = (
(448,666,l),
(350,496,o),
(149,359,o),
(149,90,cs),
(149,-144,o),
(338,-261,o),
(557,-261,cs),
(775,-261,o),
(963,-144,o),
(963,90,cs),
(963,359,o),
(761,496,o),
(661,653,c)
);
},
{
closed = 1;
nodes = (
(407,198,o),
(486,344,o),
(555,435,c),
(625,344,o),
(705,198,o),
(705,90,cs),
(705,47,o),
(685,-66,o),
(557,-66,cs),
(429,-66,o),
(407,47,o),
(407,90,cs)
);
}
);
width = 1111;
}
);
metricLeft = V;
metricRight = "=|";
unicode = 404;
},
{
color = 1;
glyphname = Vhook;
lastChange = "2023-10-31 04:17:49 +0000";
layers = (
{
layerId = "B61D43DE-5272-4FF4-A680-608B6BF5ED9E";
shapes = (
{
closed = 1;
nodes = (
(914,-26,o),
(1130,209,o),
(1130,608,cs),
(1130,1167,ls),
(1130,1373,o),
(981,1449,o),
(806,1449,cs),
(661,1449,o),
(584,1393,o),
(553,1356,c),
(650,1142,l),
(672,1184,o),
(721,1216,o),
(765,1216,cs),
(841,1216,o),
(871,1186,o),
(871,1111,cs),
(870,580,ls),
(870,342,o),
(732,192,o),
(634,192,cs),
(530,192,o),
(392,234,o),
(392,470,cs),
(392,1394,l),
(132,1394,l),
(132,498,ls),
(132,98,o),
(354,-26,o),
(638,-26,cs)
);
}
);
width = 1262;
}
);
metricLeft = U;
metricRight = U;
unicode = 434;
},
{
glyphname = Vturned;
lastChange = "2021-12-06 03:49:59 +0000";
layers = (
{
anchors = (
{
name = bottom;
pos = (550,-266);
}
);
layerId = "B61D43DE-5272-4FF4-A680-608B6BF5ED9E";
shapes = (
{
closed = 1;
nodes = (
(532,1401,l),
(-20,0,l),
(254,0,l),
(466,614,l),
(582,965,l),
(504,965,l),
(620,614,l),
(840,0,l),
(1118,0,l),
(564,1401,l)
);
}
);
width = 1098;
}
);
unicode = 581;
},
{
glyphname = W;
lastChange = "2023-11-10 06:07:35 +0000";
layers = (
{
anchors = (
{
name = bottom;
pos = (801,0);
},
{
name = top;
pos = (801,1394);
}
);
layerId = "B61D43DE-5272-4FF4-A680-608B6BF5ED9E";
shapes = (
{
closed = 1;
nodes = (
(1160,-3,l),
(1622,1394,l),
(1348,1394,l),
(1068,409,l),
(1184,409,l),
(824,1394,l),
(790,1394,l),
(450,447,l),
(548,423,l),
(256,1394,l),
(-20,1394,l),
(446,-1,l),
(480,-1,l),
(836,883,l),
(766,883,l),
(1128,-3,l)
);
}
);
width = 1602;
}
);
unicode = 87;
userData = {
KernOnName = W;
com.typemytype.robofont.guides = (
{
angle = 0;
isGlobal = 0;
magnetic = 5;
x = 0;
y = 615;
}
);
};
},
{
color = 1;
glyphname = Whook;
lastChange = "2023-10-18 23:57:45 +0000";
layers = (
{
layerId = "B61D43DE-5272-4FF4-A680-608B6BF5ED9E";
shapes = (
{
closed = 1;
nodes = (
(1406,1417,o),
(1324,1311,o),
(1266,1105,cs),
(1119,588,l),
(824,1394,l),
(790,1394,l),
(499,585,l),
(256,1394,l),
(-20,1394,l),
(446,-1,l),
(480,-1,l),
(801,797,l),
(1128,-3,l),
(1160,-3,l),
(1522,1090,l),
(1543,1145,o),
(1579,1164,o),
(1637,1164,cs),
(1711,1164,o),
(1775,1090,o),
(1782,1060,c),
(1894,1264,l),
(1863,1331,o),
(1786,1417,o),
(1591,1417,cs)
);
}
);
width = 1884;
}
);
metricLeft = W;
unicode = 11378;
},
{
glyphname = X;
lastChange = "2023-11-10 06:07:35 +0000";
layers = (
{
anchors = (
{
name = bottom;
pos = (567,0);
},
{
name = top;
pos = (567,1394);
}
);
layerId = "B61D43DE-5272-4FF4-A680-608B6BF5ED9E";
shapes = (
{
closed = 1;
nodes = (
(318,0,l),
(582,596,l),
(530,596,l),
(806,0,l),
(1114,0,l),
(722,726,l),
(724,662,l),
(1104,1394,l),
(810,1394,l),
(544,798,l),
(602,798,l),
(326,1394,l),
(26,1394,l),
(410,674,l),
(408,760,l),
(20,0,l)
);
}
);
width = 1134;
}
);
unicode = 88;
userData = {
KernOnName = X;
com.typemytype.robofont.mark = (
0.6,
1,
0.628,
1
);
};
},
{
glyphname = Y;
lastChange = "2023-11-10 06:07:35 +0000";
layers = (
{
anchors = (
{
name = bottom;
pos = (538,0);
},
{
name = top;
pos = (538,1394);
},
{
name = topleft;
pos = (20,1394);
}
);
layerId = "B61D43DE-5272-4FF4-A680-608B6BF5ED9E";
shapes = (
{
closed = 1;
nodes = (
(666,0,l),
(666,664,l),
(410,664,l),
(410,0,l)
);
},
{
closed = 1;
nodes = (
(1106,1394,l),
(826,1394,l),
(508,708,l),
(584,708,l),
(252,1394,l),
(-30,1394,l),
(544,310,l)
);
}
);
width = 1076;
}
);
unicode = 89;
userData = {
KernOnName = Y;
};
},
{
color = 1;
glyphname = Yhook;
lastChange = "2023-11-10 06:07:35 +0000";
layers = (
{
layerId = "B61D43DE-5272-4FF4-A680-608B6BF5ED9E";
shapes = (
{
closed = 1;
nodes = (
(666,0,l),
(666,553,l),
(952,1122,ls),
(992,1202,o),
(1033,1215,o),
(1091,1215,cs),
(1165,1215,o),
(1229,1142,o),
(1236,1112,c),
(1348,1306,l),
(1317,1373,o),
(1228,1449,o),
(1065,1449,cs),
(880,1449,o),
(786,1342,o),
(696,1137,cs),
(544,790,l),
(252,1394,l),
(-30,1394,l),
(410,563,l),
(410,0,l)
);
}
);
width = 1358;
}
);
metricLeft = Y;
unicode = 435;
userData = {
KernOnName = Yhook;
};
},
{
glyphname = Z;
lastChange = "2023-11-10 06:07:35 +0000";
layers = (
{
anchors = (
{
name = bottom;
pos = (524,0);
},
{
name = center;
pos = (532,701);
},
{
name = top;
pos = (524,1394);
}
);
layerId = "B61D43DE-5272-4FF4-A680-608B6BF5ED9E";
shapes = (
{
closed = 1;
nodes = (
(966,0,l),
(966,216,l),
(304,216,l),
(384,88,l),
(992,1394,l),
(126,1394,l),
(126,1178,l),
(676,1178,l),
(666,1286,l),
(60,0,l)
);
}
);
width = 1048;
}
);
unicode = 90;
userData = {
KernOnName = Z;
};
},
{
color = 1;
glyphname = Saltillo;
lastChange = "2021-12-06 03:53:06 +0000";
layers = (
{
layerId = "B61D43DE-5272-4FF4-A680-608B6BF5ED9E";
shapes = (
{
closed = 1;
nodes = (
(422,696,l),
(422,1394,l),
(162,1394,l),
(162,696,l)
);
}
);
width = 584;
}
);
metricLeft = I;
metricRight = "=|";
unicode = 42891;
},
{
color = 9;
glyphname = Eng.loclNSM;
lastChange = "2023-10-31 03:40:43 +0000";
layers = (
{
layerId = "B61D43DE-5272-4FF4-A680-608B6BF5ED9E";
shapes = (
{
closed = 1;
nodes = (
(918,559,l),
(848,650,l),
(190,1418,l),
(168,1418,l),
(168,0,l),
(414,0,l),
(414,620,l),
(404,814,l),
(466,734,l),
(918,218,l),
(910,74,l),
(910,-78,ls),
(910,-260,o),
(824,-290,o),
(734,-290,cs),
(678,-290,o),
(594,-262,o),
(538,-228,c),
(462,-446,l),
(524,-482,o),
(630,-510,o),
(778,-510,cs),
(976,-510,o),
(1154,-368,o),
(1154,-28,cs),
(1154,1394,l),
(908,1394,l),
(908,750,l)
);
}
);
width = 1322;
}
);
},
{
color = 3;
glyphname = Ismall;
lastChange = "2023-11-10 04:36:36 +0000";
layers = (
{
layerId = "B61D43DE-5272-4FF4-A680-608B6BF5ED9E";
shapes = (
{
closed = 1;
nodes = (
(902,0,l),
(902,226,l),
(650,226,l),
(650,770,l),
(902,770,l),
(902,996,l),
(140,996,l),
(140,770,l),
(392,770,l),
(392,226,l),
(140,226,l),
(140,0,l)
);
}
);
width = 1042;
}
);
unicode = 618;
},
{
glyphname = Rsmall;
lastChange = "2023-11-10 04:31:43 +0000";
layers = (
{
anchors = (
{
name = bottom;
pos = (544,0);
},
{
name = top;
pos = (544,996);
}
);
layerId = "B61D43DE-5272-4FF4-A680-608B6BF5ED9E";
shapes = (
{
closed = 1;
nodes = (
(675,344,l),
(927,344,o),
(987,546,o),
(987,675,cs),
(987,912,o),
(847,996,o),
(531,996,cs),
(143,996,l),
(143,0,l),
(397,0,l),
(397,338,l),
(675,0,l),
(985,0,l)
);
},
{
closed = 1;
nodes = (
(397,808,l),
(497,808,ls),
(657,808,o),
(731,785,o),
(731,658,cs),
(731,549,o),
(679,508,o),
(503,508,cs),
(397,508,l)
);
}
);
width = 1087;
}
);
unicode = 640;
},
{
glyphname = a;
lastChange = "2023-11-10 06:07:35 +0000";
layers = (
{
anchors = (
{
name = bottom;
pos = (497,0);
},
{
name = ogonek;
pos = (895,10);
},
{
name = top;
pos = (497,996);
}
);
layerId = "B61D43DE-5272-4FF4-A680-608B6BF5ED9E";
shapes = (
{
closed = 1;
nodes = (
(476,-28,o),
(572,28,o),
(642,142,c),
(660,0,l),
(874,0,l),
(874,654,ls),
(874,876,o),
(792,1020,o),
(496,1020,cs),
(332,1020,o),
(192,964,o),
(112,910,c),
(192,718,l),
(238,770,o),
(350,810,o),
(454,810,cs),
(596,810,o),
(632,736,o),
(632,638,c),
(632,592,l),
(176,592,o),
(76,394,o),
(76,272,cs),
(76,108,o),
(164,-28,o),
(348,-28,cs)
);
},
{
closed = 1;
nodes = (
(366,164,o),
(324,200,o),
(324,296,cs),
(324,406,o),
(474,438,o),
(584,438,cs),
(604,438,o),
(618,438,o),
(632,436,c),
(632,294,l),
(592,218,o),
(514,164,o),
(454,164,cs)
);
}
);
width = 994;
}
);
unicode = 97;
userData = {
KernOnName = a;
com.typemytype.robofont.mark = (
0.6,
1,
0.628,
1
);
};
},
{
glyphname = "alpha-latin";
lastChange = "2021-12-06 07:25:43 +0000";
layers = (
{
layerId = "B61D43DE-5272-4FF4-A680-608B6BF5ED9E";
shapes = (
{
closed = 1;
nodes = (
(608,-28,o),
(696,54,o),
(736,204,c),
(736,0,l),
(968,0,l),
(968,996,l),
(736,996,l),
(736,824,l),
(708,950,o),
(610,1020,o),
(472,1020,cs),
(212,1020,o),
(86,804,o),
(86,496,cs),
(86,180,o),
(232,-28,o),
(476,-28,cs)
);
},
{
closed = 1;
nodes = (
(424,170,o),
(348,276,o),
(348,496,cs),
(348,742,o),
(446,818,o),
(540,818,cs),
(662,818,o),
(720,700,o),
(720,492,cs),
(720,264,o),
(630,170,o),
(534,170,cs)
);
}
);
width = 1116;
}
);
metricLeft = d;
metricRight = "=|n";
unicode = 593;
},
{
color = 3;
glyphname = aogonek;
lastChange = "2019-10-28 18:28:25 +0000";
layers = (
{
guides = (
{
angle = 270;
pos = (438,159);
}
);
layerId = "B61D43DE-5272-4FF4-A680-608B6BF5ED9E";
shapes = (
{
closed = 1;
nodes = (
(776,-480,o),
(834,-468,o),
(874,-448,c),
(874,-268,l),
(826,-292,o),
(804,-298,o),
(764,-298,cs),
(704,-298,o),
(652,-284,o),
(652,-216,cs),
(652,-130,o),
(752,-54,o),
(874,0,c),
(744,66,l),
(660,0,l),
(522,-46,o),
(408,-158,o),
(408,-256,cs),
(408,-398,o),
(516,-480,o),
(706,-480,cs)
);
},
{
ref = a;
}
);
width = 994;
}
);
metricLeft = a;
metricRight = a;
unicode = 261;
},
{
glyphname = aringacute;
lastChange = "2023-10-18 23:57:46 +0000";
layers = (
{
layerId = "B61D43DE-5272-4FF4-A680-608B6BF5ED9E";
shapes = (
{
closed = 1;
nodes = (
(590,1646,l),
(780,1954,l),
(546,1954,l),
(410,1646,l)
);
},
{
closed = 1;
nodes = (
(640,1168,o),
(776,1284,o),
(776,1446,cs),
(776,1610,o),
(640,1724,o),
(484,1724,cs),
(328,1724,o),
(194,1612,o),
(194,1446,cs),
(194,1284,o),
(328,1168,o),
(484,1168,cs)
);
},
{
closed = 1;
nodes = (
(412,1304,o),
(350,1350,o),
(350,1448,cs),
(350,1552,o),
(412,1590,o),
(484,1590,cs),
(556,1590,o),
(620,1552,o),
(620,1448,cs),
(620,1350,o),
(556,1304,o),
(484,1304,cs)
);
},
{
ref = a;
}
);
width = 980;
}
);
unicode = 507;
},
{
glyphname = astroke;
lastChange = "2023-10-31 04:05:44 +0000";
layers = (
{
anchors = (
{
name = bottom;
pos = (497,0);
},
{
name = ogonek;
pos = (895,10);
},
{
name = top;
pos = (497,996);
}
);
layerId = "B61D43DE-5272-4FF4-A680-608B6BF5ED9E";
shapes = (
{
closed = 1;
nodes = (
(476,-28,o),
(583,28,o),
(653,142,c),
(671,0,l),
(885,0,l),
(885,654,ls),
(885,876,o),
(792,1020,o),
(496,1020,cs),
(332,1020,o),
(192,964,o),
(112,910,c),
(192,718,l),
(238,770,o),
(350,810,o),
(454,810,cs),
(596,810,o),
(643,766,o),
(643,668,c),
(643,592,l),
(187,592,o),
(76,394,o),
(76,272,cs),
(76,108,o),
(164,-28,o),
(348,-28,cs)
);
},
{
closed = 1;
nodes = (
(366,164,o),
(324,200,o),
(324,296,cs),
(324,406,o),
(474,438,o),
(584,438,cs),
(604,438,o),
(618,438,o),
(632,436,c),
(643,294,l),
(603,218,o),
(514,164,o),
(454,164,cs)
);
},
{
closed = 1;
nodes = (
(451,-186,l),
(738,1232,l),
(610,1232,l),
(324,-186,l)
);
}
);
width = 994;
}
);
unicode = 11365;
},
{
glyphname = ae;
lastChange = "2023-10-19 00:21:47 +0000";
layers = (
{
anchors = (
{
name = bottom;
pos = (768,0);
},
{
name = top;
pos = (768,996);
}
);
layerId = "B61D43DE-5272-4FF4-A680-608B6BF5ED9E";
shapes = (
{
closed = 1;
nodes = (
(1448,826,o),
(1344,1020,o),
(1046,1020,cs),
(922,1020,o),
(830,978,o),
(764,908,c),
(716,978,o),
(632,1020,o),
(490,1020,cs),
(332,1020,o),
(192,964,o),
(112,910,c),
(192,718,l),
(238,770,o),
(350,810,o),
(448,810,cs),
(580,810,o),
(610,736,o),
(610,638,c),
(612,592,l),
(162,592,o),
(76,394,o),
(76,264,cs),
(76,100,o),
(164,-28,o),
(348,-28,cs),
(454,-28,o),
(610,10,o),
(704,146,c),
(764,40,o),
(870,-28,o),
(1050,-28,cs),
(1246,-28,o),
(1356,30,o),
(1410,66,c),
(1330,256,l),
(1284,204,o),
(1174,162,o),
(1092,162,cs),
(930,162,o),
(852,258,o),
(844,416,c),
(1446,416,l),
(1448,446,o),
(1448,482,o),
(1448,510,cs)
);
},
{
closed = 1;
nodes = (
(850,714,o),
(916,830,o),
(1052,830,cs),
(1134,830,o),
(1196,784,o),
(1196,574,c),
(842,572,l)
);
},
{
closed = 1;
nodes = (
(572,218,o),
(508,164,o),
(448,164,cs),
(366,164,o),
(318,200,o),
(318,296,cs),
(318,406,o),
(458,438,o),
(568,438,cs),
(584,438,o),
(600,438,o),
(614,436,c),
(612,294,l)
);
}
);
width = 1536;
}
);
metricLeft = a;
metricRight = e;
unicode = 230;
userData = {
com.typemytype.robofont.mark = (
0.6,
1,
0.628,
1
);
};
},
{
color = 3;
glyphname = b;
lastChange = "2023-11-10 06:07:35 +0000";
layers = (
{
anchors = (
{
name = bottom;
pos = (644,0);
}
);
background = {
shapes = (
{
closed = 1;
nodes = (
(398,-436,l),
(398,10,l),
(374,198,l),
(406,80,o),
(494,-28,o),
(642,-28,cs),
(880,-28,o),
(1042,164,o),
(1042,512,cs),
(1042,822,o),
(926,1022,o),
(662,1022,cs),
(526,1022,o),
(398,938,o),
(374,824,c),
(394,964,l),
(394,996,l),
(156,996,l),
(156,-436,l)
);
},
{
closed = 1;
nodes = (
(468,170,o),
(398,298,o),
(398,486,cs),
(398,674,o),
(464,818,o),
(588,818,cs),
(690,818,o),
(780,726,o),
(780,502,cs),
(780,260,o),
(680,170,o),
(584,170,cs)
);
}
);
};
layerId = "B61D43DE-5272-4FF4-A680-608B6BF5ED9E";
shapes = (
{
closed = 1;
nodes = (
(864,-28,o),
(1042,144,o),
(1042,502,cs),
(1042,844,o),
(914,1022,o),
(666,1022,cs),
(552,1022,o),
(408,960,o),
(376,824,c),
(396,996,l),
(396,1520,l),
(156,1520,l),
(156,0,l),
(376,0,l),
(376,198,l),
(406,78,o),
(500,-28,o),
(644,-28,cs)
);
},
{
closed = 1;
nodes = (
(470,170,o),
(400,298,o),
(400,486,cs),
(400,674,o),
(466,818,o),
(590,818,cs),
(692,818,o),
(780,726,o),
(780,502,cs),
(780,260,o),
(684,170,o),
(586,170,cs)
);
}
);
width = 1128;
}
);
metricLeft = h;
unicode = 98;
userData = {
KernOnName = b;
com.typemytype.robofont.mark = (
0.6,
1,
0.628,
1
);
};
},
{
glyphname = "beta-latin";
lastChange = "2023-11-10 04:37:36 +0000";
layers = (
{
layerId = "B61D43DE-5272-4FF4-A680-608B6BF5ED9E";
shapes = (
{
closed = 1;
nodes = (
(1002,-10,o),
(1108,232,o),
(1108,474,cs),
(1108,730,o),
(946,884,o),
(746,884,c),
(746,866,l),
(900,866,o),
(996,1026,o),
(996,1184,cs),
(996,1388,o),
(896,1552,o),
(600,1552,cs),
(410,1552,o),
(146,1450,o),
(146,1088,cs),
(146,-276,l),
(398,-276,l),
(398,1108,ls),
(398,1202,o),
(446,1356,o),
(588,1356,cs),
(668,1356,o),
(748,1326,o),
(748,1168,cs),
(748,962,o),
(636,928,o),
(552,928,c),
(552,742,l),
(746,742,o),
(836,646,o),
(836,450,cs),
(836,288,o),
(788,194,o),
(664,194,cs),
(530,194,o),
(480,237,o),
(368,325,c),
(350,117,l),
(435,14,o),
(553,-10,o),
(696,-10,cs)
);
}
);
width = 1188;
}
);
unicode = 42933;
},
{
color = 1;
glyphname = bhook;
lastChange = "2023-10-18 23:57:46 +0000";
layers = (
{
layerId = "B61D43DE-5272-4FF4-A680-608B6BF5ED9E";
shapes = (
{
closed = 1;
nodes = (
(864,-28,o),
(1042,144,o),
(1042,502,cs),
(1042,844,o),
(914,1022,o),
(666,1022,cs),
(552,1022,o),
(408,960,o),
(376,824,c),
(396,996,l),
(396,1140,l),
(156,1143,l),
(156,0,l),
(376,0,l),
(376,198,l),
(406,78,o),
(500,-28,o),
(644,-28,cs)
);
},
{
closed = 1;
nodes = (
(470,170,o),
(400,298,o),
(400,486,cs),
(400,674,o),
(466,818,o),
(590,818,cs),
(692,818,o),
(780,726,o),
(780,502,cs),
(780,260,o),
(684,170,o),
(586,170,cs)
);
},
{
closed = 1;
nodes = (
(289,1068,l),
(396,1140,l),
(396,1272,o),
(466,1340,o),
(575,1340,cs),
(685,1340,o),
(730,1284,o),
(782,1244,c),
(831,1456,l),
(795,1492,o),
(704,1552,o),
(551,1552,cs),
(296,1552,o),
(156,1388,o),
(156,1143,c)
);
}
);
width = 1128;
}
);
unicode = 595;
},
{
color = 3;
glyphname = c;
lastChange = "2023-11-10 06:09:29 +0000";
layers = (
{
anchors = (
{
name = bottom;
pos = (532,0);
},
{
name = top;
pos = (560,996);
}
);
background = {
shapes = (
{
closed = 1;
nodes = (
(838,-20,o),
(1004,184,o),
(1004,500,cs),
(1004,816,o),
(846,1020,o),
(552,1020,cs),
(258,1020,o),
(84,828,o),
(84,500,cs),
(84,174,o),
(250,-20,o),
(544,-20,cs)
);
},
{
closed = 1;
nodes = (
(422,180,o),
(350,270,o),
(350,500,cs),
(350,730,o),
(422,822,o),
(548,822,cs),
(672,822,o),
(738,712,o),
(738,500,cs),
(738,288,o),
(672,180,o),
(548,180,cs)
);
}
);
};
layerId = "B61D43DE-5272-4FF4-A680-608B6BF5ED9E";
shapes = (
{
closed = 1;
nodes = (
(702,-24,o),
(816,48,o),
(854,88,c),
(778,266,l),
(740,224,o),
(664,180,o),
(568,180,cs),
(422,180,o),
(350,274,o),
(350,496,cs),
(350,704,o),
(420,812,o),
(568,812,cs),
(636,812,o),
(724,778,o),
(764,718,c),
(846,930,l),
(758,1002,o),
(668,1020,o),
(554,1020,cs),
(246,1020,o),
(86,770,o),
(86,494,cs),
(86,216,o),
(222,-24,o),
(540,-24,cs)
);
}
);
width = 902;
}
);
unicode = 99;
userData = {
KernOnName = c;
};
},
{
glyphname = "chi-latin";
lastChange = "2023-11-10 01:41:26 +0000";
layers = (
{
background = {
shapes = (
{
closed = 1;
nodes = (
(300,0,l),
(424,268,l),
(460,358,l),
(504,268,l),
(648,0,l),
(930,0,l),
(714,380,l),
(642,500,l),
(714,626,l),
(914,996,l),
(648,996,l),
(530,744,l),
(478,628,l),
(428,744,l),
(308,996,l),
(24,996,l),
(228,618,l),
(304,490,l),
(230,368,l),
(24,0,l)
);
}
);
};
layerId = "B61D43DE-5272-4FF4-A680-608B6BF5ED9E";
shapes = (
{
closed = 1;
nodes = (
(303,-367,l),
(511,147,l),
(534,93,l),
(619,-103,ls),
(707,-303,o),
(798,-383,o),
(925,-383,cs),
(998,-383,o),
(1028,-370,o),
(1071,-339,c),
(1071,-121,l),
(1042,-159,o),
(1002,-167,o),
(984,-167,cs),
(914,-167,o),
(888,-140,o),
(834,-17,cs),
(679,331,l),
(1022,1027,l),
(742,1027,l),
(545,535,l),
(434,825,ls),
(381,963,o),
(287,1039,o),
(160,1039,cs),
(105,1039,o),
(57,1026,o),
(14,995,c),
(14,777,l),
(43,806,o),
(82,814,o),
(101,814,cs),
(171,814,o),
(195,787,o),
(243,673,cs),
(377,356,l),
(20,-367,l)
);
}
);
width = 1085;
}
);
unicode = 43859;
},
{
color = 1;
glyphname = chook;
lastChange = "2023-10-18 23:57:46 +0000";
layers = (
{
layerId = "B61D43DE-5272-4FF4-A680-608B6BF5ED9E";
shapes = (
{
closed = 1;
nodes = (
(718,906,l),
(876,930,l),
(797,1198,o),
(863,1340,o),
(967,1340,cs),
(1039,1340,o),
(1091,1314,o),
(1113,1270,c),
(1162,1482,l),
(1126,1518,o),
(1039,1552,o),
(947,1552,cs),
(696,1552,o),
(580,1374,o),
(646,971,c)
);
},
{
closed = 1;
nodes = (
(702,-24,o),
(816,48,o),
(854,88,c),
(778,266,l),
(740,224,o),
(664,180,o),
(568,180,cs),
(422,180,o),
(350,274,o),
(350,496,cs),
(350,704,o),
(420,812,o),
(568,812,cs),
(636,812,o),
(724,778,o),
(764,718,c),
(876,930,l),
(768,1002,o),
(668,1020,o),
(554,1020,cs),
(246,1020,o),
(86,770,o),
(86,494,cs),
(86,216,o),
(222,-24,o),
(540,-24,cs)
);
}
);
width = 1154;
}
);
metricLeft = c;
metricRight = f;
unicode = 392;
},
{
glyphname = cstroke;
lastChange = "2023-10-31 04:17:19 +0000";
layers = (
{
anchors = (
{
name = bottom;
pos = (532,0);
},
{
name = top;
pos = (560,996);
}
);
layerId = "B61D43DE-5272-4FF4-A680-608B6BF5ED9E";
shapes = (
{
closed = 1;
nodes = (
(702,-24,o),
(816,48,o),
(854,88,c),
(778,266,l),
(740,224,o),
(664,180,o),
(568,180,cs),
(422,180,o),
(350,274,o),
(350,496,cs),
(350,704,o),
(420,812,o),
(568,812,cs),
(636,812,o),
(724,778,o),
(764,718,c),
(846,930,l),
(758,1002,o),
(668,1020,o),
(554,1020,cs),
(246,1020,o),
(86,770,o),
(86,494,cs),
(86,216,o),
(222,-24,o),
(540,-24,cs)
);
},
{
closed = 1;
nodes = (
(451,-186,l),
(738,1232,l),
(610,1232,l),
(324,-186,l)
);
}
);
width = 902;
}
);
unicode = 572;
},
{
glyphname = d;
lastChange = "2023-11-10 06:07:35 +0000";
layers = (
{
anchors = (
{
name = bottom;
pos = (552,0);
},
{
name = car;
pos = (1176,1660);
},
{
name = center;
pos = (562,498);
},
{
name = top;
pos = (847,1520);
},
{
name = topright;
pos = (1104,1954);
}
);
layerId = "B61D43DE-5272-4FF4-A680-608B6BF5ED9E";
shapes = (
{
closed = 1;
nodes = (
(622,-28,o),
(714,66,o),
(750,204,c),
(750,0,l),
(968,0,l),
(968,1520,l),
(732,1520,l),
(732,970,l),
(750,824,l),
(722,950,o),
(622,1020,o),
(486,1020,cs),
(220,1020,o),
(86,824,o),
(86,496,cs),
(86,180,o),
(240,-28,o),
(482,-28,cs)
);
},
{
closed = 1;
nodes = (
(430,170,o),
(344,276,o),
(344,496,cs),
(344,742,o),
(452,818,o),
(546,818,cs),
(668,818,o),
(726,700,o),
(726,492,cs),
(726,264,o),
(636,170,o),
(540,170,cs)
);
}
);
width = 1124;
}
);
unicode = 100;
userData = {
KernOnName = d;
com.typemytype.robofont.mark = (
0.6,
1,
0.628,
1
);
};
},
{
glyphname = dhook;
lastChange = "2023-11-10 06:07:35 +0000";
layers = (
{
anchors = (
{
name = bottom;
pos = (552,0);
},
{
name = car;
pos = (1176,1660);
},
{
name = top;
pos = (562,996);
}
);
layerId = "B61D43DE-5272-4FF4-A680-608B6BF5ED9E";
shapes = (
{
closed = 1;
nodes = (
(622,-28,o),
(714,66,o),
(750,204,c),
(750,0,l),
(968,0,l),
(968,1232,l),
(732,1232,l),
(732,970,l),
(750,824,l),
(722,950,o),
(622,1020,o),
(486,1020,cs),
(220,1020,o),
(86,824,o),
(86,496,cs),
(86,180,o),
(240,-28,o),
(482,-28,cs)
);
},
{
closed = 1;
nodes = (
(430,170,o),
(344,276,o),
(344,496,cs),
(344,742,o),
(452,818,o),
(546,818,cs),
(668,818,o),
(726,700,o),
(726,492,cs),
(726,264,o),
(636,170,o),
(540,170,cs)
);
},
{
closed = 1;
nodes = (
(865,1157,l),
(968,1232,l),
(968,1364,o),
(1017,1402,o),
(1088,1402,cs),
(1173,1402,o),
(1201,1376,o),
(1241,1348,c),
(1293,1539,l),
(1269,1575,o),
(1185,1611,o),
(1084,1611,cs),
(809,1611,o),
(730,1451,o),
(732,1232,c)
);
}
);
width = 1124;
}
);
unicode = 599;
userData = {
KernOnName = dhook;
};
},
{
color = 4;
glyphname = dtail;
lastChange = "2023-11-10 06:07:35 +0000";
layers = (
{
anchors = (
{
name = bottom;
pos = (552,0);
},
{
name = car;
pos = (1176,1660);
}
);
layerId = "B61D43DE-5272-4FF4-A680-608B6BF5ED9E";
shapes = (
{
closed = 1;
nodes = (
(622,-28,o),
(714,66,o),
(750,204,c),
(750,20,l),
(968,0,l),
(968,1520,l),
(732,1520,l),
(732,970,l),
(750,824,l),
(722,950,o),
(622,1020,o),
(486,1020,cs),
(220,1020,o),
(86,824,o),
(86,496,cs),
(86,180,o),
(240,-28,o),
(482,-28,cs)
);
},
{
closed = 1;
nodes = (
(430,170,o),
(344,276,o),
(344,496,cs),
(344,742,o),
(452,818,o),
(546,818,cs),
(668,818,o),
(726,700,o),
(726,492,cs),
(726,264,o),
(636,170,o),
(540,170,cs)
);
},
{
closed = 1;
nodes = (
(748,-219,o),
(827,-347,o),
(1072,-347,cs),
(1173,-347,o),
(1257,-311,o),
(1281,-275,c),
(1229,-84,l),
(1189,-112,o),
(1161,-138,o),
(1076,-138,cs),
(995,-138,o),
(968,-105,o),
(968,0,c),
(883,107,l),
(750,20,l)
);
}
);
width = 1301;
}
);
metricRight = "=|esh";
unicode = 598;
userData = {
KernOnName = dtail;
};
},
{
glyphname = eth;
lastChange = "2023-10-19 00:21:47 +0000";
layers = (
{
anchors = (
{
name = bottom;
pos = (540,0);
},
{
name = top;
pos = (540,1954);
}
);
background = {
shapes = (
{
closed = 1;
nodes = (
(758,-20,o),
(986,138,o),
(986,562,cs),
(986,894,o),
(870,1220,o),
(594,1386,c),
(512,1430,l),
(430,1468,o),
(334,1502,o),
(274,1506,c),
(212,1336,l),
(256,1334,o),
(340,1302,o),
(412,1262,cs),
(482,1220,l),
(600,1130,o),
(722,960,o),
(738,780,c),
(720,854,o),
(646,950,o),
(502,950,cs),
(250,950,o),
(92,748,o),
(92,460,cs),
(92,182,o),
(278,-20,o),
(524,-20,cs)
);
},
{
closed = 1;
nodes = (
(416,164,o),
(340,286,o),
(340,472,cs),
(340,638,o),
(414,774,o),
(540,774,cs),
(654,774,o),
(714,694,o),
(732,610,cs),
(738,572,o),
(738,524,o),
(738,476,cs),
(738,300,o),
(676,164,o),
(540,164,cs)
);
},
{
closed = 1;
nodes = (
(564,1252,l),
(622,1314,l),
(748,1480,l),
(602,1578,l),
(474,1418,l),
(412,1332,l),
(280,1162,l),
(426,1068,l)
);
}
);
};
layerId = "B61D43DE-5272-4FF4-A680-608B6BF5ED9E";
shapes = (
{
closed = 1;
nodes = (
(758,-20,o),
(986,138,o),
(986,562,cs),
(986,894,o),
(870,1220,o),
(594,1386,c),
(512,1430,l),
(430,1468,o),
(334,1502,o),
(274,1506,c),
(212,1336,l),
(256,1334,o),
(340,1302,o),
(412,1262,cs),
(482,1220,l),
(600,1130,o),
(722,960,o),
(738,780,c),
(720,854,o),
(646,950,o),
(502,950,cs),
(250,950,o),
(92,748,o),
(92,460,cs),
(92,182,o),
(278,-20,o),
(524,-20,cs)
);
},
{
closed = 1;
nodes = (
(416,164,o),
(340,286,o),
(340,472,cs),
(340,638,o),
(414,774,o),
(540,774,cs),
(612,774,o),
(668,736,o),
(698,694,cs),
(728,652,o),
(738,600,o),
(738,476,cs),
(738,300,o),
(676,164,o),
(540,164,cs)
);
},
{
closed = 1;
nodes = (
(564,1252,l),
(622,1314,l),
(748,1480,l),
(602,1578,l),
(474,1418,l),
(412,1332,l),
(280,1162,l),
(426,1068,l)
);
}
);
width = 1080;
}
);
unicode = 240;
userData = {
com.typemytype.robofont.mark = (
0.6,
1,
0.628,
1
);
};
},
{
glyphname = e;
lastChange = "2023-11-10 06:07:35 +0000";
layers = (
{
anchors = (
{
name = bottom;
pos = (548,0);
},
{
name = ogonek;
pos = (833,100);
},
{
name = top;
pos = (554,996);
}
);
layerId = "B61D43DE-5272-4FF4-A680-608B6BF5ED9E";
shapes = (
{
closed = 1;
nodes = (
(748,-26,o),
(858,32,o),
(912,68,c),
(832,258,l),
(786,206,o),
(676,164,o),
(594,164,cs),
(432,164,o),
(354,258,o),
(346,416,c),
(946,416,l),
(948,446,o),
(950,496,o),
(950,524,cs),
(950,840,o),
(846,1020,o),
(548,1020,cs),
(248,1020,o),
(84,776,o),
(84,486,cs),
(84,210,o),
(216,-26,o),
(552,-26,cs)
);
},
{
closed = 1;
nodes = (
(352,714,o),
(418,830,o),
(554,830,cs),
(636,830,o),
(696,782,o),
(696,572,c),
(344,572,l)
);
}
);
width = 1038;
}
);
metricLeft = o;
unicode = 101;
userData = {
KernOnName = e;
com.typemytype.robofont.guides = (
{
angle = 0;
isGlobal = 0;
magnetic = 5;
x = 0;
y = 869;
}
);
};
},
{
color = 4;
glyphname = eogonek;
lastChange = "2023-10-18 20:04:12 +0000";
layers = (
{
background = {
shapes = (
{
closed = 1;
nodes = (
(648,-480,o),
(706,-468,o),
(746,-448,c),
(746,-268,l),
(698,-292,o),
(676,-298,o),
(636,-298,cs),
(576,-298,o),
(524,-284,o),
(524,-216,cs),
(524,-130,o),
(624,-54,o),
(746,0,c),
(616,66,l),
(514,0,l),
(376,-46,o),
(280,-158,o),
(280,-256,cs),
(280,-398,o),
(388,-480,o),
(578,-480,cs)
);
},
{
closed = 1;
nodes = (
(748,-26,o),
(858,32,o),
(912,68,c),
(832,258,l),
(786,206,o),
(676,164,o),
(594,164,cs),
(432,164,o),
(354,258,o),
(346,416,c),
(946,416,l),
(948,446,o),
(950,496,o),
(950,524,cs),
(950,840,o),
(846,1020,o),
(548,1020,cs),
(248,1020,o),
(84,776,o),
(84,486,cs),
(84,210,o),
(216,-26,o),
(552,-26,cs)
);
},
{
closed = 1;
nodes = (
(352,714,o),
(418,830,o),
(554,830,cs),
(636,830,o),
(696,782,o),
(696,572,c),
(344,572,l)
);
}
);
};
layerId = "B61D43DE-5272-4FF4-A680-608B6BF5ED9E";
shapes = (
{
closed = 1;
nodes = (
(950,840,o),
(846,1020,o),
(548,1020,cs),
(248,1020,o),
(84,776,o),
(84,486,cs),
(84,235,o),
(193,18,o),
(464,-20,c),
(354,-74,o),
(280,-170,o),
(280,-256,cs),
(280,-398,o),
(388,-480,o),
(578,-480,cs),
(648,-480,o),
(706,-468,o),
(746,-448,c),
(746,-268,l),
(698,-292,o),
(676,-298,o),
(636,-298,cs),
(576,-298,o),
(524,-284,o),
(524,-216,cs),
(524,-134,o),
(615,-61,o),
(729,-8,c),
(819,12,o),
(877,45,o),
(912,68,c),
(832,258,l),
(786,206,o),
(676,164,o),
(594,164,cs),
(432,164,o),
(354,258,o),
(346,416,c),
(946,416,l),
(948,446,o),
(950,496,o),
(950,524,cs)
);
},
{
closed = 1;
nodes = (
(352,714,o),
(418,830,o),
(554,830,cs),
(636,830,o),
(696,782,o),
(696,572,c),
(344,572,l)
);
}
);
width = 1038;
}
);
metricLeft = e;
metricRight = e;
unicode = 281;
},
{
glyphname = eopen;
lastChange = "2022-05-10 16:28:28 +0000";
layers = (
{
background = {
shapes = (
{
closed = 1;
nodes = (
(238,1018,o),
(60,908,o),
(60,720,cs),
(60,604,o),
(162,492,o),
(302,492,c),
(182,466,o),
(92,338,o),
(92,232,cs),
(92,72,o),
(238,-20,o),
(462,-20,cs),
(600,-20,o),
(716,24,o),
(780,74,c),
(716,242,l),
(654,186,o),
(574,170,o),
(492,170,cs),
(410,170,o),
(322,200,o),
(322,274,cs),
(322,340,o),
(386,404,o),
(520,404,cs),
(608,404,l),
(608,582,l),
(530,582,ls),
(402,582,o),
(284,602,o),
(284,702,cs),
(284,770,o),
(346,832,o),
(492,832,cs),
(580,832,o),
(658,800,o),
(718,750,c),
(790,936,l),
(698,992,o),
(596,1018,o),
(472,1018,cs)
);
}
);
};
layerId = "B61D43DE-5272-4FF4-A680-608B6BF5ED9E";
shapes = (
{
closed = 1;
nodes = (
(596,-20,o),
(698,6,o),
(790,62,c),
(718,252,l),
(658,202,o),
(580,170,o),
(492,170,cs),
(346,170,o),
(284,232,o),
(284,296,cs),
(284,396,o),
(402,413,o),
(530,413,cs),
(608,413,l),
(608,591,l),
(520,591,ls),
(386,591,o),
(322,658,o),
(322,724,cs),
(322,798,o),
(410,828,o),
(492,828,cs),
(574,828,o),
(658,800,o),
(718,750,c),
(790,936,l),
(708,986,o),
(600,1019,o),
(472,1019,cs),
(238,1019,o),
(92,926,o),
(92,766,cs),
(92,660,o),
(182,532,o),
(302,506,c),
(162,506,o),
(60,394,o),
(60,278,cs),
(60,90,o),
(238,-20,o),
(472,-20,cs)
);
}
);
width = 810;
}
);
unicode = 603;
},
{
color = 1;
glyphname = esh;
lastChange = "2023-11-10 01:44:44 +0000";
layers = (
{
anchors = (
{
name = car;
pos = (833,1660);
}
);
layerId = "B61D43DE-5272-4FF4-A680-608B6BF5ED9E";
shapes = (
{
closed = 1;
nodes = (
(345,-105,o),
(306,-138,o),
(225,-138,cs),
(140,-138,o),
(112,-112,o),
(72,-84,c),
(20,-275,l),
(44,-308,o),
(128,-347,o),
(249,-347,cs),
(484,-347,o),
(581,-189,o),
(581,30,cs),
(581,1234,ls),
(581,1366,o),
(630,1402,o),
(701,1402,cs),
(786,1402,o),
(814,1376,o),
(854,1348,c),
(906,1539,l),
(882,1568,o),
(798,1611,o),
(677,1611,cs),
(442,1611,o),
(345,1453,o),
(345,1234,cs),
(345,0,ls)
);
}
);
width = 926;
}
);
unicode = 643;
},
{
glyphname = estroke;
lastChange = "2023-11-10 04:56:35 +0000";
layers = (
{
anchors = (
{
name = bottom;
pos = (519,0);
},
{
name = ogonek;
pos = (934,10);
},
{
name = top;
pos = (519,996);
}
);
layerId = "B61D43DE-5272-4FF4-A680-608B6BF5ED9E";
shapes = (
{
closed = 1;
nodes = (
(748,-26,o),
(858,32,o),
(912,68,c),
(832,258,l),
(786,206,o),
(676,164,o),
(594,164,cs),
(432,164,o),
(354,258,o),
(346,416,c),
(946,416,l),
(948,446,o),
(950,496,o),
(950,524,cs),
(950,840,o),
(846,1020,o),
(548,1020,cs),
(248,1020,o),
(84,776,o),
(84,486,cs),
(84,210,o),
(216,-26,o),
(552,-26,cs)
);
},
{
closed = 1;
nodes = (
(352,714,o),
(418,830,o),
(554,830,cs),
(636,830,o),
(696,782,o),
(696,572,c),
(344,572,l)
);
},
{
closed = 1;
nodes = (
(461,-186,l),
(748,1232,l),
(620,1232,l),
(334,-186,l)
);
}
);
width = 1038;
}
);
unicode = 583;
},
{
glyphname = schwa;
lastChange = "2023-10-18 23:57:47 +0000";
layers = (
{
anchors = (
{
name = bottom;
pos = (484,-664);
}
);
layerId = "B61D43DE-5272-4FF4-A680-608B6BF5ED9E";
shapes = (
{
closed = 1;
nodes = (
(790,-24,o),
(954,220,o),
(954,510,cs),
(954,786,o),
(822,1032,o),
(486,1032,cs),
(290,1032,o),
(180,974,o),
(126,938,c),
(206,748,l),
(252,800,o),
(362,842,o),
(444,842,cs),
(606,842,o),
(684,738,o),
(692,580,c),
(90,580,l),
(88,550,o),
(88,514,o),
(88,486,cs),
(88,170,o),
(192,-24,o),
(490,-24,cs)
);
},
{
closed = 1;
nodes = (
(402,166,o),
(340,214,o),
(340,424,c),
(694,424,l),
(686,282,o),
(620,166,o),
(484,166,cs)
);
}
);
width = 1050;
}
);
unicode = 601;
userData = {
com.typemytype.robofont.guides = (
{
angle = 0;
isGlobal = 0;
magnetic = 5;
x = 0;
y = 869;
}
);
};
},
{
color = 1;
glyphname = ezh;
lastChange = "2023-10-31 04:12:41 +0000";
layers = (
{
anchors = (
{
name = bottom;
pos = (467,0);
}
);
background = {
shapes = (
{
pos = (-116,0);
ref = g;
}
);
};
layerId = "B61D43DE-5272-4FF4-A680-608B6BF5ED9E";
shapes = (
{
closed = 1;
nodes = (
(714,-448,o),
(890,-249,o),
(890,10,cs),
(890,206,o),
(823,406,o),
(502,436,c),
(934,996,l),
(62,996,l),
(62,782,l),
(525,782,l),
(237,427,l),
(237,265,l),
(443,286,o),
(666,248,o),
(666,25,cs),
(666,-146,o),
(594,-240,o),
(390,-240,cs),
(248,-240,o),
(180,-212,o),
(132,-182,c),
(20,-360,l),
(80,-396,o),
(202,-448,o),
(414,-448,cs)
);
}
);
width = 934;
}
);
unicode = 658;
},
{
glyphname = ezhreversed;
lastChange = "2023-10-31 04:12:41 +0000";
layers = (
{
anchors = (
{
name = bottom;
pos = (467,0);
}
);
layerId = "B61D43DE-5272-4FF4-A680-608B6BF5ED9E";
shapes = (
{
closed = 1;
nodes = (
(732,-448,o),
(854,-396,o),
(914,-360,c),
(802,-182,l),
(754,-212,o),
(686,-240,o),
(544,-240,cs),
(340,-240,o),
(268,-146,o),
(268,25,cs),
(268,248,o),
(491,286,o),
(697,265,c),
(697,427,l),
(409,782,l),
(872,782,l),
(872,996,l),
(0,996,l),
(432,436,l),
(111,406,o),
(44,206,o),
(44,10,cs),
(44,-249,o),
(220,-448,o),
(520,-448,cs)
);
}
);
width = 934;
}
);
unicode = 441;
},
{
glyphname = f;
lastChange = "2023-11-10 06:07:35 +0000";
layers = (
{
anchors = (
{
name = bottom;
pos = (349,0);
},
{
name = top;
pos = (349,1450);
}
);
layerId = "B61D43DE-5272-4FF4-A680-608B6BF5ED9E";
shapes = (
{
closed = 1;
nodes = (
(404,0,l),
(404,786,l),
(646,786,l),
(646,996,l),
(404,996,l),
(404,1156,ls),
(404,1281,o),
(474,1337,o),
(568,1337,cs),
(610,1337,o),
(676,1319,o),
(706,1281,c),
(706,1508,l),
(674,1526,o),
(630,1552,o),
(520,1552,cs),
(366,1552,o),
(162,1468,o),
(162,1150,cs),
(162,996,l),
(28,996,l),
(28,786,l),
(162,786,l),
(162,0,l)
);
}
);
width = 698;
}
);
unicode = 102;
userData = {
KernOnName = f;
com.typemytype.robofont.mark = (
0.6,
1,
0.628,
1
);
};
},
{
glyphname = g;
lastChange = "2023-11-10 06:07:35 +0000";
layers = (
{
anchors = (
{
name = bottom;
pos = (558,-560);
},
{
name = top;
pos = (558,996);
}
);
background = {
shapes = (
{
closed = 1;
nodes = (
(622,-28,o),
(714,66,o),
(750,204,c),
(750,0,l),
(968,0,l),
(968,1520,l),
(732,1520,l),
(732,970,l),
(750,824,l),
(722,950,o),
(622,1020,o),
(486,1020,cs),
(220,1020,o),
(86,824,o),
(86,496,cs),
(86,180,o),
(240,-28,o),
(482,-28,cs)
);
},
{
closed = 1;
nodes = (
(430,170,o),
(348,276,o),
(348,496,cs),
(348,742,o),
(452,818,o),
(546,818,cs),
(668,818,o),
(726,700,o),
(726,492,cs),
(726,264,o),
(636,170,o),
(540,170,cs)
);
}
);
};
layerId = "B61D43DE-5272-4FF4-A680-608B6BF5ED9E";
shapes = (
{
closed = 1;
nodes = (
(174,-360,l),
(234,-396,o),
(356,-448,o),
(518,-448,cs),
(818,-448,o),
(974,-258,o),
(974,48,cs),
(974,996,l),
(778,996,l),
(750,824,l),
(732,920,o),
(648,1020,o),
(484,1020,cs),
(264,1020,o),
(86,864,o),
(86,496,cs),
(86,134,o),
(264,-12,o),
(490,-12,cs),
(652,-12,o),
(722,102,o),
(750,204,c),
(750,48,ls),
(750,-146,o),
(664,-230,o),
(494,-230,cs),
(402,-230,o),
(334,-202,o),
(286,-172,c)
);
},
{
closed = 1;
nodes = (
(426,184,o),
(344,282,o),
(344,498,cs),
(344,736,o),
(446,818,o),
(548,818,cs),
(670,818,o),
(726,690,o),
(726,500,cs),
(726,298,o),
(656,184,o),
(540,184,cs)
);
}
);
width = 1116;
}
);
metricLeft = d;
unicode = 103;
userData = {
KernOnName = g;
};
},
{
color = 1;
glyphname = "gamma-latin";
lastChange = "2023-11-10 04:59:17 +0000";
layers = (
{
background = {
shapes = (
{
closed = 1;
nodes = (
(1030,996,l),
(785,996,l),
(611,634,l),
(482,380,l),
(625,380,l),
(486,634,l),
(310,996,l),
(68,996,l),
(471,277,l),
(639,277,l)
);
},
{
closed = 1;
nodes = (
(377,334,o),
(208,164,o),
(208,-53,cs),
(208,-241,o),
(365,-335,o),
(557,-335,cs),
(731,-335,o),
(888,-241,o),
(888,-53,cs),
(888,164,o),
(714,304,o),
(639,380,c),
(461,380,l)
);
},
{
closed = 1;
nodes = (
(672,-88,o),
(655,-178,o),
(557,-178,cs),
(441,-178,o),
(424,-88,o),
(424,-53,cs),
(424,34,o),
(481,152,o),
(549,225,c),
(609,152,o),
(672,34,o),
(672,-53,cs)
);
}
);
};
layerId = "B61D43DE-5272-4FF4-A680-608B6BF5ED9E";
shapes = (
{
closed = 1;
nodes = (
(733,-335,o),
(898,-241,o),
(898,-53,cs),
(898,137,o),
(776,253,o),
(689,363,c),
(1030,996,l),
(788,996,l),
(612,634,l),
(549,511,l),
(487,634,l),
(313,996,l),
(68,996,l),
(408,346,l),
(321,236,o),
(203,129,o),
(203,-53,cs),
(203,-241,o),
(367,-335,o),
(550,-335,cs)
);
},
{
closed = 1;
nodes = (
(443,-178,o),
(425,-88,o),
(425,-53,cs),
(425,34,o),
(491,152,o),
(549,225,c),
(607,152,o),
(674,34,o),
(674,-53,cs),
(674,-88,o),
(657,-178,o),
(550,-178,cs)
);
}
);
width = 1098;
}
);
unicode = 611;
},
{
color = 4;
glyphname = ghook;
lastChange = "2023-10-18 23:57:47 +0000";
layers = (
{
layerId = "B61D43DE-5272-4FF4-A680-608B6BF5ED9E";
shapes = (
{
closed = 1;
nodes = (
(174,-360,l),
(234,-396,o),
(356,-448,o),
(518,-448,cs),
(818,-448,o),
(974,-258,o),
(974,48,cs),
(974,1030,l),
(750,1030,l),
(750,824,l),
(732,920,o),
(648,1020,o),
(484,1020,cs),
(264,1020,o),
(86,864,o),
(86,496,cs),
(86,134,o),
(264,-12,o),
(490,-12,cs),
(652,-12,o),
(722,102,o),
(750,204,c),
(750,48,ls),
(750,-146,o),
(664,-230,o),
(494,-230,cs),
(402,-230,o),
(334,-202,o),
(286,-172,c)
);
},
{
closed = 1;
nodes = (
(426,184,o),
(344,282,o),
(344,498,cs),
(344,736,o),
(446,818,o),
(548,818,cs),
(670,818,o),
(726,690,o),
(726,500,cs),
(726,298,o),
(656,184,o),
(540,184,cs)
);
},
{
closed = 1;
nodes = (
(871,889,l),
(974,1030,l),
(974,1192,o),
(1023,1209,o),
(1094,1209,cs),
(1179,1209,o),
(1207,1172,o),
(1247,1144,c),
(1299,1335,l),
(1275,1371,o),
(1191,1418,o),
(1090,1418,cs),
(815,1418,o),
(748,1279,o),
(750,1030,c)
);
}
);
width = 1116;
}
);
unicode = 608;
},
{
glyphname = glottalstop;
lastChange = "2021-12-06 03:23:05 +0000";
layers = (
{
layerId = "B61D43DE-5272-4FF4-A680-608B6BF5ED9E";
shapes = (
{
closed = 1;
nodes = (
(326,0,l),
(569,0,l),
(569,399,l),
(569,513,o),
(569,623,o),
(656,679,cs),
(785,762,o),
(845,877,o),
(845,1046,cs),
(845,1265,o),
(706,1418,o),
(432,1418,cs),
(279,1418,o),
(156,1358,o),
(120,1322,c),
(199,1113,l),
(251,1153,o),
(296,1209,o),
(426,1209,cs),
(535,1209,o),
(595,1126,o),
(595,1039,cs),
(595,924,o),
(576,875,o),
(440,787,cs),
(312,705,o),
(326,528,o),
(326,399,c)
);
}
);
width = 965;
}
);
unicode = 660;
},
{
glyphname = glottalstopreversed;
lastChange = "2021-12-06 03:22:44 +0000";
layers = (
{
layerId = "B61D43DE-5272-4FF4-A680-608B6BF5ED9E";
shapes = (
{
closed = 1;
nodes = (
(639,528,o),
(653,705,o),
(525,787,cs),
(389,875,o),
(370,924,o),
(370,1039,cs),
(370,1126,o),
(430,1209,o),
(539,1209,cs),
(669,1209,o),
(714,1153,o),
(766,1113,c),
(845,1322,l),
(809,1358,o),
(686,1418,o),
(533,1418,cs),
(259,1418,o),
(120,1265,o),
(120,1046,cs),
(120,877,o),
(180,762,o),
(309,679,cs),
(396,623,o),
(396,513,o),
(396,399,c),
(396,0,l),
(639,0,l),
(639,399,l)
);
}
);
width = 965;
}
);
unicode = 661;
},
{
glyphname = glottalstopsmall;
lastChange = "2023-10-18 23:57:47 +0000";
layers = (
{
layerId = "B61D43DE-5272-4FF4-A680-608B6BF5ED9E";
shapes = (
{
closed = 1;
nodes = (
(569,0,l),
(569,114,o),
(569,224,o),
(656,280,cs),
(785,363,o),
(845,478,o),
(845,647,cs),
(845,866,o),
(706,1019,o),
(432,1019,cs),
(279,1019,o),
(156,959,o),
(120,923,c),
(199,714,l),
(251,754,o),
(296,810,o),
(426,810,cs),
(535,810,o),
(595,727,o),
(595,640,cs),
(595,525,o),
(576,476,o),
(440,388,cs),
(312,306,o),
(326,129,o),
(326,0,c)
);
}
);
width = 965;
}
);
unicode = 578;
},
{
glyphname = gstroke;
lastChange = "2023-10-19 00:53:32 +0000";
layers = (
{
anchors = (
{
name = bottom;
pos = (558,-560);
},
{
name = top;
pos = (558,996);
}
);
layerId = "B61D43DE-5272-4FF4-A680-608B6BF5ED9E";
shapes = (
{
closed = 1;
nodes = (
(174,-440,l),
(234,-476,o),
(356,-528,o),
(518,-528,cs),
(818,-528,o),
(974,-338,o),
(974,48,cs),
(974,996,l),
(778,996,l),
(750,824,l),
(732,920,o),
(648,1020,o),
(484,1020,cs),
(264,1020,o),
(86,864,o),
(86,496,cs),
(86,134,o),
(264,-12,o),
(490,-12,cs),
(652,-12,o),
(722,102,o),
(750,204,c),
(750,48,ls),
(750,-226,o),
(664,-310,o),
(494,-310,cs),
(402,-310,o),
(334,-282,o),
(286,-252,c)
);
},
{
closed = 1;
nodes = (
(426,184,o),
(344,282,o),
(344,498,cs),
(344,736,o),
(446,818,o),
(548,818,cs),
(670,818,o),
(726,690,o),
(726,500,cs),
(726,298,o),
(656,184,o),
(540,184,cs)
);
},
{
closed = 1;
nodes = (
(1097,-229,l),
(1097,-63,l),
(519,-63,l),
(519,-229,l)
);
}
);
width = 1116;
}
);
unicode = 485;
},
{
glyphname = h;
lastChange = "2023-10-19 00:42:56 +0000";
layers = (
{
anchors = (
{
name = bottom;
pos = (572,0);
},
{
name = center;
pos = (572,1954);
},
{
name = top;
pos = (270,1524);
}
);
layerId = "B61D43DE-5272-4FF4-A680-608B6BF5ED9E";
shapes = (
{
closed = 1;
nodes = (
(402,0,l),
(402,632,ls),
(402,742,o),
(488,818,o),
(582,818,cs),
(676,818,o),
(732,742,o),
(732,632,cs),
(732,0,l),
(988,0,l),
(988,658,ls),
(988,884,o),
(890,1020,o),
(690,1020,cs),
(494,1020,o),
(402,910,o),
(356,816,c),
(384,776,l),
(392,1020,l),
(392,1524,l),
(156,1524,l),
(156,0,l)
);
}
);
width = 1144;
}
);
unicode = 104;
},
{
color = 1;
glyphname = hhook;
lastChange = "2023-10-18 23:57:48 +0000";
layers = (
{
layerId = "B61D43DE-5272-4FF4-A680-608B6BF5ED9E";
shapes = (
{
closed = 1;
nodes = (
(402,0,l),
(402,632,ls),
(402,742,o),
(488,818,o),
(582,818,cs),
(676,818,o),
(732,742,o),
(732,632,cs),
(732,0,l),
(988,0,l),
(988,658,ls),
(988,884,o),
(890,1020,o),
(690,1020,cs),
(494,1020,o),
(402,910,o),
(356,816,c),
(384,776,l),
(392,1020,l),
(392,1140,l),
(156,1143,l),
(156,0,l)
);
},
{
closed = 1;
nodes = (
(289,1068,l),
(392,1140,l),
(392,1272,o),
(466,1340,o),
(575,1340,cs),
(685,1340,o),
(730,1284,o),
(782,1244,c),
(831,1456,l),
(795,1492,o),
(704,1552,o),
(551,1552,cs),
(296,1552,o),
(156,1388,o),
(156,1143,c)
);
}
);
width = 1144;
}
);
unicode = 614;
},
{
glyphname = i;
lastChange = "2023-11-10 06:07:35 +0000";
layers = (
{
anchors = (
{
name = bottom;
pos = (280,0);
}
);
layerId = "B61D43DE-5272-4FF4-A680-608B6BF5ED9E";
shapes = (
{
closed = 1;
nodes = (
(410,0,l),
(410,996,l),
(150,996,l),
(150,0,l)
);
},
{
closed = 1;
nodes = (
(420,1158,l),
(420,1424,l),
(140,1424,l),
(140,1158,l)
);
}
);
width = 560;
}
);
unicode = 105;
userData = {
KernOnName = i;
};
},
{
glyphname = idotless;
lastChange = "2023-10-19 00:21:47 +0000";
layers = (
{
anchors = (
{
name = bottom;
pos = (280,0);
},
{
name = ogonek;
pos = (410,0);
},
{
name = top;
pos = (280,996);
}
);
layerId = "B61D43DE-5272-4FF4-A680-608B6BF5ED9E";
shapes = (
{
closed = 1;
nodes = (
(410,0,l),
(410,996,l),
(150,996,l),
(150,0,l)
);
}
);
width = 560;
}
);
unicode = 305;
},
{
color = 4;
glyphname = iogonek;
lastChange = "2023-10-18 23:58:05 +0000";
layers = (
{
layerId = "B61D43DE-5272-4FF4-A680-608B6BF5ED9E";
shapes = (
{
closed = 1;
nodes = (
(420,1158,l),
(420,1424,l),
(140,1424,l),
(140,1158,l)
);
},
{
closed = 1;
nodes = (
(410,996,l),
(150,996,l),
(150,0,l),
(29,-42,o),
(-49,-134,o),
(-49,-256,cs),
(-49,-398,o),
(41,-480,o),
(249,-480,cs),
(318,-480,o),
(377,-468,o),
(417,-449,c),
(417,-268,l),
(369,-291,o),
(321,-298,o),
(281,-298,cs),
(203,-298,o),
(157,-270,o),
(157,-202,cs),
(157,-125,o),
(267,-37,o),
(410,4,c)
);
}
);
width = 560;
}
);
unicode = 303;
},
{
glyphname = "iota-latin";
lastChange = "2023-10-19 00:21:47 +0000";
layers = (
{
anchors = (
{
name = bottom;
pos = (374,-1064);
},
{
name = top;
pos = (315,996);
}
);
layerId = "B61D43DE-5272-4FF4-A680-608B6BF5ED9E";
shapes = (
{
closed = 1;
nodes = (
(150,321,ls),
(150,64,o),
(301,0,o),
(466,0,cs),
(534,0,o),
(604,32,o),
(609,44,c),
(609,272,l),
(595,254,o),
(561,236,o),
(521,236,cs),
(442,236,o),
(392,262,o),
(392,396,cs),
(392,1020,l),
(150,1020,l)
);
}
);
width = 629;
}
);
metricLeft = idotless;
unicode = 617;
},
{
glyphname = j;
lastChange = "2023-11-10 06:07:35 +0000";
layers = (
{
layerId = "B61D43DE-5272-4FF4-A680-608B6BF5ED9E";
shapes = (
{
closed = 1;
nodes = (
(418,1158,l),
(418,1424,l),
(138,1424,l),
(138,1158,l)
);
},
{
closed = 1;
nodes = (
(282,-488,o),
(394,-384,o),
(400,-126,cs),
(400,996,l),
(152,996,l),
(152,-116,ls),
(152,-248,o),
(94,-346,o),
(10,-348,c),
(96,-500,l)
);
}
);
width = 552;
}
);
unicode = 106;
userData = {
KernOnName = j;
};
},
{
glyphname = jdotless;
lastChange = "2023-10-19 00:21:47 +0000";
layers = (
{
anchors = (
{
name = bottom;
pos = (276,-560);
},
{
name = top;
pos = (276,996);
}
);
layerId = "B61D43DE-5272-4FF4-A680-608B6BF5ED9E";
shapes = (
{
closed = 1;
nodes = (
(282,-488,o),
(400,-360,o),
(400,-102,cs),
(400,996,l),
(154,996,l),
(154,-116,ls),
(154,-248,o),
(94,-346,o),
(10,-348,c),
(96,-500,l)
);
}
);
width = 552;
}
);
metricLeft = j;
metricWidth = j;
unicode = 567;
},
{
glyphname = jstroke;
lastChange = "2023-10-31 04:13:38 +0000";
layers = (
{
layerId = "B61D43DE-5272-4FF4-A680-608B6BF5ED9E";
shapes = (
{
closed = 1;
nodes = (
(418,1158,l),
(418,1424,l),
(138,1424,l),
(138,1158,l)
);
},
{
closed = 1;
nodes = (
(282,-488,o),
(394,-384,o),
(400,-126,cs),
(400,996,l),
(152,996,l),
(152,-116,ls),
(152,-248,o),
(94,-346,o),
(10,-348,c),
(96,-500,l)
);
},
{
closed = 1;
nodes = (
(553,587,l),
(553,769,l),
(23,769,l),
(23,587,l)
);
}
);
width = 552;
}
);
unicode = 585;
},
{
glyphname = k;
lastChange = "2023-11-10 06:08:47 +0000";
layers = (
{
anchors = (
{
name = bottom;
pos = (507,0);
},
{
name = top;
pos = (270,1520);
}
);
layerId = "B61D43DE-5272-4FF4-A680-608B6BF5ED9E";
shapes = (
{
closed = 1;
nodes = (
(392,0,l),
(392,238,l),
(384,482,l),
(706,0,l),
(1008,0,l),
(626,538,l),
(974,996,l),
(690,996,l),
(384,540,l),
(392,774,l),
(392,1520,l),
(156,1520,l),
(156,0,l)
);
}
);
width = 1014;
}
);
metricLeft = h;
unicode = 107;
userData = {
KernOnName = k;
com.typemytype.robofont.mark = (
0.6,
1,
0.628,
1
);
};
},
{
glyphname = kgreenlandic;
lastChange = "2023-10-19 00:21:47 +0000";
layers = (
{
anchors = (
{
name = bottom;
pos = (507,0);
},
{
name = top;
pos = (507,996);
}
);
layerId = "B61D43DE-5272-4FF4-A680-608B6BF5ED9E";
shapes = (
{
closed = 1;
nodes = (
(390,0,l),
(390,226,l),
(382,470,l),
(706,0,l),
(1008,0,l),
(618,538,l),
(966,996,l),
(682,996,l),
(382,552,l),
(390,774,l),
(390,996,l),
(148,996,l),
(148,0,l)
);
}
);
width = 1014;
}
);
metricLeft = n;
metricRight = k;
unicode = 312;
userData = {
com.typemytype.robofont.mark = (
0.6,
1,
0.628,
1
);
};
},
{
color = 1;
glyphname = khook;
lastChange = "2023-10-18 23:57:48 +0000";
layers = (
{
layerId = "B61D43DE-5272-4FF4-A680-608B6BF5ED9E";
shapes = (
{
closed = 1;
nodes = (
(392,0,l),
(392,238,l),
(384,482,l),
(706,0,l),
(1008,0,l),
(626,538,l),
(974,996,l),
(690,996,l),
(384,540,l),
(392,774,l),
(392,1169,l),
(263,1324,l),
(156,1173,l),
(156,0,l)
);
},
{
closed = 1;
nodes = (
(289,1098,l),
(392,1170,l),
(392,1302,o),
(466,1340,o),
(575,1340,cs),
(685,1340,o),
(730,1284,o),
(782,1244,c),
(831,1456,l),
(795,1492,o),
(704,1552,o),
(551,1552,cs),
(296,1552,o),
(154,1392,o),
(156,1173,c)
);
}
);
width = 1014;
}
);
unicode = 409;
},
{
glyphname = l;
lastChange = "2023-11-10 06:07:35 +0000";
layers = (
{
anchors = (
{
name = bottom;
pos = (273,0);
},
{
name = car;
pos = (640,1660);
},
{
name = center;
pos = (274,760);
},
{
name = top;
pos = (274,1520);
},
{
name = topright;
pos = (528,1954);
}
);
layerId = "B61D43DE-5272-4FF4-A680-608B6BF5ED9E";
shapes = (
{
closed = 1;
nodes = (
(396,0,l),
(396,1520,l),
(152,1520,l),
(152,0,l)
);
}
);
width = 548;
}
);
unicode = 108;
userData = {
KernOnName = l;
};
},
{
glyphname = lambdastroke;
lastChange = "2023-11-10 04:51:49 +0000";
layers = (
{
anchors = (
{
name = bottom;
pos = (473,0);
},
{
name = top;
pos = (473,996);
}
);
layerId = "B61D43DE-5272-4FF4-A680-608B6BF5ED9E";
shapes = (
{
closed = 1;
nodes = (
(362,928,l),
(-12,0,l),
(266,0,l),
(414,444,l),
(478,674,l),
(542,444,l),
(692,0,l),
(954,0,l),
(446,1374,l),
(200,1374,l)
);
},
{
closed = 1;
nodes = (
(422,1043,l),
(501,1075,l),
(750,1209,l),
(660,1359,l),
(411,1231,l),
(318,1180,l),
(127,1081,l),
(219,935,l)
);
}
);
width = 946;
}
);
unicode = 411;
},
{
glyphname = ldot;
lastChange = "2019-10-28 18:28:25 +0000";
layers = (
{
layerId = "B61D43DE-5272-4FF4-A680-608B6BF5ED9E";
shapes = (
{
closed = 1;
nodes = (
(890,628,l),
(890,886,l),
(664,886,l),
(664,628,l)
);
},
{
ref = l;
}
);
width = 1006;
}
);
metricRight = periodcentered.loclCAT.case;
unicode = 320;
},
{
glyphname = lslash;
lastChange = "2023-11-08 01:58:02 +0000";
layers = (
{
layerId = "B61D43DE-5272-4FF4-A680-608B6BF5ED9E";
shapes = (
{
closed = 1;
nodes = (
(584,790,l),
(584,1012,l),
(20,688,l),
(20,466,l)
);
},
{
pos = (16,0);
ref = l;
}
);
width = 604;
}
);
unicode = 322;
},
{
glyphname = m;
lastChange = "2023-10-19 00:21:47 +0000";
layers = (
{
anchors = (
{
name = bottom;
pos = (847,0);
},
{
name = top;
pos = (847,996);
}
);
layerId = "B61D43DE-5272-4FF4-A680-608B6BF5ED9E";
shapes = (
{
closed = 1;
nodes = (
(404,0,l),
(404,632,ls),
(404,742,o),
(484,822,o),
(580,822,cs),
(674,822,o),
(724,742,o),
(724,632,cs),
(724,0,l),
(980,0,l),
(980,652,ls),
(980,880,o),
(880,1020,o),
(678,1020,cs),
(492,1020,o),
(404,910,o),
(356,816,c),
(388,776,l),
(378,996,l),
(148,996,l),
(148,0,l)
);
},
{
closed = 1;
nodes = (
(1554,0,l),
(1554,658,ls),
(1554,884,o),
(1456,1020,o),
(1256,1020,cs),
(1070,1020,o),
(982,916,o),
(934,826,c),
(928,740,l),
(980,632,l),
(980,742,o),
(1070,818,o),
(1164,818,cs),
(1260,818,o),
(1300,742,o),
(1300,632,cs),
(1300,0,l)
);
}
);
width = 1694;
}
);
metricLeft = n;
metricRight = n;
unicode = 109;
},
{
glyphname = mturned;
lastChange = "2023-10-18 23:48:42 +0000";
layers = (
{
layerId = "B61D43DE-5272-4FF4-A680-608B6BF5ED9E";
shapes = (
{
closed = 1;
nodes = (
(1290,996,l),
(1290,364,ls),
(1290,254,o),
(1210,174,o),
(1114,174,cs),
(1020,174,o),
(970,254,o),
(970,364,cs),
(970,996,l),
(714,996,l),
(714,344,ls),
(714,116,o),
(814,-24,o),
(1016,-24,cs),
(1202,-24,o),
(1290,86,o),
(1338,180,c),
(1306,220,l),
(1316,0,l),
(1546,0,l),
(1546,996,l)
);
},
{
closed = 1;
nodes = (
(140,996,l),
(140,338,ls),
(140,112,o),
(238,-24,o),
(438,-24,cs),
(624,-24,o),
(712,80,o),
(760,170,c),
(766,256,l),
(714,364,l),
(714,254,o),
(624,178,o),
(530,178,cs),
(434,178,o),
(394,254,o),
(394,364,cs),
(394,996,l)
);
}
);
width = 1694;
}
);
unicode = 623;
},
{
glyphname = n;
lastChange = "2023-11-10 06:07:35 +0000";
layers = (
{
anchors = (
{
name = bottom;
pos = (568,0);
},
{
name = top;
pos = (589,996);
}
);
layerId = "B61D43DE-5272-4FF4-A680-608B6BF5ED9E";
shapes = (
{
closed = 1;
nodes = (
(404,0,l),
(404,636,ls),
(404,746,o),
(486,822,o),
(580,822,cs),
(676,822,o),
(722,746,o),
(722,636,cs),
(722,0,l),
(978,0,l),
(978,658,ls),
(978,884,o),
(880,1020,o),
(678,1020,cs),
(494,1020,o),
(404,910,o),
(356,816,c),
(388,776,l),
(380,996,l),
(148,996,l),
(148,0,l)
);
}
);
width = 1118;
}
);
unicode = 110;
userData = {
KernOnName = n;
};
},
{
glyphname = nhookleft;
lastChange = "2023-10-18 23:57:49 +0000";
layers = (
{
anchors = (
{
name = bottom;
pos = (761,0);
}
);
layerId = "B61D43DE-5272-4FF4-A680-608B6BF5ED9E";
shapes = (
{
closed = 1;
nodes = (
(597,0,l),
(597,636,ls),
(597,746,o),
(679,822,o),
(773,822,cs),
(869,822,o),
(915,746,o),
(915,636,cs),
(915,0,l),
(1171,0,l),
(1171,658,ls),
(1171,884,o),
(1073,1020,o),
(871,1020,cs),
(687,1020,o),
(597,910,o),
(549,816,c),
(581,776,l),
(573,996,l),
(341,996,l),
(341,0,l)
);
},
{
closed = 1;
nodes = (
(448,107,l),
(341,0,l),
(341,-101,o),
(317,-138,o),
(225,-138,cs),
(140,-138,o),
(112,-112,o),
(72,-84,c),
(20,-275,l),
(44,-311,o),
(128,-347,o),
(229,-347,cs),
(504,-347,o),
(599,-219,o),
(597,0,c)
);
}
);
width = 1311;
}
);
metricLeft = esh;
unicode = 626;
},
{
glyphname = nlongrightleg;
lastChange = "2023-10-19 00:50:39 +0000";
layers = (
{
anchors = (
{
name = bottom;
pos = (568,0);
},
{
name = top;
pos = (589,996);
}
);
layerId = "B61D43DE-5272-4FF4-A680-608B6BF5ED9E";
shapes = (
{
closed = 1;
nodes = (
(404,0,l),
(404,636,ls),
(404,746,o),
(486,822,o),
(580,822,cs),
(676,822,o),
(722,746,o),
(722,636,cs),
(722,-276,l),
(978,-276,l),
(978,658,ls),
(978,884,o),
(880,1020,o),
(678,1020,cs),
(494,1020,o),
(404,910,o),
(356,816,c),
(388,776,l),
(380,996,l),
(148,996,l),
(148,0,l)
);
}
);
width = 1118;
}
);
unicode = 414;
},
{
glyphname = eng;
lastChange = "2023-10-19 00:21:47 +0000";
layers = (
{
anchors = (
{
name = bottom;
pos = (559,-560);
},
{
name = top;
pos = (559,996);
}
);
layerId = "B61D43DE-5272-4FF4-A680-608B6BF5ED9E";
shapes = (
{
closed = 1;
nodes = (
(860,-488,o),
(972,-384,o),
(978,-126,cs),
(978,658,ls),
(978,884,o),
(880,1020,o),
(678,1020,cs),
(526,1020,o),
(438,944,o),
(384,866,c),
(380,996,l),
(148,996,l),
(148,0,l),
(404,0,l),
(404,636,ls),
(404,746,o),
(486,822,o),
(580,822,cs),
(676,822,o),
(722,746,o),
(722,636,cs),
(722,-116,ls),
(722,-248,o),
(672,-346,o),
(588,-348,c),
(674,-500,l)
);
}
);
width = 1118;
}
);
metricLeft = n;
metricRight = n;
unicode = 331;
},
{
glyphname = o;
lastChange = "2023-11-10 06:07:35 +0000";
layers = (
{
anchors = (
{
name = bottom;
pos = (544,0);
},
{
name = center;
pos = (544,498);
},
{
name = ogonek;
pos = (773,96);
},
{
name = top;
pos = (544,996);
},
{
name = topright;
pos = (1068,996);
}
);
layerId = "B61D43DE-5272-4FF4-A680-608B6BF5ED9E";
shapes = (
{
closed = 1;
nodes = (
(838,-20,o),
(1004,184,o),
(1004,500,cs),
(1004,816,o),
(846,1020,o),
(552,1020,cs),
(258,1020,o),
(84,828,o),
(84,500,cs),
(84,174,o),
(250,-20,o),
(544,-20,cs)
);
},
{
closed = 1;
nodes = (
(422,180,o),
(350,270,o),
(350,500,cs),
(350,730,o),
(422,822,o),
(548,822,cs),
(672,822,o),
(738,712,o),
(738,500,cs),
(738,288,o),
(672,180,o),
(548,180,cs)
);
}
);
width = 1088;
}
);
unicode = 111;
userData = {
KernOnName = o;
};
},
{
glyphname = obarred;
lastChange = "2023-10-19 00:43:50 +0000";
layers = (
{
anchors = (
{
name = bottom;
pos = (544,0);
},
{
name = center;
pos = (544,498);
},
{
name = ogonek;
pos = (979,10);
},
{
name = top;
pos = (544,996);
},
{
name = topright;
pos = (1068,996);
}
);
layerId = "B61D43DE-5272-4FF4-A680-608B6BF5ED9E";
shapes = (
{
closed = 1;
nodes = (
(838,-20,o),
(1004,184,o),
(1004,500,cs),
(1004,816,o),
(846,1020,o),
(552,1020,cs),
(258,1020,o),
(84,828,o),
(84,500,cs),
(84,174,o),
(250,-20,o),
(544,-20,cs)
);
},
{
closed = 1;
nodes = (
(422,180,o),
(350,270,o),
(350,500,cs),
(350,730,o),
(422,822,o),
(548,822,cs),
(672,822,o),
(738,712,o),
(738,500,cs),
(738,288,o),
(672,180,o),
(548,180,cs)
);
},
{
closed = 1;
nodes = (
(861,419,l),
(861,585,l),
(223,585,l),
(223,419,l)
);
}
);
width = 1088;
}
);
unicode = 629;
},
{
glyphname = ohorn;
lastChange = "2023-10-19 00:44:27 +0000";
layers = (
{
anchors = (
{
name = bottom;
pos = (556,0);
},
{
name = center;
pos = (544,498);
},
{
name = ogonek;
pos = (979,10);
},
{
name = top;
pos = (556,996);
},
{
name = topright;
pos = (1068,996);
}
);
layerId = "B61D43DE-5272-4FF4-A680-608B6BF5ED9E";
shapes = (
{
closed = 1;
nodes = (
(838,-20,o),
(1004,184,o),
(1004,500,cs),
(1004,816,o),
(896,1020,o),
(552,1020,cs),
(258,1020,o),
(84,828,o),
(84,500,cs),
(84,174,o),
(250,-20,o),
(544,-20,cs)
);
},
{
closed = 1;
nodes = (
(422,180,o),
(350,270,o),
(350,500,cs),
(350,730,o),
(422,822,o),
(548,822,cs),
(672,822,o),
(738,712,o),
(738,500,cs),
(738,288,o),
(672,180,o),
(548,180,cs)
);
},
{
closed = 1;
nodes = (
(999,856,o),
(1149,988,o),
(1149,1088,cs),
(1149,1170,o),
(1145,1200,o),
(1135,1232,c),
(947,1232,l),
(959,1200,o),
(963,1172,o),
(963,1118,cs),
(963,1024,o),
(875,976,o),
(709,976,c),
(877,856,l)
);
}
);
width = 1088;
}
);
metricLeft = o;
unicode = 417;
},
{
color = 4;
glyphname = oogonek;
lastChange = "2023-10-18 23:57:50 +0000";
layers = (
{
layerId = "B61D43DE-5272-4FF4-A680-608B6BF5ED9E";
shapes = (
{
closed = 1;
nodes = (
(891,54,o),
(1004,239,o),
(1004,500,cs),
(1004,816,o),
(846,1020,o),
(552,1020,cs),
(258,1020,o),
(84,828,o),
(84,500,cs),
(84,218,o),
(208,34,o),
(433,-10,c),
(332,-68,o),
(280,-173,o),
(280,-256,cs),
(280,-398,o),
(388,-480,o),
(578,-480,cs),
(648,-480,o),
(706,-468,o),
(746,-448,c),
(746,-268,l),
(698,-292,o),
(676,-298,o),
(636,-298,cs),
(576,-298,o),
(524,-284,o),
(524,-216,cs),
(524,-139,o),
(585,-57,o),
(686,-2,c)
);
},
{
closed = 1;
nodes = (
(350,730,o),
(422,822,o),
(548,822,cs),
(672,822,o),
(738,712,o),
(738,500,cs),
(738,288,o),
(672,180,o),
(548,180,cs),
(422,180,o),
(350,270,o),
(350,500,cs)
);
}
);
width = 1088;
}
);
unicode = 491;
},
{
color = 1;
glyphname = oopen;
lastChange = "2023-10-18 23:55:44 +0000";
layers = (
{
anchors = (
{
name = bottom;
pos = (360,-664);
}
);
layerId = "B61D43DE-5272-4FF4-A680-608B6BF5ED9E";
shapes = (
{
closed = 1;
nodes = (
(200,1020,o),
(86,948,o),
(48,908,c),
(124,730,l),
(162,772,o),
(238,816,o),
(334,816,cs),
(480,816,o),
(552,722,o),
(552,500,cs),
(552,292,o),
(482,184,o),
(334,184,cs),
(266,184,o),
(178,218,o),
(138,278,c),
(56,66,l),
(144,-6,o),
(234,-24,o),
(348,-24,cs),
(656,-24,o),
(816,226,o),
(816,502,cs),
(816,780,o),
(680,1020,o),
(362,1020,cs)
);
}
);
width = 902;
}
);
metricLeft = "=|c";
metricRight = "=|c";
unicode = 596;
},
{
glyphname = oslash;
lastChange = "2019-10-28 18:28:25 +0000";
layers = (
{
layerId = "B61D43DE-5272-4FF4-A680-608B6BF5ED9E";
shapes = (
{
closed = 1;
nodes = (
(374,124,l),
(402,176,l),
(788,790,l),
(858,824,l),
(1000,1048,l),
(882,1124,l),
(744,912,l),
(692,828,l),
(340,246,l),
(278,238,l),
(98,-42,l),
(216,-122,l)
);
},
{
pos = (-2,0);
ref = o;
}
);
width = 1106;
}
);
unicode = 248;
},
{
glyphname = oe;
lastChange = "2023-10-19 00:21:47 +0000";
layers = (
{
anchors = (
{
name = bottom;
pos = (848,0);
},
{
name = top;
pos = (848,996);
}
);
layerId = "B61D43DE-5272-4FF4-A680-608B6BF5ED9E";
shapes = (
{
closed = 1;
nodes = (
(838,-20,o),
(934,234,o),
(934,500,cs),
(934,808,o),
(846,1020,o),
(552,1020,cs),
(258,1020,o),
(84,828,o),
(84,500,cs),
(84,174,o),
(250,-20,o),
(544,-20,cs)
);
},
{
closed = 1;
nodes = (
(422,180,o),
(348,270,o),
(348,500,cs),
(348,730,o),
(422,822,o),
(548,822,cs),
(672,822,o),
(734,712,o),
(734,500,cs),
(734,288,o),
(672,180,o),
(548,180,cs)
);
},
{
closed = 1;
nodes = (
(1406,-22,o),
(1516,36,o),
(1570,72,c),
(1490,262,l),
(1444,210,o),
(1334,168,o),
(1252,168,cs),
(1090,168,o),
(1012,258,o),
(1004,416,c),
(1606,416,l),
(1608,446,o),
(1608,482,o),
(1608,510,cs),
(1608,826,o),
(1504,1020,o),
(1206,1020,cs),
(906,1020,o),
(780,776,o),
(780,486,cs),
(780,210,o),
(874,-22,o),
(1210,-22,cs)
);
},
{
closed = 1;
nodes = (
(1010,714,o),
(1076,830,o),
(1212,830,cs),
(1294,830,o),
(1356,784,o),
(1356,574,c),
(1002,572,l)
);
}
);
width = 1696;
}
);
metricLeft = o;
metricRight = e;
unicode = 339;
userData = {
com.typemytype.robofont.mark = (
0.6,
1,
0.628,
1
);
};
},
{
color = 3;
glyphname = p;
lastChange = "2023-10-19 00:48:22 +0000";
layers = (
{
anchors = (
{
name = bottom;
pos = (562,0);
},
{
name = top;
pos = (658,996);
}
);
layerId = "B61D43DE-5272-4FF4-A680-608B6BF5ED9E";
shapes = (
{
closed = 1;
nodes = (
(394,-436,l),
(394,10,l),
(370,198,l),
(402,80,o),
(490,-28,o),
(638,-28,cs),
(876,-28,o),
(1038,164,o),
(1038,512,cs),
(1038,822,o),
(922,1022,o),
(658,1022,cs),
(522,1022,o),
(394,938,o),
(370,824,c),
(390,964,l),
(390,996,l),
(152,996,l),
(152,-436,l)
);
},
{
closed = 1;
nodes = (
(464,170,o),
(394,298,o),
(394,486,cs),
(394,674,o),
(460,818,o),
(584,818,cs),
(686,818,o),
(776,726,o),
(776,502,cs),
(776,260,o),
(676,170,o),
(580,170,cs)
);
}
);
width = 1124;
}
);
unicode = 112;
userData = {
com.typemytype.robofont.mark = (
0.6,
1,
0.628,
1
);
};
},
{
color = 4;
glyphname = phook;
lastChange = "2023-11-08 01:58:02 +0000";
layers = (
{
layerId = "B61D43DE-5272-4FF4-A680-608B6BF5ED9E";
shapes = (
{
closed = 1;
nodes = (
(394,-436,l),
(394,10,l),
(370,198,l),
(402,80,o),
(490,-28,o),
(638,-28,cs),
(876,-28,o),
(1038,164,o),
(1038,512,cs),
(1038,822,o),
(922,1022,o),
(658,1022,cs),
(522,1022,o),
(394,938,o),
(370,824,c),
(390,964,l),
(392,1170,l),
(154,1173,l),
(152,-436,l)
);
},
{
closed = 1;
nodes = (
(464,170,o),
(394,298,o),
(394,486,cs),
(394,674,o),
(460,818,o),
(584,818,cs),
(686,818,o),
(776,726,o),
(776,502,cs),
(776,260,o),
(676,170,o),
(580,170,cs)
);
},
{
closed = 1;
nodes = (
(289,1098,l),
(392,1170,l),
(392,1302,o),
(466,1340,o),
(575,1340,cs),
(685,1340,o),
(730,1284,o),
(782,1244,c),
(831,1456,l),
(795,1492,o),
(704,1552,o),
(551,1552,cs),
(296,1552,o),
(152,1392,o),
(154,1173,c)
);
}
);
width = 1124;
}
);
unicode = 421;
},
{
color = 3;
glyphname = thorn;
lastChange = "2023-10-18 23:57:50 +0000";
layers = (
{
layerId = "B61D43DE-5272-4FF4-A680-608B6BF5ED9E";
shapes = (
{
closed = 1;
nodes = (
(398,-436,l),
(398,10,l),
(378,198,l),
(156,170,l),
(156,-436,l)
);
},
{
ref = b;
}
);
width = 1128;
}
);
metricLeft = h;
metricRight = b;
unicode = 254;
userData = {
com.typemytype.robofont.mark = (
0.6,
1,
0.628,
1
);
};
},
{
glyphname = pstroke;
lastChange = "2023-10-31 04:12:12 +0000";
layers = (
{
anchors = (
{
name = bottom;
pos = (562,0);
},
{
name = top;
pos = (658,996);
}
);
layerId = "B61D43DE-5272-4FF4-A680-608B6BF5ED9E";
shapes = (
{
closed = 1;
nodes = (
(394,-436,l),
(394,10,l),
(370,198,l),
(402,80,o),
(490,-28,o),
(638,-28,cs),
(876,-28,o),
(1038,164,o),
(1038,512,cs),
(1038,822,o),
(922,1022,o),
(658,1022,cs),
(522,1022,o),
(394,938,o),
(370,824,c),
(390,964,l),
(390,996,l),
(152,996,l),
(152,-436,l)
);
},
{
closed = 1;
nodes = (
(464,170,o),
(394,298,o),
(394,486,cs),
(394,674,o),
(460,818,o),
(584,818,cs),
(686,818,o),
(776,726,o),
(776,502,cs),
(776,260,o),
(676,170,o),
(580,170,cs)
);
},
{
closed = 1;
nodes = (
(1141,409,l),
(1141,591,l),
(41,591,l),
(41,409,l)
);
}
);
width = 1124;
}
);
unicode = 7549;
},
{
glyphname = q;
lastChange = "2023-10-19 00:21:47 +0000";
layers = (
{
anchors = (
{
name = bottom;
pos = (566,0);
},
{
name = top;
pos = (566,996);
}
);
background = {
shapes = (
{
closed = 1;
nodes = (
(972,996,l),
(734,996,l),
(734,964,l),
(754,824,l),
(730,938,o),
(602,1022,o),
(466,1022,cs),
(202,1022,o),
(86,822,o),
(86,512,cs),
(86,164,o),
(248,-28,o),
(486,-28,cs),
(634,-28,o),
(722,80,o),
(754,198,c),
(730,10,l),
(730,-436,l),
(972,-436,l)
);
},
{
closed = 1;
nodes = (
(448,170,o),
(348,260,o),
(348,502,cs),
(348,726,o),
(438,818,o),
(540,818,cs),
(664,818,o),
(730,674,o),
(730,486,cs),
(730,298,o),
(660,170,o),
(544,170,cs)
);
}
);
};
layerId = "B61D43DE-5272-4FF4-A680-608B6BF5ED9E";
shapes = (
{
closed = 1;
nodes = (
(972,-436,l),
(976,996,l),
(750,996,l),
(750,824,l),
(726,934,o),
(638,1020,o),
(490,1020,cs),
(258,1020,o),
(86,866,o),
(86,496,cs),
(86,164,o),
(254,-28,o),
(476,-28,cs),
(600,-28,o),
(712,48,o),
(750,204,c),
(730,10,l),
(730,-436,l)
);
},
{
closed = 1;
nodes = (
(430,170,o),
(348,276,o),
(348,496,cs),
(348,742,o),
(452,818,o),
(546,818,cs),
(668,818,o),
(726,700,o),
(726,492,cs),
(726,264,o),
(636,170,o),
(540,170,cs)
);
}
);
width = 1132;
}
);
unicode = 113;
userData = {
com.typemytype.robofont.mark = (
0.6,
1,
0.628,
1
);
};
},
{
color = 4;
glyphname = qhooktail;
lastChange = "2023-10-19 00:47:14 +0000";
layers = (
{
layerId = "B61D43DE-5272-4FF4-A680-608B6BF5ED9E";
shapes = (
{
closed = 1;
nodes = (
(972,-257,l),
(976,996,l),
(750,996,l),
(750,824,l),
(726,934,o),
(638,1020,o),
(490,1020,cs),
(258,1020,o),
(86,866,o),
(86,496,cs),
(86,164,o),
(254,-28,o),
(476,-28,cs),
(600,-28,o),
(712,48,o),
(750,204,c),
(730,10,l),
(793,-61,l)
);
},
{
closed = 1;
nodes = (
(430,170,o),
(348,276,o),
(348,496,cs),
(348,742,o),
(452,818,o),
(546,818,cs),
(668,818,o),
(726,700,o),
(726,492,cs),
(726,264,o),
(636,170,o),
(540,170,cs)
);
},
{
closed = 1;
nodes = (
(730,-274,o),
(823,-367,o),
(1002,-367,cs),
(1133,-367,o),
(1217,-331,o),
(1241,-301,c),
(1189,-74,l),
(1149,-102,o),
(1121,-128,o),
(1070,-128,cs),
(1005,-128,o),
(975,-85,o),
(975,10,c),
(853,107,l),
(730,10,l)
);
}
);
width = 1241;
}
);
metricLeft = q;
metricRight = "=rtail";
unicode = 587;
},
{
glyphname = r;
lastChange = "2023-11-10 06:07:35 +0000";
layers = (
{
anchors = (
{
name = bottom;
pos = (269,0);
},
{
name = top;
pos = (456,996);
}
);
layerId = "B61D43DE-5272-4FF4-A680-608B6BF5ED9E";
shapes = (
{
closed = 1;
nodes = (
(388,0,l),
(388,600,ls),
(388,642,o),
(456,762,o),
(610,762,cs),
(656,762,o),
(686,752,o),
(708,730,c),
(764,992,l),
(738,1002,o),
(710,1008,o),
(672,1008,cs),
(484,1008,o),
(408,898,o),
(376,820,c),
(364,996,l),
(138,996,l),
(138,0,l)
);
}
);
width = 764;
}
);
unicode = 114;
userData = {
KernOnName = r;
};
},
{
glyphname = rfishhook;
lastChange = "2023-11-08 04:58:05 +0000";
layers = (
{
anchors = (
{
name = bottom;
pos = (361,0);
},
{
name = top;
pos = (361,996);
}
);
layerId = "B61D43DE-5272-4FF4-A680-608B6BF5ED9E";
shapes = (
{
closed = 1;
nodes = (
(400,0,l),
(400,633,l),
(140,653,l),
(140,0,l)
);
},
{
closed = 1;
nodes = (
(273,546,l),
(400,633,l),
(400,728,o),
(425,771,o),
(510,771,cs),
(581,771,o),
(609,745,o),
(649,717,c),
(701,954,l),
(677,984,o),
(593,1020,o),
(492,1020,cs),
(243,1020,o),
(138,892,o),
(140,653,c)
);
}
);
width = 721;
}
);
metricLeft = i;
unicode = 638;
},
{
color = 1;
glyphname = rtail;
lastChange = "2023-10-19 00:47:12 +0000";
layers = (
{
layerId = "B61D43DE-5272-4FF4-A680-608B6BF5ED9E";
shapes = (
{
closed = 1;
nodes = (
(138,-264,o),
(231,-367,o),
(480,-367,cs),
(581,-367,o),
(665,-331,o),
(689,-301,c),
(637,-74,l),
(597,-102,o),
(569,-128,o),
(498,-128,cs),
(413,-128,o),
(388,-85,o),
(388,20,c),
(261,107,l),
(138,20,l)
);
},
{
closed = 1;
nodes = (
(388,20,l),
(388,600,ls),
(388,642,o),
(456,762,o),
(610,762,cs),
(656,762,o),
(686,752,o),
(708,730,c),
(764,992,l),
(738,1002,o),
(710,1008,o),
(672,1008,cs),
(484,1008,o),
(408,898,o),
(376,820,c),
(364,996,l),
(138,996,l),
(138,20,l)
);
}
);
width = 764;
}
);
unicode = 637;
},
{
glyphname = s;
lastChange = "2023-11-10 06:07:35 +0000";
layers = (
{
anchors = (
{
name = bottom;
pos = (437,0);
},
{
name = top;
pos = (437,996);
}
);
background = {
shapes = (
{
closed = 1;
nodes = (
(696,-18,o),
(802,132,o),
(802,296,cs),
(802,434,o),
(702,520,o),
(558,584,cs),
(444,634,o),
(342,666,o),
(342,740,cs),
(342,798,o),
(376,824,o),
(478,824,cs),
(570,824,o),
(654,780,o),
(706,740,c),
(774,920,l),
(738,956,o),
(624,1016,o),
(470,1016,cs),
(228,1016,o),
(92,900,o),
(92,720,cs),
(92,534,o),
(252,470,o),
(354,422,cs),
(478,364,o),
(554,328,o),
(554,266,cs),
(554,220,o),
(520,178,o),
(426,178,cs),
(304,178,o),
(212,236,o),
(154,284,c),
(80,94,l),
(110,58,o),
(202,-18,o),
(420,-18,cs)
);
}
);
};
layerId = "B61D43DE-5272-4FF4-A680-608B6BF5ED9E";
shapes = (
{
closed = 1;
nodes = (
(696,-18,o),
(802,132,o),
(802,296,cs),
(802,442,o),
(690,532,o),
(524,598,cs),
(424,638,o),
(342,674,o),
(342,740,cs),
(342,798,o),
(376,824,o),
(478,824,cs),
(570,824,o),
(654,780,o),
(706,740,c),
(774,920,l),
(738,956,o),
(624,1016,o),
(470,1016,cs),
(228,1016,o),
(92,900,o),
(92,720,cs),
(92,544,o),
(236,474,o),
(338,430,cs),
(452,380,o),
(554,332,o),
(554,270,cs),
(554,224,o),
(520,178,o),
(426,178,cs),
(304,178,o),
(212,236,o),
(154,284,c),
(80,94,l),
(110,58,o),
(202,-18,o),
(420,-18,cs)
);
}
);
width = 874;
}
);
unicode = 115;
userData = {
KernOnName = s;
};
},
{
glyphname = germandbls;
lastChange = "2019-10-28 18:28:25 +0000";
layers = (
{
layerId = "B61D43DE-5272-4FF4-A680-608B6BF5ED9E";
shapes = (
{
closed = 1;
nodes = (
(1002,-10,o),
(1108,232,o),
(1108,474,cs),
(1108,700,o),
(946,854,o),
(746,854,c),
(746,836,l),
(900,836,o),
(996,996,o),
(996,1184,cs),
(996,1388,o),
(896,1552,o),
(600,1552,cs),
(410,1552,o),
(146,1418,o),
(146,1088,cs),
(146,0,l),
(398,0,l),
(398,1108,ls),
(398,1202,o),
(446,1356,o),
(588,1356,cs),
(668,1356,o),
(748,1326,o),
(748,1168,cs),
(748,932,o),
(636,898,o),
(552,898,c),
(552,712,l),
(746,712,o),
(836,616,o),
(836,450,cs),
(836,288,o),
(788,194,o),
(664,194,cs),
(612,194,o),
(576,200,o),
(544,212,c),
(566,12,l),
(610,-8,o),
(666,-10,o),
(696,-10,cs)
);
},
{
closed = 1;
nodes = (
(186,788,l),
(186,996,l),
(44,996,l),
(44,788,l)
);
}
);
width = 1188;
}
);
unicode = 223;
userData = {
com.typemytype.robofont.mark = (
0.6,
1,
0.628,
1
);
};
},
{
color = 6;
glyphname = longs;
lastChange = "2022-05-07 02:27:49 +0000";
layers = (
{
layerId = "B61D43DE-5272-4FF4-A680-608B6BF5ED9E";
shapes = (
{
closed = 1;
nodes = (
(404,0,l),
(404,1186,l),
(404,1320,o),
(488,1346,o),
(562,1346,cs),
(604,1346,o),
(676,1328,o),
(706,1290,c),
(706,1508,l),
(694,1520,o),
(630,1552,o),
(500,1552,cs),
(366,1552,o),
(162,1488,o),
(162,1180,c),
(162,0,l)
);
}
);
width = 698;
}
);
unicode = 383;
},
{
glyphname = t;
lastChange = "2023-11-10 06:07:35 +0000";
layers = (
{
anchors = (
{
name = bottom;
pos = (389,0);
},
{
name = car;
pos = (662,1660);
},
{
name = center;
pos = (389,498);
},
{
name = top;
pos = (389,996);
},
{
name = topright;
pos = (758,1954);
}
);
layerId = "B61D43DE-5272-4FF4-A680-608B6BF5ED9E";
shapes = (
{
closed = 1;
nodes = (
(542,-30,o),
(678,0,o),
(740,44,c),
(692,246,l),
(654,214,o),
(580,176,o),
(522,176,cs),
(464,176,o),
(430,214,o),
(430,330,cs),
(430,786,l),
(676,786,l),
(676,996,l),
(430,996,l),
(430,1300,l),
(212,1206,l),
(198,996,l),
(58,996,l),
(58,786,l),
(188,786,l),
(188,324,ls),
(188,86,o),
(250,-30,o),
(476,-30,cs)
);
}
);
width = 778;
}
);
unicode = 116;
userData = {
KernOnName = t;
};
},
{
glyphname = tbar;
lastChange = "2023-10-18 23:57:51 +0000";
layers = (
{
anchors = (
{
name = car;
pos = (658,1660);
}
);
layerId = "B61D43DE-5272-4FF4-A680-608B6BF5ED9E";
shapes = (
{
closed = 1;
nodes = (
(664,428,l),
(664,638,l),
(46,638,l),
(46,428,l)
);
},
{
closed = 1;
nodes = (
(538,-30,o),
(674,0,o),
(736,44,c),
(688,246,l),
(650,214,o),
(576,176,o),
(518,176,cs),
(460,176,o),
(426,214,o),
(426,330,cs),
(426,786,l),
(672,786,l),
(672,996,l),
(426,996,l),
(426,1300,l),
(208,1206,l),
(200,996,l),
(54,996,l),
(54,786,l),
(190,786,l),
(190,324,ls),
(190,86,o),
(246,-30,o),
(472,-30,cs)
);
}
);
width = 768;
}
);
unicode = 359;
},
{
glyphname = tdiagonalstroke;
lastChange = "2023-10-31 04:17:29 +0000";
layers = (
{
anchors = (
{
name = bottom;
pos = (389,0);
},
{
name = car;
pos = (662,1660);
},
{
name = center;
pos = (389,498);
},
{
name = top;
pos = (389,996);
},
{
name = topright;
pos = (758,1954);
}
);
layerId = "B61D43DE-5272-4FF4-A680-608B6BF5ED9E";
shapes = (
{
closed = 1;
nodes = (
(542,-30,o),
(678,0,o),
(740,44,c),
(692,246,l),
(654,214,o),
(580,176,o),
(522,176,cs),
(464,176,o),
(430,214,o),
(430,330,cs),
(430,786,l),
(676,786,l),
(676,996,l),
(430,996,l),
(430,1300,l),
(212,1206,l),
(198,996,l),
(58,996,l),
(58,786,l),
(188,786,l),
(188,324,ls),
(188,86,o),
(250,-30,o),
(476,-30,cs)
);
},
{
closed = 1;
nodes = (
(411,-186,l),
(698,1232,l),
(570,1232,l),
(284,-186,l)
);
}
);
width = 778;
}
);
unicode = 11366;
},
{
color = 4;
glyphname = thook;
lastChange = "2023-10-18 23:57:51 +0000";
layers = (
{
anchors = (
{
name = car;
pos = (662,1660);
}
);
layerId = "B61D43DE-5272-4FF4-A680-608B6BF5ED9E";
shapes = (
{
closed = 1;
nodes = (
(542,-30,o),
(678,0,o),
(740,44,c),
(692,246,l),
(654,214,o),
(580,176,o),
(522,176,cs),
(464,176,o),
(430,214,o),
(430,330,cs),
(430,786,l),
(676,786,l),
(676,996,l),
(430,996,l),
(430,1338,l),
(212,1206,l),
(212,996,l),
(58,996,l),
(58,786,l),
(188,786,l),
(188,324,ls),
(188,86,o),
(250,-30,o),
(476,-30,cs)
);
},
{
closed = 1;
nodes = (
(189,953,l),
(430,935,l),
(430,1149,l),
(430,1290,o),
(455,1333,o),
(579,1333,cs),
(611,1333,o),
(691,1307,o),
(731,1279,c),
(731,1515,l),
(689,1539,o),
(623,1552,o),
(557,1552,cs),
(273,1552,o),
(186,1416,o),
(188,1177,c)
);
}
);
width = 778;
}
);
unicode = 429;
},
{
color = 4;
glyphname = tretroflexhook;
lastChange = "2023-10-18 23:57:51 +0000";
layers = (
{
anchors = (
{
name = car;
pos = (662,1660);
}
);
layerId = "B61D43DE-5272-4FF4-A680-608B6BF5ED9E";
shapes = (
{
closed = 1;
nodes = (
(542,-276,o),
(678,-246,o),
(740,-202,c),
(692,0,l),
(654,-32,o),
(580,-70,o),
(522,-70,cs),
(464,-70,o),
(430,-32,o),
(430,84,cs),
(430,786,l),
(676,786,l),
(676,996,l),
(430,996,l),
(430,1300,l),
(212,1206,l),
(198,996,l),
(58,996,l),
(58,786,l),
(188,786,l),
(188,78,ls),
(188,-160,o),
(250,-276,o),
(476,-276,cs)
);
}
);
width = 778;
}
);
unicode = 648;
},
{
glyphname = u;
lastChange = "2023-11-10 06:07:35 +0000";
layers = (
{
anchors = (
{
name = bottom;
pos = (543,0);
},
{
name = ogonek;
pos = (977,10);
},
{
name = top;
pos = (543,996);
},
{
name = topright;
pos = (1066,996);
}
);
layerId = "B61D43DE-5272-4FF4-A680-608B6BF5ED9E";
shapes = (
{
closed = 1;
nodes = (
(610,-24,o),
(688,86,o),
(736,180,c),
(704,220,l),
(712,0,l),
(938,0,l),
(938,996,l),
(688,996,l),
(688,360,ls),
(688,250,o),
(616,174,o),
(522,174,cs),
(426,174,o),
(390,250,o),
(390,360,cs),
(390,996,l),
(140,996,l),
(140,338,ls),
(140,112,o),
(232,-24,o),
(434,-24,cs)
);
}
);
width = 1086;
}
);
unicode = 117;
userData = {
KernOnName = u;
};
},
{
glyphname = uhorn;
lastChange = "2023-10-19 00:44:48 +0000";
layers = (
{
anchors = (
{
name = bottom;
pos = (568,0);
},
{
name = top;
pos = (552,996);
}
);
layerId = "B61D43DE-5272-4FF4-A680-608B6BF5ED9E";
shapes = (
{
closed = 1;
nodes = (
(620,-24,o),
(708,86,o),
(756,180,c),
(724,220,l),
(732,0,l),
(958,0,l),
(958,996,l),
(708,996,l),
(708,360,ls),
(708,250,o),
(626,174,o),
(532,174,cs),
(436,174,o),
(390,250,o),
(390,360,cs),
(390,996,l),
(140,996,l),
(140,338,ls),
(140,112,o),
(232,-24,o),
(434,-24,cs)
);
},
{
closed = 1;
nodes = (
(986,886,o),
(1136,948,o),
(1136,1070,cs),
(1136,1170,o),
(1132,1200,o),
(1122,1232,c),
(924,1232,l),
(936,1200,o),
(940,1186,o),
(940,1132,cs),
(940,1038,o),
(858,996,o),
(760,996,c),
(888,886,l)
);
}
);
width = 1136;
}
);
unicode = 432;
},
{
color = 4;
glyphname = uogonek;
lastChange = "2023-10-18 23:57:51 +0000";
layers = (
{
layerId = "B61D43DE-5272-4FF4-A680-608B6BF5ED9E";
shapes = (
{
closed = 1;
nodes = (
(688,996,l),
(688,360,ls),
(688,250,o),
(616,174,o),
(522,174,cs),
(426,174,o),
(390,250,o),
(390,360,cs),
(390,996,l),
(140,996,l),
(140,338,ls),
(140,112,o),
(232,-24,o),
(434,-24,cs),
(579,-24,o),
(657,50,o),
(707,129,c),
(712,0,l),
(574,-46,o),
(472,-158,o),
(472,-256,cs),
(472,-398,o),
(580,-480,o),
(770,-480,cs),
(840,-480,o),
(898,-468,o),
(938,-448,c),
(938,-268,l),
(890,-292,o),
(868,-298,o),
(828,-298,cs),
(768,-298,o),
(716,-284,o),
(716,-216,cs),
(716,-130,o),
(816,-54,o),
(938,0,c),
(938,996,l)
);
}
);
width = 1086;
}
);
unicode = 371;
},
{
color = 1;
glyphname = "upsilon-latin";
lastChange = "2021-12-06 03:15:10 +0000";
layers = (
{
background = {
shapes = (
{
pos = (1,0);
ref = o;
}
);
};
layerId = "B61D43DE-5272-4FF4-A680-608B6BF5ED9E";
shapes = (
{
closed = 1;
nodes = (
(470,0,l),
(470,242,l),
(377,310,o),
(343,390,o),
(343,532,cs),
(343,663,o),
(373,822,o),
(548,822,cs),
(711,822,o),
(751,655,o),
(751,532,cs),
(751,390,o),
(716,310,o),
(623,242,c),
(624,0,l),
(1036,0,l),
(1036,208,l),
(804,186,l),
(859,222,o),
(1011,343,o),
(1011,566,cs),
(1011,837,o),
(822,1021,o),
(549,1021,cs),
(278,1021,o),
(83,841,o),
(83,566,cs),
(83,343,o),
(235,222,o),
(290,186,c),
(58,208,l),
(58,0,l)
);
}
);
width = 1094;
}
);
metricLeft = t;
metricRight = "=|";
unicode = 650;
},
{
glyphname = v;
lastChange = "2023-11-10 06:07:35 +0000";
layers = (
{
anchors = (
{
name = bottom;
pos = (471,0);
},
{
name = top;
pos = (471,996);
}
);
layerId = "B61D43DE-5272-4FF4-A680-608B6BF5ED9E";
shapes = (
{
closed = 1;
nodes = (
(570,0,l),
(954,996,l),
(690,996,l),
(524,498,l),
(484,334,l),
(440,498,l),
(268,996,l),
(-12,996,l),
(392,0,l)
);
}
);
width = 942;
}
);
unicode = 118;
userData = {
KernOnName = v;
};
},
{
color = 1;
glyphname = vhook;
lastChange = "2023-10-18 20:04:12 +0000";
layers = (
{
background = {
shapes = (
{
closed = 1;
nodes = (
(876,-24,o),
(968,112,o),
(968,338,cs),
(968,996,l),
(718,996,l),
(718,360,ls),
(718,250,o),
(666,174,o),
(570,174,cs),
(476,174,o),
(420,250,o),
(420,360,cs),
(420,996,l),
(170,996,l),
(173,341,l),
(173,123,o),
(314,-24,o),
(569,-24,cs)
);
}
);
};
layerId = "B61D43DE-5272-4FF4-A680-608B6BF5ED9E";
shapes = (
{
closed = 1;
nodes = (
(896,-24,o),
(1056,193,o),
(1057,421,cs),
(1058,850,ls),
(1058,1056,o),
(925,1132,o),
(760,1132,cs),
(615,1132,o),
(538,1076,o),
(507,1039,c),
(604,825,l),
(626,867,o),
(675,899,o),
(719,899,cs),
(775,899,o),
(805,877,o),
(813,824,c),
(813,468,ls),
(813,333,o),
(722,202,o),
(598,202,cs),
(472,202,o),
(385,253,o),
(385,388,cs),
(385,996,l),
(140,996,l),
(140,338,ls),
(140,112,o),
(292,-24,o),
(599,-24,cs)
);
}
);
width = 1198;
}
);
metricLeft = u;
metricRight = "=|";
unicode = 651;
},
{
color = 1;
glyphname = vturned;
lastChange = "2021-12-06 01:51:38 +0000";
layers = (
{
anchors = (
{
name = bottom;
pos = (472,-664);
}
);
layerId = "B61D43DE-5272-4FF4-A680-608B6BF5ED9E";
shapes = (
{
closed = 1;
nodes = (
(372,996,l),
(-12,0,l),
(252,0,l),
(418,498,l),
(458,662,l),
(502,498,l),
(674,0,l),
(954,0,l),
(550,996,l)
);
}
);
width = 942;
}
);
unicode = 652;
},
{
color = 3;
glyphname = w;
lastChange = "2023-11-10 06:07:35 +0000";
layers = (
{
anchors = (
{
name = bottom;
pos = (715,0);
},
{
name = top;
pos = (715,996);
}
);
layerId = "B61D43DE-5272-4FF4-A680-608B6BF5ED9E";
shapes = (
{
closed = 1;
nodes = (
(530,0,l),
(678,542,l),
(710,704,l),
(742,542,l),
(902,0,l),
(1104,0,l),
(1418,996,l),
(1172,996,l),
(1056,522,l),
(1010,312,l),
(958,522,l),
(820,996,l),
(612,996,l),
(482,522,l),
(438,312,l),
(386,522,l),
(266,996,l),
(12,996,l),
(330,0,l)
);
}
);
width = 1430;
}
);
unicode = 119;
userData = {
KernOnName = w;
com.typemytype.robofont.guides = (
{
angle = 0;
isGlobal = 0;
magnetic = 5;
x = 0;
y = 554;
},
{
angle = 90;
isGlobal = 0;
magnetic = 5;
x = -66;
y = 0;
}
);
com.typemytype.robofont.mark = (
0.6,
1,
0.628,
1
);
};
},
{
color = 1;
glyphname = whook;
lastChange = "2023-10-18 23:57:52 +0000";
layers = (
{
layerId = "B61D43DE-5272-4FF4-A680-608B6BF5ED9E";
shapes = (
{
closed = 1;
nodes = (
(530,0,l),
(678,542,l),
(710,704,l),
(742,542,l),
(902,0,l),
(1104,0,l),
(1333,694,l),
(1267,860,l),
(1100,709,l),
(1056,522,l),
(1010,312,l),
(958,522,l),
(820,996,l),
(612,996,l),
(482,522,l),
(438,312,l),
(386,522,l),
(266,996,l),
(12,996,l),
(330,0,l)
);
},
{
closed = 1;
nodes = (
(1354,769,o),
(1390,788,o),
(1451,788,cs),
(1505,788,o),
(1554,736,o),
(1576,694,c),
(1688,898,l),
(1657,935,o),
(1585,1021,o),
(1410,1021,cs),
(1245,1021,o),
(1158,915,o),
(1100,709,c),
(1333,694,l)
);
}
);
width = 1698;
}
);
metricLeft = w;
unicode = 11379;
},
{
glyphname = x;
lastChange = "2023-11-10 06:07:35 +0000";
layers = (
{
anchors = (
{
name = bottom;
pos = (475,0);
},
{
name = top;
pos = (475,996);
}
);
layerId = "B61D43DE-5272-4FF4-A680-608B6BF5ED9E";
shapes = (
{
closed = 1;
nodes = (
(300,0,l),
(424,268,l),
(460,358,l),
(504,268,l),
(648,0,l),
(930,0,l),
(714,380,l),
(642,500,l),
(714,626,l),
(914,996,l),
(648,996,l),
(530,744,l),
(478,628,l),
(428,744,l),
(308,996,l),
(24,996,l),
(228,618,l),
(304,490,l),
(230,368,l),
(24,0,l)
);
}
);
width = 950;
}
);
unicode = 120;
userData = {
KernOnName = x;
com.typemytype.robofont.guides = (
{
angle = 90;
isGlobal = 0;
magnetic = 5;
x = 233;
y = 0;
},
{
angle = 90;
isGlobal = 0;
magnetic = 5;
x = 731;
y = 0;
}
);
};
},
{
glyphname = y;
lastChange = "2023-11-10 06:07:35 +0000";
layers = (
{
anchors = (
{
name = bottom;
pos = (473,0);
},
{
name = top;
pos = (473,996);
}
);
layerId = "B61D43DE-5272-4FF4-A680-608B6BF5ED9E";
shapes = (
{
closed = 1;
nodes = (
(446,-378,l),
(954,996,l),
(692,996,l),
(542,552,l),
(478,322,l),
(414,552,l),
(266,996,l),
(-12,996,l),
(362,68,l),
(200,-378,l)
);
}
);
width = 946;
}
);
metricLeft = v;
unicode = 121;
userData = {
KernOnName = y;
};
},
{
color = 1;
glyphname = yhook;
lastChange = "2023-10-18 23:57:52 +0000";
layers = (
{
layerId = "B61D43DE-5272-4FF4-A680-608B6BF5ED9E";
shapes = (
{
closed = 1;
nodes = (
(446,-378,l),
(974,1067,l),
(880,1153,l),
(741,1093,l),
(542,552,l),
(478,322,l),
(414,552,l),
(266,996,l),
(-12,996,l),
(362,68,l),
(200,-378,l)
);
},
{
closed = 1;
nodes = (
(995,1142,o),
(1031,1161,o),
(1092,1161,cs),
(1146,1161,o),
(1195,1109,o),
(1217,1067,c),
(1329,1271,l),
(1298,1308,o),
(1226,1394,o),
(1051,1394,cs),
(886,1394,o),
(799,1288,o),
(741,1093,c),
(974,1067,l)
);
}
);
width = 946;
}
);
metricLeft = y;
unicode = 436;
},
{
glyphname = ystroke;
lastChange = "2023-10-31 04:11:12 +0000";
layers = (
{
anchors = (
{
name = bottom;
pos = (473,0);
},
{
name = top;
pos = (473,996);
}
);
layerId = "B61D43DE-5272-4FF4-A680-608B6BF5ED9E";
shapes = (
{
closed = 1;
nodes = (
(446,-378,l),
(954,996,l),
(692,996,l),
(542,552,l),
(478,322,l),
(414,552,l),
(266,996,l),
(-12,996,l),
(362,68,l),
(200,-378,l)
);
},
{
closed = 1;
nodes = (
(984,620,l),
(984,802,l),
(-49,802,l),
(-49,620,l)
);
}
);
width = 946;
}
);
unicode = 591;
},
{
glyphname = z;
lastChange = "2023-11-10 06:08:37 +0000";
layers = (
{
anchors = (
{
name = bottom;
pos = (444,0);
},
{
name = center;
pos = (452,505);
},
{
name = top;
pos = (444,996);
}
);
layerId = "B61D43DE-5272-4FF4-A680-608B6BF5ED9E";
shapes = (
{
closed = 1;
nodes = (
(822,0,l),
(822,182,l),
(336,182,l),
(366,98,l),
(862,996,l),
(110,996,l),
(110,806,l),
(532,806,l),
(532,904,l),
(26,0,l)
);
}
);
width = 888;
}
);
unicode = 122;
userData = {
KernOnName = z;
};
},
{
color = 1;
glyphname = saltillo;
lastChange = "2023-10-18 23:57:53 +0000";
layers = (
{
layerId = "B61D43DE-5272-4FF4-A680-608B6BF5ED9E";
shapes = (
{
closed = 1;
nodes = (
(410,820,l),
(410,1418,l),
(150,1418,l),
(150,820,l)
);
}
);
width = 560;
}
);
unicode = 42892;
},
{
glyphname = a.ss01;
lastChange = "2023-10-19 00:21:47 +0000";
layers = (
{
anchors = (
{
name = bottom;
pos = (557,0);
},
{
name = ogonek;
pos = (1003,10);
},
{
name = top;
pos = (557,996);
}
);
layerId = "B61D43DE-5272-4FF4-A680-608B6BF5ED9E";
shapes = (
{
closed = 1;
nodes = (
(606,-28,o),
(694,54,o),
(734,204,c),
(734,0,l),
(966,0,l),
(966,996,l),
(734,996,l),
(734,824,l),
(706,950,o),
(608,1020,o),
(470,1020,cs),
(210,1020,o),
(84,804,o),
(84,496,cs),
(84,180,o),
(230,-28,o),
(474,-28,cs)
);
},
{
closed = 1;
nodes = (
(422,170,o),
(346,276,o),
(346,496,cs),
(346,742,o),
(444,818,o),
(538,818,cs),
(660,818,o),
(718,700,o),
(718,492,cs),
(718,264,o),
(628,170,o),
(532,170,cs)
);
}
);
width = 1114;
}
);
metricLeft = o;
metricRight = u;
},
{
color = 4;
glyphname = aogonek.ss01;
lastChange = "2016-08-03 22:51:12 +0000";
layers = (
{
layerId = "B61D43DE-5272-4FF4-A680-608B6BF5ED9E";
shapes = (
{
closed = 1;
nodes = (
(868,-480,o),
(926,-468,o),
(966,-448,c),
(966,-268,l),
(918,-292,o),
(896,-298,o),
(856,-298,cs),
(796,-298,o),
(744,-284,o),
(744,-216,cs),
(744,-130,o),
(844,-54,o),
(966,0,c),
(836,66,l),
(734,0,l),
(596,-46,o),
(500,-158,o),
(500,-256,cs),
(500,-398,o),
(608,-480,o),
(798,-480,cs)
);
},
{
ref = a.ss01;
}
);
width = 1114;
}
);
metricLeft = o;
metricWidth = a.ss01;
},
{
glyphname = clickalveolar;
lastChange = "2023-11-10 04:40:05 +0000";
layers = (
{
layerId = "B61D43DE-5272-4FF4-A680-608B6BF5ED9E";
shapes = (
{
closed = 1;
nodes = (
(519,0,l),
(547,1538,l),
(273,1538,l),
(299,0,l)
);
},
{
closed = 1;
nodes = (
(786,1039,l),
(786,1235,l),
(38,1235,l),
(38,1039,l)
);
},
{
closed = 1;
nodes = (
(786,511,l),
(786,707,l),
(38,707,l),
(38,511,l)
);
}
);
width = 824;
}
);
metricLeft = "=|t";
metricRight = "=|";
unicode = 450;
},
{
glyphname = clickdental;
lastChange = "2023-11-10 04:38:55 +0000";
layers = (
{
layerId = "B61D43DE-5272-4FF4-A680-608B6BF5ED9E";
shapes = (
{
closed = 1;
nodes = (
(398,0,l),
(426,1538,l),
(152,1538,l),
(178,0,l)
);
}
);
width = 578;
}
);
metricLeft = l;
metricRight = l;
unicode = 448;
},
{
glyphname = clickretroflex;
lastChange = "2023-11-10 04:38:39 +0000";
layers = (
{
layerId = "B61D43DE-5272-4FF4-A680-608B6BF5ED9E";
shapes = (
{
closed = 1;
nodes = (
(426,506,l),
(454,1538,l),
(180,1538,l),
(206,506,l)
);
},
{
closed = 1;
nodes = (
(430,0,l),
(430,298,l),
(202,298,l),
(202,0,l)
);
}
);
width = 634;
}
);
unicode = 451;
},
{
color = 0;
glyphname = hmod;
lastChange = "2023-11-10 04:24:48 +0000";
layers = (
{
layerId = "B61D43DE-5272-4FF4-A680-608B6BF5ED9E";
shapes = (
{
closed = 1;
nodes = (
(444,693,l),
(444,1235,ls),
(444,1323,o),
(510,1382,o),
(580,1382,cs),
(650,1382,o),
(692,1323,o),
(692,1235,cs),
(692,693,l),
(938,693,l),
(938,1257,ls),
(938,1454,o),
(849,1572,o),
(671,1572,cs),
(556,1572,o),
(481,1528,o),
(432,1477,c),
(435,1562,l),
(435,1997,l),
(206,1997,l),
(206,693,l)
);
}
);
width = 1144;
}
);
unicode = 688;
},
{
color = 0;
glyphname = imod;
lastChange = "2023-11-10 04:24:41 +0000";
layers = (
{
layerId = "B61D43DE-5272-4FF4-A680-608B6BF5ED9E";
shapes = (
{
closed = 1;
nodes = (
(405,693,l),
(405,1552,l),
(155,1552,l),
(155,693,l)
);
},
{
closed = 1;
nodes = (
(413,1669,l),
(413,1913,l),
(147,1913,l),
(147,1669,l)
);
}
);
width = 560;
}
);
unicode = 8305;
},
{
color = 0;
glyphname = nmod;
lastChange = "2023-11-10 04:28:27 +0000";
layers = (
{
layerId = "B61D43DE-5272-4FF4-A680-608B6BF5ED9E";
shapes = (
{
closed = 1;
nodes = (
(444,693,l),
(444,1239,ls),
(444,1327,o),
(507,1386,o),
(577,1386,cs),
(648,1386,o),
(682,1327,o),
(682,1239,cs),
(682,693,l),
(928,693,l),
(928,1258,ls),
(928,1454,o),
(839,1573,o),
(660,1573,cs),
(548,1573,o),
(474,1526,o),
(427,1472,c),
(424,1553,l),
(198,1553,l),
(198,693,l)
);
}
);
width = 1118;
}
);
unicode = 8319;
},
{
color = 0;
glyphname = wmod;
lastChange = "2023-11-10 04:25:54 +0000";
layers = (
{
layerId = "B61D43DE-5272-4FF4-A680-608B6BF5ED9E";
shapes = (
{
closed = 1;
nodes = (
(571,693,l),
(699,1158,l),
(711,1220,l),
(723,1158,l),
(861,693,l),
(1055,693,l),
(1326,1553,l),
(1087,1553,l),
(987,1145,l),
(963,1031,l),
(934,1146,l),
(816,1553,l),
(616,1553,l),
(504,1145,l),
(481,1032,l),
(453,1145,l),
(350,1553,l),
(104,1553,l),
(378,693,l)
);
}
);
width = 1430;
}
);
unicode = 695;
},
{
color = 0;
glyphname = ymod;
lastChange = "2023-11-10 04:28:31 +0000";
layers = (
{
layerId = "B61D43DE-5272-4FF4-A680-608B6BF5ED9E";
shapes = (
{
closed = 1;
nodes = (
(462,374,l),
(897,1552,l),
(645,1552,l),
(517,1171,l),
(477,1029,l),
(437,1171,l),
(310,1552,l),
(45,1552,l),
(364,760,l),
(224,374,l)
);
}
);
width = 946;
}
);
unicode = 696;
},
{
glyphname = ordfeminine;
lastChange = "2023-10-19 00:56:07 +0000";
layers = (
{
layerId = "B61D43DE-5272-4FF4-A680-608B6BF5ED9E";
shapes = (
{
closed = 1;
nodes = (
(420,548,o),
(488,596,o),
(552,690,c),
(568,572,l),
(762,572,l),
(762,1112,ls),
(762,1296,o),
(690,1414,o),
(434,1414,cs),
(292,1414,o),
(166,1368,o),
(94,1324,c),
(166,1164,l),
(208,1208,o),
(308,1240,o),
(396,1240,cs),
(514,1240,o),
(544,1180,o),
(544,1098,c),
(544,1054,l),
(142,1054,o),
(62,890,o),
(62,790,cs),
(62,654,o),
(142,548,o),
(306,548,cs)
);
},
{
closed = 1;
nodes = (
(322,708,o),
(280,730,o),
(280,810,cs),
(280,900,o),
(406,928,o),
(504,928,cs),
(518,928,o),
(532,928,o),
(544,926,c),
(544,808,l),
(508,746,o),
(450,708,o),
(396,708,cs)
);
}
);
width = 842;
}
);
unicode = 170;
userData = {
KernOnSpecialSpacing = {
L = superiors;
R = superiors;
};
com.typemytype.robofont.mark = (
0.6,
1,
0.628,
1
);
};
},
{
glyphname = ordmasculine;
lastChange = "2023-10-19 00:56:07 +0000";
layers = (
{
layerId = "B61D43DE-5272-4FF4-A680-608B6BF5ED9E";
shapes = (
{
closed = 1;
nodes = (
(736,556,o),
(884,724,o),
(884,984,cs),
(884,1246,o),
(742,1414,o),
(480,1414,cs),
(216,1414,o),
(60,1256,o),
(60,984,cs),
(60,716,o),
(208,556,o),
(472,556,cs)
);
},
{
closed = 1;
nodes = (
(362,720,o),
(302,794,o),
(302,984,cs),
(302,1174,o),
(362,1250,o),
(476,1250,cs),
(586,1250,o),
(642,1160,o),
(642,984,cs),
(642,810,o),
(586,720,o),
(476,720,cs)
);
}
);
width = 944;
}
);
unicode = 186;
userData = {
KernOnSpecialSpacing = {
L = superiors;
R = superiors;
};
com.typemytype.robofont.mark = (
0.6,
1,
0.628,
1
);
};
},
{
glyphname = Delta;
lastChange = "2022-05-07 02:24:03 +0000";
layers = (
{
layerId = "B61D43DE-5272-4FF4-A680-608B6BF5ED9E";
shapes = (
{
closed = 1;
nodes = (
(1450,0,l),
(794,1470,l),
(128,0,l)
);
},
{
closed = 1;
nodes = (
(778,1006,l),
(1114,202,l),
(438,202,l)
);
}
);
width = 1570;
}
);
unicode = 916;
},
{
color = 0;
glyphname = Theta;
lastChange = "2023-11-10 05:37:39 +0000";
layers = (
{
layerId = "B61D43DE-5272-4FF4-A680-608B6BF5ED9E";
shapes = (
{
closed = 1;
nodes = (
(1032,-24,o),
(1238,260,o),
(1238,698,cs),
(1238,1126,o),
(1044,1418,o),
(654,1418,cs),
(280,1418,o),
(78,1132,o),
(78,698,cs),
(78,260,o),
(282,-24,o),
(660,-24,cs)
);
},
{
closed = 1;
nodes = (
(472,190,o),
(346,354,o),
(346,702,cs),
(346,1038,o),
(460,1210,o),
(654,1210,cs),
(852,1210,o),
(972,1038,o),
(972,704,cs),
(972,356,o),
(834,190,o),
(660,190,cs)
);
},
{
closed = 1;
nodes = (
(884,602,l),
(884,784,l),
(432,784,l),
(432,602,l)
);
}
);
width = 1316;
}
);
unicode = 920;
},
{
color = 0;
glyphname = Lambda;
lastChange = "2023-11-10 05:37:39 +0000";
layers = (
{
anchors = (
{
name = bottom;
pos = (567,0);
},
{
name = ogonek;
pos = (1021,10);
},
{
name = top;
pos = (567,1394);
}
);
layerId = "B61D43DE-5272-4FF4-A680-608B6BF5ED9E";
shapes = (
{
closed = 1;
nodes = (
(246,0,l),
(532,776,l),
(564,888,l),
(598,776,l),
(896,0,l),
(1168,0,l),
(576,1418,l),
(556,1418,l),
(-34,0,l)
);
}
);
width = 1134;
}
);
unicode = 923;
},
{
color = 0;
glyphname = Sigma;
lastChange = "2023-11-10 05:37:39 +0000";
layers = (
{
layerId = "B61D43DE-5272-4FF4-A680-608B6BF5ED9E";
shapes = (
{
closed = 1;
nodes = (
(990,0,l),
(990,220,l),
(220,220,l),
(352,116,l),
(674,703,l),
(384,1214,l),
(220,1162,l),
(950,1162,l),
(950,1394,l),
(20,1394,l),
(424,661,l),
(424,745,l),
(20,0,l)
);
}
);
width = 1060;
}
);
unicode = 931;
},
{
glyphname = Omega;
lastChange = "2022-05-07 02:24:03 +0000";
layers = (
{
layerId = "B61D43DE-5272-4FF4-A680-608B6BF5ED9E";
shapes = (
{
closed = 1;
nodes = (
(678,0,l),
(678,188,l),
(550,322,o),
(386,496,o),
(386,746,cs),
(386,954,o),
(490,1226,o),
(784,1226,cs),
(1076,1226,o),
(1180,942,o),
(1180,746,cs),
(1180,496,o),
(1016,322,o),
(888,188,c),
(888,0,l),
(1468,0,l),
(1468,230,l),
(1108,200,l),
(1184,250,o),
(1420,416,o),
(1420,776,cs),
(1420,1148,o),
(1160,1428,o),
(786,1428,cs),
(414,1428,o),
(146,1154,o),
(146,776,cs),
(146,416,o),
(382,250,o),
(458,200,c),
(98,230,l),
(98,0,l)
);
}
);
width = 1566;
}
);
unicode = 937;
},
{
color = 0;
glyphname = theta;
lastChange = "2023-11-10 05:37:39 +0000";
layers = (
{
background = {
shapes = (
{
pos = (-1,0);
ref = o;
}
);
};
layerId = "B61D43DE-5272-4FF4-A680-608B6BF5ED9E";
shapes = (
{
closed = 1;
nodes = (
(841,-24,o),
(1004,260,o),
(1004,698,cs),
(1004,1126,o),
(850,1418,o),
(541,1418,cs),
(244,1418,o),
(84,1132,o),
(84,698,cs),
(84,260,o),
(246,-24,o),
(546,-24,cs)
);
},
{
closed = 1;
nodes = (
(396,190,o),
(296,354,o),
(296,702,cs),
(296,1038,o),
(387,1210,o),
(541,1210,cs),
(698,1210,o),
(793,1038,o),
(793,704,cs),
(793,356,o),
(684,190,o),
(546,190,cs)
);
},
{
closed = 1;
nodes = (
(820,602,l),
(820,784,l),
(268,784,l),
(268,602,l)
);
}
);
width = 1088;
}
);
metricLeft = o;
metricRight = o;
unicode = 952;
},
{
color = 0;
glyphname = lambda;
lastChange = "2023-11-10 04:52:31 +0000";
layers = (
{
anchors = (
{
name = bottom;
pos = (473,0);
},
{
name = top;
pos = (473,996);
}
);
layerId = "B61D43DE-5272-4FF4-A680-608B6BF5ED9E";
shapes = (
{
closed = 1;
nodes = (
(362,928,l),
(-12,0,l),
(266,0,l),
(414,444,l),
(478,674,l),
(542,444,l),
(692,0,l),
(954,0,l),
(446,1374,l),
(200,1374,l)
);
}
);
width = 946;
}
);
unicode = 955;
},
{
glyphname = mu;
lastChange = "2021-12-06 03:11:51 +0000";
layers = (
{
layerId = "B61D43DE-5272-4FF4-A680-608B6BF5ED9E";
shapes = (
{
closed = 1;
nodes = (
(374,-436,l),
(374,152,l),
(374,14,o),
(474,-20,o),
(568,-20,cs),
(694,-20,o),
(756,88,o),
(768,178,c),
(768,106,o),
(796,28,o),
(838,0,c),
(1060,0,l),
(1016,42,o),
(974,170,o),
(974,292,cs),
(974,996,l),
(734,996,l),
(734,432,ls),
(734,322,o),
(672,212,o),
(568,212,cs),
(462,212,o),
(396,302,o),
(396,418,cs),
(396,996,l),
(156,996,l),
(156,-436,l)
);
}
);
width = 1116;
}
);
metricLeft = h;
unicode = 956;
userData = {
com.typemytype.robofont.mark = (
0.6,
1,
0.628,
1
);
};
},
{
glyphname = pi;
lastChange = "2021-12-06 03:11:51 +0000";
layers = (
{
layerId = "B61D43DE-5272-4FF4-A680-608B6BF5ED9E";
shapes = (
{
closed = 1;
nodes = (
(444,0,l),
(468,124,o),
(482,346,o),
(490,518,cs),
(502,772,l),
(744,772,l),
(750,320,ls),
(754,82,o),
(786,26,o),
(820,0,c),
(1084,0,l),
(1036,58,o),
(984,192,o),
(976,448,cs),
(966,772,l),
(1160,772,l),
(1176,996,l),
(272,996,ls),
(128,996,o),
(58,948,o),
(20,898,c),
(120,722,l),
(162,764,o),
(188,772,o),
(284,772,c),
(260,526,ls),
(242,350,o),
(218,144,o),
(182,0,c)
);
}
);
width = 1196;
}
);
unicode = 960;
userData = {
com.typemytype.robofont.mark = (
0.6,
1,
0.628,
1
);
};
},
{
glyphname = chi;
lastChange = "2023-11-10 01:38:45 +0000";
layers = (
{
anchors = (
{
name = bottom;
pos = (567,0);
},
{
name = top;
pos = (567,1394);
}
);
layerId = "B61D43DE-5272-4FF4-A680-608B6BF5ED9E";
shapes = (
{
closed = 1;
nodes = (
(318,0,l),
(546,514,l),
(570,460,l),
(660,264,ls),
(752,64,o),
(838,-16,o),
(972,-16,cs),
(1049,-16,o),
(1080,-3,o),
(1125,28,c),
(1125,246,l),
(1095,208,o),
(1053,200,o),
(1034,200,cs),
(960,200,o),
(933,227,o),
(876,350,cs),
(713,698,l),
(1074,1394,l),
(780,1394,l),
(567,902,l),
(445,1192,ls),
(387,1330,o),
(301,1406,o),
(167,1406,cs),
(110,1406,o),
(59,1393,o),
(14,1362,c),
(14,1144,l),
(44,1173,o),
(86,1181,o),
(105,1181,cs),
(179,1181,o),
(204,1154,o),
(255,1040,cs),
(396,723,l),
(20,0,l)
);
}
);
width = 1134;
}
);
unicode = 967;
},
{
color = 0;
glyphname = amod;
lastChange = "2023-11-10 04:27:57 +0000";
layers = (
{
layerId = "B61D43DE-5272-4FF4-A680-608B6BF5ED9E";
shapes = (
{
closed = 1;
nodes = (
(468,669,o),
(548,709,o),
(606,784,c),
(617,693,l),
(826,693,l),
(826,1254,ls),
(826,1444,o),
(752,1573,o),
(493,1573,cs),
(344,1573,o),
(217,1519,o),
(152,1473,c),
(233,1279,l),
(257,1334,o),
(361,1376,o),
(457,1376,cs),
(565,1376,o),
(592,1321,o),
(592,1241,cs),
(592,1212,l),
(209,1208,o),
(124,1036,o),
(124,932,cs),
(124,790,o),
(203,669,o),
(368,669,cs)
);
},
{
closed = 1;
nodes = (
(392,851,o),
(363,876,o),
(363,952,cs),
(363,1037,o),
(477,1062,o),
(567,1062,cs),
(592,1062,l),
(592,952,l),
(559,891,o),
(499,851,o),
(457,851,cs)
);
}
);
width = 994;
}
);
unicode = 7491;
},
{
color = 0;
glyphname = eOpenmod;
lastChange = "2023-11-10 04:26:40 +0000";
layers = (
{
layerId = "B61D43DE-5272-4FF4-A680-608B6BF5ED9E";
shapes = (
{
closed = 1;
nodes = (
(576,677,o),
(669,702,o),
(750,753,c),
(679,938,l),
(624,887,o),
(560,857,o),
(481,857,cs),
(367,857,o),
(321,903,o),
(321,953,cs),
(321,1029,o),
(408,1042,o),
(514,1042,cs),
(594,1042,l),
(594,1212,l),
(505,1212,ls),
(401,1212,o),
(353,1262,o),
(353,1314,cs),
(353,1369,o),
(416,1391,o),
(481,1391,cs),
(555,1391,o),
(626,1365,o),
(679,1314,c),
(750,1495,l),
(680,1541,o),
(581,1572,o),
(465,1572,cs),
(260,1572,o),
(129,1490,o),
(129,1349,cs),
(129,1270,o),
(187,1175,o),
(273,1135,c),
(171,1114,o),
(102,1027,o),
(102,938,cs),
(102,773,o),
(260,677,o),
(465,677,cs)
);
}
);
width = 810;
}
);
unicode = 7499;
},
{
color = 0;
glyphname = emod;
lastChange = "2023-11-10 04:28:02 +0000";
layers = (
{
layerId = "B61D43DE-5272-4FF4-A680-608B6BF5ED9E";
shapes = (
{
closed = 1;
nodes = (
(728,672,o),
(826,731,o),
(867,758,c),
(787,951,l),
(762,896,o),
(657,852,o),
(582,852,cs),
(458,852,o),
(398,923,o),
(389,1045,c),
(894,1045,l),
(894,1053,o),
(894,1061,o),
(895,1070,cs),
(897,1146,ls),
(897,1418,o),
(804,1574,o),
(543,1574,cs),
(279,1574,o),
(137,1361,o),
(137,1114,cs),
(137,877,o),
(253,672,o),
(547,672,cs)
);
},
{
closed = 1;
nodes = (
(396,1308,o),
(448,1394,o),
(548,1394,cs),
(607,1394,o),
(651,1357,o),
(653,1196,c),
(387,1196,l)
);
}
);
width = 1038;
}
);
unicode = 7497;
},
{
color = 0;
glyphname = istrokemod;
lastChange = "2023-11-10 04:28:05 +0000";
layers = (
{
layerId = "B61D43DE-5272-4FF4-A680-608B6BF5ED9E";
shapes = (
{
closed = 1;
nodes = (
(486,693,l),
(486,1076,l),
(647,1076,l),
(647,1249,l),
(486,1249,l),
(486,1552,l),
(237,1552,l),
(237,1249,l),
(77,1249,l),
(77,1076,l),
(237,1076,l),
(237,693,l)
);
},
{
closed = 1;
nodes = (
(494,1669,l),
(494,1913,l),
(228,1913,l),
(228,1669,l)
);
}
);
width = 724;
}
);
unicode = 7588;
},
{
color = 0;
glyphname = oOpenmod;
lastChange = "2023-11-10 04:28:08 +0000";
layers = (
{
layerId = "B61D43DE-5272-4FF4-A680-608B6BF5ED9E";
shapes = (
{
closed = 1;
nodes = (
(632,671,o),
(771,888,o),
(771,1124,cs),
(771,1364,o),
(651,1571,o),
(373,1571,cs),
(221,1571,o),
(116,1498,o),
(92,1468,c),
(168,1291,l),
(196,1334,o),
(261,1379,o),
(349,1379,cs),
(461,1379,o),
(518,1306,o),
(518,1123,cs),
(518,952,o),
(463,866,o),
(349,866,cs),
(288,866,o),
(206,901,o),
(182,971,c),
(99,755,l),
(176,688,o),
(260,671,o),
(361,671,cs)
);
}
);
width = 902;
}
);
unicode = 7507;
},
{
color = 0;
glyphname = omod;
lastChange = "2023-11-10 04:28:14 +0000";
layers = (
{
layerId = "B61D43DE-5272-4FF4-A680-608B6BF5ED9E";
shapes = (
{
closed = 1;
nodes = (
(802,675,o),
(947,852,o),
(947,1123,cs),
(947,1394,o),
(808,1571,o),
(551,1571,cs),
(293,1571,o),
(141,1404,o),
(141,1123,cs),
(141,843,o),
(287,675,o),
(544,675,cs)
);
},
{
closed = 1;
nodes = (
(452,863,o),
(395,933,o),
(395,1123,cs),
(395,1313,o),
(452,1384,o),
(547,1384,cs),
(640,1384,o),
(693,1298,o),
(693,1123,cs),
(693,948,o),
(640,863,o),
(547,863,cs)
);
}
);
width = 1088;
}
);
unicode = 7506;
},
{
color = 0;
glyphname = ubarmod;
lastChange = "2023-11-10 04:27:12 +0000";
layers = (
{
layerId = "B61D43DE-5272-4FF4-A680-608B6BF5ED9E";
shapes = (
{
closed = 1;
nodes = (
(616,673,o),
(683,718,o),
(727,770,c),
(729,693,l),
(950,693,l),
(950,1076,l),
(1144,1076,l),
(1144,1249,l),
(950,1249,l),
(950,1553,l),
(709,1553,l),
(709,1249,l),
(488,1249,l),
(488,1553,l),
(247,1553,l),
(247,1249,l),
(120,1249,l),
(120,1076,l),
(247,1076,l),
(247,988,ls),
(247,792,o),
(330,673,o),
(510,673,cs)
);
},
{
closed = 1;
nodes = (
(514,860,o),
(488,919,o),
(488,1007,cs),
(488,1076,l),
(709,1076,l),
(709,1007,ls),
(709,919,o),
(653,860,o),
(584,860,cs)
);
}
);
width = 1277;
}
);
unicode = 7606;
},
{
color = 0;
glyphname = umod;
lastChange = "2023-11-10 04:27:45 +0000";
layers = (
{
layerId = "B61D43DE-5272-4FF4-A680-608B6BF5ED9E";
shapes = (
{
closed = 1;
nodes = (
(557,673,o),
(624,718,o),
(668,771,c),
(670,693,l),
(890,693,l),
(890,1553,l),
(650,1553,l),
(650,1007,ls),
(650,919,o),
(594,860,o),
(525,860,cs),
(455,860,o),
(428,919,o),
(428,1007,cs),
(428,1553,l),
(188,1553,l),
(188,988,ls),
(188,792,o),
(271,673,o),
(450,673,cs)
);
}
);
width = 1086;
}
);
unicode = 7512;
},
{
color = 0;
glyphname = vmod;
lastChange = "2023-11-10 04:27:39 +0000";
layers = (
{
layerId = "B61D43DE-5272-4FF4-A680-608B6BF5ED9E";
shapes = (
{
closed = 1;
nodes = (
(566,693,l),
(897,1553,l),
(644,1553,l),
(502,1126,l),
(481,1044,l),
(459,1126,l),
(312,1553,l),
(45,1553,l),
(393,693,l)
);
}
);
width = 942;
}
);
unicode = 7515;
},
{
color = 0;
glyphname = zmod;
lastChange = "2023-11-10 04:27:36 +0000";
layers = (
{
layerId = "B61D43DE-5272-4FF4-A680-608B6BF5ED9E";
shapes = (
{
closed = 1;
nodes = (
(778,693,l),
(778,867,l),
(438,867,l),
(817,1553,l),
(147,1553,l),
(147,1373,l),
(451,1373,l),
(71,693,l)
);
}
);
width = 888;
}
);
unicode = 7611;
},
{
glyphname = zero;
lastChange = "2019-10-28 18:28:25 +0000";
layers = (
{
layerId = "B61D43DE-5272-4FF4-A680-608B6BF5ED9E";
shapes = (
{
closed = 1;
nodes = (
(944,-36,o),
(1088,266,o),
(1088,694,cs),
(1088,1192,o),
(902,1428,o),
(580,1428,cs),
(258,1428,o),
(72,1192,o),
(72,694,cs),
(72,266,o),
(216,-36,o),
(580,-36,cs)
);
},
{
closed = 1;
nodes = (
(410,178,o),
(352,404,o),
(352,696,cs),
(352,1004,o),
(412,1218,o),
(582,1218,cs),
(750,1218,o),
(808,1004,o),
(808,696,cs),
(808,404,o),
(754,178,o),
(582,178,cs)
);
}
);
width = 1160;
}
);
unicode = 48;
},
{
glyphname = one;
lastChange = "2019-10-28 18:28:25 +0000";
layers = (
{
layerId = "B61D43DE-5272-4FF4-A680-608B6BF5ED9E";
shapes = (
{
closed = 1;
nodes = (
(448,0,l),
(448,1430,l),
(178,1304,l),
(178,0,l)
);
}
);
width = 626;
}
);
unicode = 49;
},
{
glyphname = two;
lastChange = "2019-10-28 18:28:25 +0000";
layers = (
{
background = {
shapes = (
{
closed = 1;
nodes = (
(402,374,o),
(522,418,o),
(692,528,cs),
(856,634,o),
(1016,774,o),
(1016,1030,cs),
(1016,1284,o),
(818,1428,o),
(570,1428,cs),
(298,1428,o),
(110,1256,o),
(78,1048,c),
(290,948,l),
(314,1100,o),
(404,1206,o),
(552,1206,cs),
(694,1206,o),
(756,1110,o),
(756,1006,cs),
(756,792,o),
(546,706,o),
(408,618,cs),
(166,464,o),
(112,322,o),
(112,140,cs),
(112,82,o),
(118,42,o),
(126,0,c),
(1024,0,l),
(1024,228,l),
(374,228,l)
);
}
);
};
layerId = "B61D43DE-5272-4FF4-A680-608B6BF5ED9E";
shapes = (
{
closed = 1;
nodes = (
(396,348,o),
(480,398,o),
(606,474,cs),
(872,634,o),
(1016,770,o),
(1016,1030,cs),
(1016,1284,o),
(818,1428,o),
(570,1428,cs),
(298,1428,o),
(110,1256,o),
(78,1048,c),
(290,948,l),
(314,1100,o),
(404,1206,o),
(552,1206,cs),
(694,1206,o),
(756,1110,o),
(756,1006,cs),
(756,824,o),
(604,734,o),
(474,658,cs),
(238,520,o),
(112,394,o),
(112,140,cs),
(112,82,o),
(118,42,o),
(126,0,c),
(1024,0,l),
(1024,228,l),
(374,228,l)
);
}
);
width = 1122;
}
);
unicode = 50;
},
{
color = 3;
glyphname = three;
lastChange = "2019-10-28 18:28:25 +0000";
layers = (
{
layerId = "B61D43DE-5272-4FF4-A680-608B6BF5ED9E";
shapes = (
{
closed = 1;
nodes = (
(780,-30,o),
(1012,128,o),
(1012,392,cs),
(1012,560,o),
(912,720,o),
(742,720,c),
(890,758,o),
(974,918,o),
(974,1070,cs),
(974,1298,o),
(798,1428,o),
(522,1428,cs),
(312,1428,o),
(158,1362,o),
(76,1290,c),
(176,1078,l),
(248,1158,o),
(390,1200,o),
(468,1200,cs),
(612,1200,o),
(694,1162,o),
(694,1030,cs),
(694,908,o),
(616,818,o),
(452,818,cs),
(344,818,l),
(344,620,l),
(450,620,ls),
(596,620,o),
(730,584,o),
(730,422,cs),
(730,294,o),
(648,198,o),
(468,198,cs),
(362,198,o),
(244,240,o),
(168,314,c),
(84,86,l),
(196,6,o),
(342,-30,o),
(494,-30,cs)
);
}
);
width = 1090;
}
);
unicode = 51;
},
{
glyphname = four;
lastChange = "2023-11-10 06:07:35 +0000";
layers = (
{
layerId = "B61D43DE-5272-4FF4-A680-608B6BF5ED9E";
shapes = (
{
closed = 1;
nodes = (
(1002,0,l),
(1002,1394,l),
(762,1394,l),
(752,432,l),
(740,316,l),
(740,0,l)
);
},
{
closed = 1;
nodes = (
(80,252,l),
(1170,252,l),
(1170,446,l),
(422,446,l),
(536,694,l),
(818,1394,l),
(580,1394,l),
(66,274,l)
);
}
);
width = 1222;
}
);
unicode = 52;
userData = {
KernOnName = four;
};
},
{
glyphname = five;
lastChange = "2019-10-28 18:28:25 +0000";
layers = (
{
layerId = "B61D43DE-5272-4FF4-A680-608B6BF5ED9E";
shapes = (
{
closed = 1;
nodes = (
(786,-26,o),
(1010,166,o),
(1010,478,cs),
(1010,740,o),
(860,908,o),
(578,908,cs),
(506,908,o),
(448,902,o),
(386,884,c),
(406,1182,l),
(950,1182,l),
(950,1394,l),
(178,1394,l),
(152,648,l),
(194,674,o),
(324,712,o),
(436,712,cs),
(630,712,o),
(740,610,o),
(740,452,cs),
(740,214,o),
(554,192,o),
(426,192,cs),
(332,192,o),
(222,234,o),
(164,288,c),
(90,64,l),
(188,-2,o),
(338,-26,o),
(460,-26,cs)
);
}
);
width = 1092;
}
);
unicode = 53;
},
{
glyphname = six;
lastChange = "2019-10-28 18:28:25 +0000";
layers = (
{
background = {
shapes = (
{
closed = 1;
nodes = (
(956,-30,o),
(1162,166,o),
(1162,474,cs),
(1162,716,o),
(1014,914,o),
(744,914,cs),
(598,914,o),
(456,854,o),
(384,716,c),
(384,738,o),
(384,762,o),
(386,790,cs),
(400,996,o),
(530,1210,o),
(738,1210,cs),
(812,1210,o),
(914,1192,o),
(968,1134,c),
(1066,1326,l),
(1002,1388,o),
(912,1428,o),
(724,1428,cs),
(372,1428,o),
(116,1140,o),
(116,672,cs),
(116,146,o),
(386,-30,o),
(648,-30,cs)
);
},
{
closed = 1;
nodes = (
(538,176,o),
(442,264,o),
(422,406,cs),
(418,430,o),
(414,452,o),
(414,472,c),
(422,602,o),
(552,710,o),
(684,710,cs),
(828,710,o),
(894,606,o),
(894,450,cs),
(894,278,o),
(788,176,o),
(662,176,cs)
);
}
);
};
layerId = "B61D43DE-5272-4FF4-A680-608B6BF5ED9E";
shapes = (
{
closed = 1;
nodes = (
(956,-30,o),
(1162,166,o),
(1162,474,cs),
(1162,716,o),
(1014,914,o),
(744,914,cs),
(598,914,o),
(456,854,o),
(384,716,c),
(384,738,o),
(384,762,o),
(386,790,cs),
(400,996,o),
(530,1210,o),
(738,1210,cs),
(812,1210,o),
(914,1192,o),
(968,1134,c),
(1066,1326,l),
(1002,1388,o),
(912,1428,o),
(724,1428,cs),
(372,1428,o),
(116,1140,o),
(116,672,cs),
(116,146,o),
(386,-30,o),
(648,-30,cs)
);
},
{
closed = 1;
nodes = (
(506,176,o),
(414,314,o),
(414,472,c),
(422,602,o),
(552,710,o),
(684,710,cs),
(828,710,o),
(894,606,o),
(894,450,cs),
(894,278,o),
(788,176,o),
(662,176,cs)
);
}
);
width = 1246;
}
);
unicode = 54;
},
{
glyphname = seven;
lastChange = "2019-10-28 18:28:25 +0000";
layers = (
{
layerId = "B61D43DE-5272-4FF4-A680-608B6BF5ED9E";
shapes = (
{
closed = 1;
nodes = (
(554,0,l),
(1004,1394,l),
(90,1394,l),
(90,1158,l),
(818,1158,l),
(716,1294,l),
(268,0,l)
);
}
);
width = 1054;
}
);
unicode = 55;
},
{
glyphname = eight;
lastChange = "2019-10-28 18:28:25 +0000";
layers = (
{
layerId = "B61D43DE-5272-4FF4-A680-608B6BF5ED9E";
shapes = (
{
closed = 1;
nodes = (
(870,-36,o),
(1144,80,o),
(1144,382,cs),
(1144,580,o),
(1006,702,o),
(812,746,c),
(820,706,l),
(974,758,o),
(1084,874,o),
(1084,1066,cs),
(1084,1330,o),
(852,1428,o),
(622,1428,cs),
(390,1428,o),
(154,1330,o),
(154,1066,cs),
(154,872,o),
(256,756,o),
(418,706,c),
(424,746,l),
(232,700,o),
(94,580,o),
(94,382,cs),
(94,80,o),
(368,-36,o),
(620,-36,cs)
);
},
{
closed = 1;
nodes = (
(466,166,o),
(382,238,o),
(382,386,cs),
(382,566,o),
(504,624,o),
(620,624,cs),
(734,624,o),
(854,566,o),
(854,386,cs),
(854,238,o),
(772,166,o),
(620,166,cs)
);
},
{
closed = 1;
nodes = (
(500,820,o),
(422,904,o),
(422,1048,cs),
(422,1178,o),
(488,1244,o),
(624,1244,cs),
(758,1244,o),
(818,1178,o),
(818,1048,cs),
(818,904,o),
(748,820,o),
(624,820,cs)
);
}
);
width = 1238;
}
);
unicode = 56;
},
{
glyphname = nine;
lastChange = "2019-10-28 18:28:25 +0000";
layers = (
{
layerId = "B61D43DE-5272-4FF4-A680-608B6BF5ED9E";
shapes = (
{
closed = 1;
nodes = (
(906,-30,o),
(1162,258,o),
(1162,726,cs),
(1162,1252,o),
(878,1428,o),
(640,1428,cs),
(332,1428,o),
(116,1240,o),
(116,932,cs),
(116,690,o),
(264,484,o),
(534,484,cs),
(680,484,o),
(828,544,o),
(900,682,c),
(900,660,o),
(900,636,o),
(898,608,cs),
(888,366,o),
(748,196,o),
(540,196,cs),
(466,196,o),
(364,214,o),
(310,272,c),
(212,72,l),
(276,10,o),
(366,-30,o),
(554,-30,cs)
);
},
{
closed = 1;
nodes = (
(456,688,o),
(384,800,o),
(384,956,cs),
(384,1128,o),
(508,1222,o),
(634,1222,cs),
(784,1222,o),
(864,1082,o),
(864,926,c),
(856,796,o),
(732,688,o),
(600,688,cs)
);
}
);
width = 1246;
}
);
unicode = 57;
},
{
glyphname = zero.zero;
lastChange = "2022-05-10 16:28:28 +0000";
layers = (
{
layerId = "B61D43DE-5272-4FF4-A680-608B6BF5ED9E";
shapes = (
{
closed = 1;
nodes = (
(486,178,l),
(838,1218,l),
(680,1218,l),
(328,178,l)
);
},
{
ref = zero;
}
);
width = 1160;
}
);
metricLeft = zero;
metricRight = zero;
},
{
glyphname = zero.osf;
lastChange = "2023-10-18 20:04:12 +0000";
layers = (
{
layerId = "B61D43DE-5272-4FF4-A680-608B6BF5ED9E";
shapes = (
{
closed = 1;
nodes = (
(944,-36,o),
(1088,266,o),
(1088,606,cs),
(1088,1026,o),
(902,1264,o),
(580,1264,cs),
(258,1264,o),
(72,1026,o),
(72,606,cs),
(72,266,o),
(216,-36,o),
(580,-36,cs)
);
},
{
closed = 1;
nodes = (
(408,178,o),
(350,404,o),
(350,608,cs),
(350,848,o),
(410,1054,o),
(580,1054,cs),
(748,1054,o),
(810,916,o),
(810,608,cs),
(810,404,o),
(752,178,o),
(580,178,cs)
);
}
);
width = 1164;
}
);
},
{
glyphname = one.osf;
lastChange = "2022-05-07 02:24:03 +0000";
layers = (
{
layerId = "B61D43DE-5272-4FF4-A680-608B6BF5ED9E";
shapes = (
{
closed = 1;
nodes = (
(828,0,l),
(828,196,l),
(600,196,l),
(600,1240,l),
(100,1186,l),
(100,956,l),
(330,986,l),
(330,196,l),
(70,196,l),
(70,0,l)
);
}
);
width = 878;
}
);
},
{
glyphname = two.osf;
lastChange = "2022-05-07 02:24:03 +0000";
layers = (
{
background = {
shapes = (
{
closed = 1;
nodes = (
(398,294,o),
(502,346,o),
(658,444,cs),
(822,548,o),
(970,696,o),
(970,866,cs),
(970,1116,o),
(822,1264,o),
(544,1264,cs),
(318,1264,o),
(154,1138,o),
(84,1000,c),
(266,848,l),
(304,944,o),
(388,1036,o),
(518,1036,cs),
(652,1036,o),
(702,970,o),
(702,866,cs),
(702,720,o),
(512,608,o),
(374,520,cs),
(132,366,o),
(78,250,o),
(78,140,cs),
(78,82,o),
(84,42,o),
(92,0,c),
(990,0,l),
(990,222,l),
(366,222,l)
);
}
);
};
layerId = "B61D43DE-5272-4FF4-A680-608B6BF5ED9E";
shapes = (
{
closed = 1;
nodes = (
(392,282,o),
(470,330,o),
(586,400,cs),
(814,538,o),
(970,668,o),
(970,866,cs),
(970,1116,o),
(814,1264,o),
(536,1264,cs),
(310,1264,o),
(158,1148,o),
(84,1000,c),
(266,848,l),
(304,944,o),
(392,1036,o),
(518,1036,cs),
(652,1036,o),
(702,970,o),
(702,866,cs),
(702,720,o),
(512,604,o),
(374,520,cs),
(128,370,o),
(78,250,o),
(78,140,cs),
(78,82,o),
(84,42,o),
(92,0,c),
(990,0,l),
(990,222,l),
(366,222,l)
);
}
);
width = 1088;
}
);
metricLeft = two;
metricRight = two;
},
{
color = 3;
glyphname = three.osf;
lastChange = "2022-05-07 02:24:03 +0000";
layers = (
{
layerId = "B61D43DE-5272-4FF4-A680-608B6BF5ED9E";
shapes = (
{
closed = 1;
nodes = (
(784,-196,o),
(1016,-38,o),
(1016,226,cs),
(1016,394,o),
(912,554,o),
(742,554,c),
(890,592,o),
(974,752,o),
(974,904,cs),
(974,1132,o),
(798,1262,o),
(522,1262,cs),
(354,1262,o),
(158,1196,o),
(76,1124,c),
(176,912,l),
(248,992,o),
(390,1034,o),
(468,1034,cs),
(612,1034,o),
(694,996,o),
(694,864,cs),
(694,742,o),
(616,652,o),
(452,652,cs),
(344,652,l),
(344,458,l),
(450,458,ls),
(596,458,o),
(734,418,o),
(734,256,cs),
(734,128,o),
(652,32,o),
(472,32,cs),
(366,32,o),
(248,74,o),
(172,148,c),
(88,-80,l),
(200,-160,o),
(346,-196,o),
(498,-196,cs)
);
}
);
width = 1094;
}
);
metricLeft = three;
metricRight = three;
},
{
glyphname = four.osf;
lastChange = "2022-05-10 16:28:28 +0000";
layers = (
{
layerId = "B61D43DE-5272-4FF4-A680-608B6BF5ED9E";
shapes = (
{
closed = 1;
nodes = (
(1106,0,l),
(1106,224,l),
(406,224,l),
(494,584,l),
(668,1232,l),
(402,1232,l),
(72,0,l)
);
},
{
closed = 1;
nodes = (
(952,-312,l),
(952,606,l),
(704,606,l),
(684,64,l),
(684,-312,l)
);
}
);
width = 1166;
}
);
},
{
glyphname = five.osf;
lastChange = "2022-05-07 02:24:03 +0000";
layers = (
{
layerId = "B61D43DE-5272-4FF4-A680-608B6BF5ED9E";
shapes = (
{
closed = 1;
nodes = (
(786,-212,o),
(1010,-20,o),
(1010,292,cs),
(1010,554,o),
(860,722,o),
(578,722,cs),
(506,722,o),
(448,716,o),
(386,698,c),
(406,1020,l),
(950,1020,l),
(950,1232,l),
(178,1232,l),
(152,462,l),
(194,488,o),
(324,526,o),
(436,526,cs),
(630,526,o),
(740,424,o),
(740,266,cs),
(740,28,o),
(554,6,o),
(426,6,cs),
(332,6,o),
(222,48,o),
(164,102,c),
(90,-122,l),
(188,-188,o),
(338,-212,o),
(460,-212,cs)
);
}
);
width = 1092;
}
);
metricLeft = five;
metricRight = five;
},
{
glyphname = six.osf;
lastChange = "2022-05-07 02:24:03 +0000";
layers = (
{
layerId = "B61D43DE-5272-4FF4-A680-608B6BF5ED9E";
shapes = (
{
closed = 1;
nodes = (
(964,-30,o),
(1154,166,o),
(1154,474,cs),
(1154,716,o),
(1008,914,o),
(744,914,cs),
(598,914,o),
(460,854,o),
(388,716,c),
(388,738,o),
(390,762,o),
(390,790,cs),
(398,1030,o),
(530,1210,o),
(738,1210,cs),
(812,1210,o),
(908,1192,o),
(962,1134,c),
(1060,1326,l),
(996,1388,o),
(906,1428,o),
(724,1428,cs),
(372,1428,o),
(124,1140,o),
(124,672,cs),
(124,146,o),
(418,-30,o),
(656,-30,cs)
);
},
{
closed = 1;
nodes = (
(520,176,o),
(418,326,o),
(418,472,c),
(426,602,o),
(552,710,o),
(684,710,cs),
(828,710,o),
(890,606,o),
(890,450,cs),
(890,278,o),
(788,176,o),
(662,176,cs)
);
}
);
width = 1246;
}
);
},
{
glyphname = seven.osf;
lastChange = "2022-05-07 02:24:03 +0000";
layers = (
{
layerId = "B61D43DE-5272-4FF4-A680-608B6BF5ED9E";
shapes = (
{
closed = 1;
nodes = (
(508,-176,l),
(1004,1232,l),
(90,1232,l),
(90,996,l),
(818,996,l),
(716,1132,l),
(218,-176,l)
);
}
);
width = 1054;
}
);
metricLeft = seven;
metricRight = seven;
},
{
glyphname = eight.osf;
lastChange = "2022-05-07 02:24:03 +0000";
layers = (
{
layerId = "B61D43DE-5272-4FF4-A680-608B6BF5ED9E";
shapes = (
{
closed = 1;
nodes = (
(864,-36,o),
(1124,80,o),
(1124,382,cs),
(1124,580,o),
(990,702,o),
(796,746,c),
(806,706,l),
(956,758,o),
(1064,874,o),
(1064,1066,cs),
(1064,1330,o),
(846,1428,o),
(616,1428,cs),
(384,1428,o),
(162,1330,o),
(162,1066,cs),
(162,872,o),
(262,756,o),
(422,706,c),
(426,746,l),
(238,700,o),
(102,580,o),
(102,382,cs),
(102,80,o),
(362,-36,o),
(614,-36,cs)
);
},
{
closed = 1;
nodes = (
(460,166,o),
(386,238,o),
(386,386,cs),
(386,566,o),
(498,628,o),
(614,628,cs),
(722,628,o),
(838,566,o),
(838,386,cs),
(838,238,o),
(766,166,o),
(614,166,cs)
);
},
{
closed = 1;
nodes = (
(494,818,o),
(426,904,o),
(426,1048,cs),
(426,1178,o),
(482,1244,o),
(618,1244,cs),
(752,1244,o),
(802,1178,o),
(802,1048,cs),
(802,904,o),
(736,818,o),
(618,818,cs)
);
}
);
width = 1226;
}
);
},
{
glyphname = nine.osf;
lastChange = "2022-05-07 02:24:03 +0000";
layers = (
{
layerId = "B61D43DE-5272-4FF4-A680-608B6BF5ED9E";
shapes = (
{
closed = 1;
nodes = (
(910,-194,o),
(1152,94,o),
(1152,562,cs),
(1152,1088,o),
(926,1264,o),
(640,1264,cs),
(338,1264,o),
(124,1068,o),
(124,760,cs),
(124,518,o),
(310,310,o),
(574,310,cs),
(712,310,o),
(824,370,o),
(896,518,c),
(896,500,o),
(894,482,o),
(894,434,cs),
(894,182,o),
(752,32,o),
(540,32,cs),
(466,32,o),
(370,50,o),
(316,108,c),
(218,-92,l),
(282,-154,o),
(366,-194,o),
(554,-194,cs)
);
},
{
closed = 1;
nodes = (
(456,524,o),
(388,634,o),
(388,790,cs),
(388,962,o),
(508,1058,o),
(634,1058,cs),
(758,1058,o),
(840,936,o),
(850,828,cs),
(852,804,o),
(858,782,o),
(858,762,c),
(850,632,o),
(724,524,o),
(600,524,cs)
);
}
);
width = 1246;
}
);
},
{
glyphname = zero.tf;
lastChange = "2023-10-19 00:56:07 +0000";
layers = (
{
layerId = "B61D43DE-5272-4FF4-A680-608B6BF5ED9E";
shapes = (
{
closed = 1;
nodes = (
(962,-36,o),
(1108,266,o),
(1108,694,cs),
(1108,1192,o),
(922,1428,o),
(600,1428,cs),
(278,1428,o),
(90,1192,o),
(90,694,cs),
(90,266,o),
(234,-36,o),
(598,-36,cs)
);
},
{
closed = 1;
nodes = (
(428,178,o),
(368,404,o),
(368,696,cs),
(368,1004,o),
(432,1218,o),
(602,1218,cs),
(770,1218,o),
(832,1004,o),
(832,696,cs),
(832,404,o),
(772,178,o),
(600,178,cs)
);
}
);
width = 1198;
}
);
userData = {
KernOnSpecialSpacing = {
L = NoKerning;
R = NoKerning;
};
RMXScaler = {
source = zero;
};
};
},
{
glyphname = one.tf;
lastChange = "2023-10-19 00:56:07 +0000";
layers = (
{
layerId = "B61D43DE-5272-4FF4-A680-608B6BF5ED9E";
shapes = (
{
closed = 1;
nodes = (
(1032,0,l),
(1032,196,l),
(750,196,l),
(750,1394,l),
(160,1296,l),
(160,1066,l),
(572,1142,l),
(484,1216,l),
(484,196,l),
(168,196,l),
(168,0,l)
);
}
);
width = 1198;
}
);
userData = {
KernOnSpecialSpacing = {
L = NoKerning;
R = NoKerning;
};
RMXScaler = {
source = one;
};
};
},
{
glyphname = two.tf;
lastChange = "2023-10-19 00:56:07 +0000";
layers = (
{
layerId = "B61D43DE-5272-4FF4-A680-608B6BF5ED9E";
shapes = (
{
closed = 1;
nodes = (
(440,378,o),
(566,420,o),
(736,528,cs),
(900,632,o),
(1060,774,o),
(1060,1030,cs),
(1060,1284,o),
(870,1428,o),
(622,1428,cs),
(350,1428,o),
(160,1256,o),
(128,1048,c),
(332,948,l),
(350,1084,o),
(450,1198,o),
(602,1198,cs),
(734,1198,o),
(792,1110,o),
(792,1006,cs),
(792,792,o),
(590,706,o),
(452,618,cs),
(210,464,o),
(156,322,o),
(156,140,cs),
(156,82,o),
(162,42,o),
(170,0,c),
(1068,0,l),
(1068,228,l),
(416,228,l)
);
}
);
width = 1198;
}
);
userData = {
KernOnSpecialSpacing = {
L = NoKerning;
R = NoKerning;
};
RMXScaler = {
source = two.subs;
};
};
},
{
color = 3;
glyphname = three.tf;
lastChange = "2023-10-19 00:56:07 +0000";
layers = (
{
layerId = "B61D43DE-5272-4FF4-A680-608B6BF5ED9E";
shapes = (
{
closed = 1;
nodes = (
(836,-30,o),
(1068,128,o),
(1068,392,cs),
(1068,560,o),
(966,724,o),
(796,724,c),
(944,762,o),
(1028,918,o),
(1028,1070,cs),
(1028,1298,o),
(852,1428,o),
(576,1428,cs),
(408,1428,o),
(232,1374,o),
(150,1302,c),
(230,1092,l),
(302,1172,o),
(444,1214,o),
(522,1214,cs),
(666,1214,o),
(752,1162,o),
(752,1030,cs),
(752,908,o),
(670,818,o),
(506,818,cs),
(398,818,l),
(398,624,l),
(482,624,ls),
(636,624,o),
(794,592,o),
(794,422,cs),
(794,294,o),
(708,194,o),
(528,194,cs),
(422,194,o),
(300,240,o),
(224,314,c),
(140,86,l),
(252,6,o),
(398,-30,o),
(550,-30,cs)
);
}
);
width = 1198;
}
);
userData = {
KernOnSpecialSpacing = {
L = NoKerning;
R = NoKerning;
};
RMXScaler = {
source = three.subs;
};
};
},
{
glyphname = four.tf;
lastChange = "2023-10-19 00:56:07 +0000";
layers = (
{
layerId = "B61D43DE-5272-4FF4-A680-608B6BF5ED9E";
shapes = (
{
closed = 1;
nodes = (
(1146,252,l),
(1146,478,l),
(410,478,l),
(758,1394,l),
(480,1394,l),
(44,252,l)
);
},
{
closed = 1;
nodes = (
(952,0,l),
(952,876,l),
(722,876,l),
(692,316,l),
(692,0,l)
);
}
);
width = 1198;
}
);
userData = {
KernOnSpecialSpacing = {
L = NoKerning;
R = NoKerning;
};
RMXScaler = {
source = four.subs;
};
};
},
{
glyphname = five.tf;
lastChange = "2023-10-19 00:56:07 +0000";
layers = (
{
layerId = "B61D43DE-5272-4FF4-A680-608B6BF5ED9E";
shapes = (
{
closed = 1;
nodes = (
(866,-26,o),
(1090,166,o),
(1090,478,cs),
(1090,740,o),
(940,908,o),
(658,908,cs),
(586,908,o),
(508,902,o),
(446,884,c),
(466,1182,l),
(1036,1182,l),
(1036,1394,l),
(238,1394,l),
(212,648,l),
(254,674,o),
(404,712,o),
(516,712,cs),
(710,712,o),
(820,610,o),
(820,452,cs),
(820,214,o),
(634,192,o),
(506,192,cs),
(412,192,o),
(282,234,o),
(224,288,c),
(150,64,l),
(248,-2,o),
(418,-26,o),
(540,-26,cs)
);
}
);
width = 1198;
}
);
userData = {
KernOnSpecialSpacing = {
L = NoKerning;
R = NoKerning;
};
RMXScaler = {
source = five.subs;
};
};
},
{
glyphname = six.tf;
lastChange = "2023-10-19 00:56:07 +0000";
layers = (
{
layerId = "B61D43DE-5272-4FF4-A680-608B6BF5ED9E";
shapes = (
{
closed = 1;
nodes = (
(918,-30,o),
(1110,170,o),
(1110,478,cs),
(1110,720,o),
(968,914,o),
(698,914,cs),
(552,914,o),
(408,854,o),
(336,716,c),
(336,738,o),
(336,762,o),
(338,790,cs),
(352,996,o),
(484,1210,o),
(692,1210,cs),
(766,1210,o),
(868,1192,o),
(922,1134,c),
(1020,1326,l),
(956,1388,o),
(866,1428,o),
(678,1428,cs),
(326,1428,o),
(74,1140,o),
(74,672,cs),
(74,146,o),
(372,-30,o),
(610,-30,cs)
);
},
{
closed = 1;
nodes = (
(472,176,o),
(366,328,o),
(366,472,c),
(374,602,o),
(490,710,o),
(638,710,cs),
(782,710,o),
(850,606,o),
(850,450,cs),
(850,278,o),
(742,176,o),
(616,176,cs)
);
}
);
width = 1198;
}
);
userData = {
KernOnSpecialSpacing = {
L = NoKerning;
R = NoKerning;
};
RMXScaler = {
source = six.subs;
};
};
},
{
glyphname = seven.tf;
lastChange = "2023-10-19 00:56:07 +0000";
layers = (
{
layerId = "B61D43DE-5272-4FF4-A680-608B6BF5ED9E";
shapes = (
{
closed = 1;
nodes = (
(628,0,l),
(1144,1394,l),
(110,1394,l),
(110,1158,l),
(958,1158,l),
(856,1294,l),
(338,0,l)
);
}
);
width = 1198;
}
);
userData = {
KernOnSpecialSpacing = {
L = NoKerning;
R = NoKerning;
};
RMXScaler = {
source = seven.subs;
};
};
},
{
glyphname = eight.tf;
lastChange = "2023-10-19 00:56:07 +0000";
layers = (
{
layerId = "B61D43DE-5272-4FF4-A680-608B6BF5ED9E";
shapes = (
{
closed = 1;
nodes = (
(850,-36,o),
(1102,80,o),
(1102,382,cs),
(1102,588,o),
(950,698,o),
(748,736,c),
(756,700,l),
(922,746,o),
(1048,866,o),
(1048,1066,cs),
(1048,1330,o),
(832,1428,o),
(602,1428,cs),
(370,1428,o),
(150,1330,o),
(150,1066,cs),
(150,864,o),
(268,746,o),
(440,700,c),
(446,736,l),
(246,698,o),
(96,588,o),
(96,382,cs),
(96,80,o),
(348,-36,o),
(600,-36,cs)
);
},
{
closed = 1;
nodes = (
(446,166,o),
(372,238,o),
(372,386,cs),
(372,566,o),
(484,620,o),
(600,620,cs),
(714,620,o),
(824,566,o),
(824,386,cs),
(824,238,o),
(752,166,o),
(600,166,cs)
);
},
{
closed = 1;
nodes = (
(480,824,o),
(406,904,o),
(406,1048,cs),
(406,1178,o),
(468,1244,o),
(604,1244,cs),
(738,1244,o),
(794,1178,o),
(794,1048,cs),
(794,902,o),
(728,824,o),
(604,824,cs)
);
}
);
width = 1198;
}
);
userData = {
KernOnSpecialSpacing = {
L = NoKerning;
R = NoKerning;
};
RMXScaler = {
source = eight.subs;
};
};
},
{
glyphname = nine.tf;
lastChange = "2023-11-08 01:58:02 +0000";
layers = (
{
layerId = "B61D43DE-5272-4FF4-A680-608B6BF5ED9E";
shapes = (
{
closed = 1;
nodes = (
(854,-30,o),
(1102,258,o),
(1102,726,cs),
(1102,1252,o),
(826,1428,o),
(588,1428,cs),
(286,1428,o),
(72,1232,o),
(72,924,cs),
(72,682,o),
(218,484,o),
(482,484,cs),
(628,484,o),
(766,544,o),
(838,682,c),
(838,660,o),
(836,636,o),
(836,608,cs),
(836,366,o),
(696,196,o),
(488,196,cs),
(420,196,o),
(318,214,o),
(264,272,c),
(166,72,l),
(230,10,o),
(320,-30,o),
(502,-30,cs)
);
},
{
closed = 1;
nodes = (
(410,688,o),
(336,792,o),
(336,948,cs),
(336,1120,o),
(456,1222,o),
(582,1222,cs),
(706,1222,o),
(790,1120,o),
(800,992,cs),
(802,968,o),
(808,946,o),
(808,926,c),
(800,796,o),
(680,688,o),
(548,688,cs)
);
}
);
width = 1198;
}
);
userData = {
KernOnSpecialSpacing = {
L = NoKerning;
R = NoKerning;
};
RMXScaler = {
source = nine.subs;
};
};
},
{
glyphname = zero.tosf;
lastChange = "2023-10-19 00:56:07 +0000";
layers = (
{
layerId = "B61D43DE-5272-4FF4-A680-608B6BF5ED9E";
shapes = (
{
closed = 1;
nodes = (
(944,-36,o),
(1096,266,o),
(1096,606,cs),
(1096,1026,o),
(906,1264,o),
(584,1264,cs),
(262,1264,o),
(68,1026,o),
(68,606,cs),
(68,266,o),
(216,-36,o),
(580,-36,cs)
);
},
{
closed = 1;
nodes = (
(408,178,o),
(348,404,o),
(348,608,cs),
(348,848,o),
(414,1054,o),
(584,1054,cs),
(752,1054,o),
(816,916,o),
(816,608,cs),
(816,404,o),
(752,178,o),
(580,178,cs)
);
}
);
width = 1164;
}
);
userData = {
KernOnSpecialSpacing = {
L = NoKerning;
R = NoKerning;
};
RMXScaler = {
source = zero;
};
};
},
{
glyphname = one.tosf;
lastChange = "2023-10-19 00:56:07 +0000";
layers = (
{
layerId = "B61D43DE-5272-4FF4-A680-608B6BF5ED9E";
shapes = (
{
closed = 1;
nodes = (
(1036,0,l),
(1036,196,l),
(682,196,l),
(772,106,l),
(772,1264,l),
(188,1178,l),
(188,948,l),
(590,1022,l),
(502,1088,l),
(502,106,l),
(592,196,l),
(168,196,l),
(168,0,l)
);
}
);
width = 1198;
}
);
userData = {
KernOnSpecialSpacing = {
L = NoKerning;
R = NoKerning;
};
RMXScaler = {
source = one;
};
};
},
{
glyphname = two.tosf;
lastChange = "2023-10-19 00:56:07 +0000";
layers = (
{
layerId = "B61D43DE-5272-4FF4-A680-608B6BF5ED9E";
shapes = (
{
closed = 1;
nodes = (
(442,292,o),
(542,336,o),
(692,430,cs),
(856,534,o),
(1016,696,o),
(1016,866,cs),
(1016,1120,o),
(822,1264,o),
(574,1264,cs),
(302,1264,o),
(118,1092,o),
(86,884,c),
(290,784,l),
(308,920,o),
(410,1034,o),
(562,1034,cs),
(686,1034,o),
(748,970,o),
(748,866,cs),
(748,720,o),
(546,608,o),
(408,520,cs),
(166,366,o),
(112,250,o),
(112,140,cs),
(112,82,o),
(118,42,o),
(126,0,c),
(1024,0,l),
(1024,228,l),
(404,228,l)
);
}
);
width = 1198;
}
);
userData = {
KernOnSpecialSpacing = {
L = NoKerning;
R = NoKerning;
};
RMXScaler = {
source = two;
};
};
},
{
glyphname = three.tosf;
lastChange = "2023-10-19 00:56:07 +0000";
layers = (
{
layerId = "B61D43DE-5272-4FF4-A680-608B6BF5ED9E";
shapes = (
{
closed = 1;
nodes = (
(836,-194,o),
(1068,-36,o),
(1068,228,cs),
(1068,396,o),
(966,560,o),
(796,560,c),
(944,598,o),
(1028,754,o),
(1028,906,cs),
(1028,1134,o),
(852,1264,o),
(576,1264,cs),
(408,1264,o),
(232,1210,o),
(150,1138,c),
(230,928,l),
(302,1008,o),
(444,1050,o),
(522,1050,cs),
(666,1050,o),
(752,998,o),
(752,866,cs),
(752,744,o),
(670,654,o),
(506,654,c),
(398,654,l),
(398,460,l),
(482,460,l),
(636,460,o),
(794,428,o),
(794,258,cs),
(794,130,o),
(708,30,o),
(528,30,cs),
(422,30,o),
(300,76,o),
(224,150,c),
(140,-78,l),
(252,-158,o),
(398,-194,o),
(550,-194,cs)
);
}
);
width = 1198;
}
);
userData = {
KernOnSpecialSpacing = {
L = NoKerning;
R = NoKerning;
};
RMXScaler = {
source = three;
};
};
},
{
glyphname = four.tosf;
lastChange = "2023-10-19 00:56:07 +0000";
layers = (
{
layerId = "B61D43DE-5272-4FF4-A680-608B6BF5ED9E";
shapes = (
{
closed = 1;
nodes = (
(1146,252,l),
(1146,474,l),
(410,474,l),
(758,1520,l),
(480,1520,l),
(44,252,l)
);
},
{
closed = 1;
nodes = (
(952,0,l),
(952,876,l),
(706,876,l),
(686,316,l),
(686,0,l)
);
}
);
width = 1198;
}
);
userData = {
KernOnSpecialSpacing = {
L = NoKerning;
R = NoKerning;
};
RMXScaler = {
source = four;
};
};
},
{
glyphname = five.tosf;
lastChange = "2023-10-19 00:56:07 +0000";
layers = (
{
layerId = "B61D43DE-5272-4FF4-A680-608B6BF5ED9E";
shapes = (
{
closed = 1;
nodes = (
(854,-188,o),
(1078,4,o),
(1078,316,cs),
(1078,578,o),
(928,746,o),
(646,746,cs),
(574,746,o),
(516,740,o),
(454,722,c),
(474,1020,l),
(1018,1020,l),
(1018,1232,l),
(246,1232,l),
(220,486,l),
(262,512,o),
(392,550,o),
(504,550,cs),
(698,550,o),
(808,448,o),
(808,290,cs),
(808,52,o),
(622,30,o),
(494,30,cs),
(400,30,o),
(290,72,o),
(232,126,c),
(158,-98,l),
(256,-164,o),
(406,-188,o),
(528,-188,cs)
);
}
);
width = 1198;
}
);
userData = {
KernOnSpecialSpacing = {
L = NoKerning;
R = NoKerning;
};
RMXScaler = {
source = five;
};
};
},
{
glyphname = six.tosf;
lastChange = "2023-10-19 00:56:07 +0000";
layers = (
{
layerId = "B61D43DE-5272-4FF4-A680-608B6BF5ED9E";
shapes = (
{
closed = 1;
nodes = (
(914,-30,o),
(1102,170,o),
(1102,478,cs),
(1102,720,o),
(968,914,o),
(698,914,cs),
(552,914,o),
(416,854,o),
(344,716,c),
(344,738,o),
(344,762,o),
(346,790,cs),
(360,996,o),
(484,1210,o),
(692,1210,cs),
(766,1210,o),
(868,1192,o),
(922,1134,c),
(1020,1326,l),
(956,1388,o),
(866,1428,o),
(678,1428,cs),
(326,1428,o),
(90,1140,o),
(90,672,cs),
(90,146,o),
(334,-30,o),
(606,-30,cs)
);
},
{
closed = 1;
nodes = (
(466,176,o),
(366,324,o),
(366,482,c),
(374,612,o),
(498,710,o),
(638,710,cs),
(782,710,o),
(850,606,o),
(850,450,cs),
(850,278,o),
(742,176,o),
(616,176,cs)
);
}
);
width = 1198;
}
);
userData = {
KernOnSpecialSpacing = {
L = NoKerning;
R = NoKerning;
};
RMXScaler = {
source = six;
};
};
},
{
glyphname = seven.tosf;
lastChange = "2023-10-19 00:56:07 +0000";
layers = (
{
layerId = "B61D43DE-5272-4FF4-A680-608B6BF5ED9E";
shapes = (
{
closed = 1;
nodes = (
(628,-162,l),
(1084,1232,l),
(170,1232,l),
(170,996,l),
(898,996,l),
(796,1132,l),
(338,-162,l)
);
}
);
width = 1198;
}
);
userData = {
KernOnSpecialSpacing = {
L = NoKerning;
R = NoKerning;
};
RMXScaler = {
source = seven;
};
};
},
{
glyphname = eight.tosf;
lastChange = "2023-10-19 00:56:07 +0000";
layers = (
{
layerId = "B61D43DE-5272-4FF4-A680-608B6BF5ED9E";
shapes = (
{
closed = 1;
nodes = (
(850,-36,o),
(1102,80,o),
(1102,382,cs),
(1102,588,o),
(950,698,o),
(748,736,c),
(756,700,l),
(922,746,o),
(1048,866,o),
(1048,1066,cs),
(1048,1330,o),
(832,1428,o),
(602,1428,cs),
(370,1428,o),
(150,1330,o),
(150,1066,cs),
(150,864,o),
(268,746,o),
(440,700,c),
(446,736,l),
(250,698,o),
(96,588,o),
(96,382,cs),
(96,80,o),
(348,-36,o),
(600,-36,cs)
);
},
{
closed = 1;
nodes = (
(446,166,o),
(376,238,o),
(376,386,cs),
(376,566,o),
(484,620,o),
(600,620,cs),
(714,620,o),
(820,566,o),
(820,386,cs),
(820,238,o),
(752,166,o),
(600,166,cs)
);
},
{
closed = 1;
nodes = (
(480,824,o),
(410,904,o),
(410,1048,cs),
(410,1178,o),
(468,1244,o),
(604,1244,cs),
(738,1244,o),
(790,1178,o),
(790,1048,cs),
(790,902,o),
(728,824,o),
(604,824,cs)
);
}
);
width = 1198;
}
);
userData = {
KernOnSpecialSpacing = {
L = NoKerning;
R = NoKerning;
};
RMXScaler = {
source = eight;
};
};
},
{
glyphname = nine.tosf;
lastChange = "2023-10-19 00:56:07 +0000";
layers = (
{
layerId = "B61D43DE-5272-4FF4-A680-608B6BF5ED9E";
shapes = (
{
closed = 1;
nodes = (
(854,-194,o),
(1088,94,o),
(1088,562,cs),
(1088,1088,o),
(838,1264,o),
(594,1264,cs),
(292,1264,o),
(86,1074,o),
(86,766,cs),
(86,524,o),
(224,320,o),
(482,320,cs),
(628,320,o),
(760,380,o),
(832,518,c),
(832,496,o),
(830,472,o),
(830,444,cs),
(830,202,o),
(696,32,o),
(488,32,cs),
(420,32,o),
(324,50,o),
(270,108,c),
(172,-92,l),
(236,-154,o),
(320,-194,o),
(502,-194,cs)
);
},
{
closed = 1;
nodes = (
(410,524,o),
(350,634,o),
(350,790,cs),
(350,962,o),
(456,1058,o),
(582,1058,cs),
(706,1058,o),
(788,970,o),
(802,820,cs),
(804,796,o),
(810,774,o),
(810,754,c),
(802,624,o),
(680,524,o),
(548,524,cs)
);
}
);
width = 1198;
}
);
userData = {
KernOnSpecialSpacing = {
L = NoKerning;
R = NoKerning;
};
RMXScaler = {
source = nine;
};
};
},
{
glyphname = zero.lt.zero;
lastChange = "2022-05-07 02:24:03 +0000";
layers = (
{
layerId = "B61D43DE-5272-4FF4-A680-608B6BF5ED9E";
shapes = (
{
closed = 1;
nodes = (
(486,178,l),
(838,1218,l),
(680,1218,l),
(328,178,l)
);
},
{
ref = zero;
}
);
width = 1160;
}
);
metricLeft = zero.zero;
metricRight = zero.zero;
},
{
glyphname = zero.osf.zero;
lastChange = "2022-05-07 02:24:03 +0000";
layers = (
{
layerId = "B61D43DE-5272-4FF4-A680-608B6BF5ED9E";
shapes = (
{
closed = 1;
nodes = (
(478,178,l),
(830,1050,l),
(672,1050,l),
(320,178,l)
);
},
{
ref = zero.osf;
}
);
width = 1160;
}
);
metricLeft = zero;
metricRight = zero;
},
{
glyphname = zero.tf.zero;
lastChange = "2022-05-07 02:24:03 +0000";
layers = (
{
layerId = "B61D43DE-5272-4FF4-A680-608B6BF5ED9E";
shapes = (
{
closed = 1;
nodes = (
(496,178,l),
(848,1218,l),
(690,1218,l),
(338,178,l)
);
},
{
ref = zero.tf;
}
);
width = 1198;
}
);
userData = {
RMXScaler = {
source = zero.tf;
};
};
},
{
glyphname = zero.tosf.zero;
lastChange = "2022-05-07 02:24:03 +0000";
layers = (
{
layerId = "B61D43DE-5272-4FF4-A680-608B6BF5ED9E";
shapes = (
{
closed = 1;
nodes = (
(474,178,l),
(826,1050,l),
(668,1050,l),
(316,178,l)
);
},
{
pos = (-4,0);
ref = zero.tosf;
}
);
width = 1156;
}
);
},
{
glyphname = fraction;
lastChange = "2023-10-19 00:56:07 +0000";
layers = (
{
layerId = "B61D43DE-5272-4FF4-A680-608B6BF5ED9E";
shapes = (
{
closed = 1;
nodes = (
(-56,-20,l),
(708,1596,l),
(506,1596,l),
(-256,-22,l)
);
}
);
width = 450;
}
);
unicode = 8260;
userData = {
KernOnSpecialSpacing = {
L = fraction;
R = fraction;
};
};
},
{
color = 3;
glyphname = zeroinferior;
lastChange = "2023-10-19 00:56:07 +0000";
layers = (
{
layerId = "B61D43DE-5272-4FF4-A680-608B6BF5ED9E";
shapes = (
{
closed = 1;
nodes = (
(798,-338,o),
(920,-128,o),
(920,170,cs),
(920,520,o),
(766,682,o),
(502,682,cs),
(238,682,o),
(84,520,o),
(84,170,cs),
(84,-128,o),
(206,-338,o),
(502,-338,cs)
);
},
{
closed = 1;
nodes = (
(354,-178,o),
(308,-32,o),
(308,172,cs),
(308,388,o),
(356,528,o),
(496,528,cs),
(632,528,o),
(684,388,o),
(684,172,cs),
(684,-32,o),
(636,-178,o),
(496,-178,cs)
);
}
);
width = 1004;
}
);
unicode = 8320;
userData = {
KernOnSpecialSpacing = {
L = superiors;
R = superiors;
};
};
},
{
color = 3;
glyphname = oneinferior;
lastChange = "2023-10-19 00:56:07 +0000";
layers = (
{
layerId = "B61D43DE-5272-4FF4-A680-608B6BF5ED9E";
shapes = (
{
closed = 1;
nodes = (
(386,-318,l),
(386,690,l),
(164,636,l),
(164,-318,l)
);
}
);
width = 550;
}
);
unicode = 8321;
userData = {
KernOnSpecialSpacing = {
L = superiors;
R = superiors;
};
};
},
{
color = 3;
glyphname = twoinferior;
lastChange = "2023-10-19 00:56:07 +0000";
layers = (
{
layerId = "B61D43DE-5272-4FF4-A680-608B6BF5ED9E";
shapes = (
{
closed = 1;
nodes = (
(692,148,o),
(818,222,o),
(818,402,cs),
(818,580,o),
(682,690,o),
(452,690,cs),
(230,690,o),
(104,552,o),
(84,434,c),
(260,370,l),
(266,438,o),
(344,516,o),
(442,516,cs),
(548,516,o),
(604,458,o),
(604,386,cs),
(604,234,o),
(442,176,o),
(326,112,cs),
(130,4,o),
(84,-104,o),
(84,-232,cs),
(84,-272,o),
(90,-298,o),
(98,-318,c),
(818,-318,l),
(818,-148,l),
(302,-148,l),
(332,-56,o),
(438,-34,o),
(558,52,cs)
);
}
);
width = 908;
}
);
unicode = 8322;
userData = {
KernOnSpecialSpacing = {
L = superiors;
R = superiors;
};
};
},
{
color = 3;
glyphname = threeinferior;
lastChange = "2023-10-19 00:56:07 +0000";
layers = (
{
layerId = "B61D43DE-5272-4FF4-A680-608B6BF5ED9E";
shapes = (
{
closed = 1;
nodes = (
(600,-346,o),
(778,-236,o),
(778,-48,cs),
(778,68,o),
(676,180,o),
(536,180,c),
(656,206,o),
(746,334,o),
(746,440,cs),
(746,600,o),
(600,692,o),
(376,692,cs),
(238,692,o),
(122,648,o),
(58,598,c),
(122,450,l),
(184,506,o),
(264,522,o),
(346,522,cs),
(428,522,o),
(516,492,o),
(516,398,cs),
(516,312,o),
(452,248,o),
(318,248,cs),
(230,248,l),
(230,110,l),
(308,110,ls),
(436,110,o),
(554,90,o),
(554,-30,cs),
(554,-118,o),
(492,-180,o),
(346,-180,cs),
(258,-180,o),
(180,-148,o),
(120,-98,c),
(48,-264,l),
(140,-320,o),
(242,-346,o),
(366,-346,cs)
);
}
);
width = 848;
}
);
unicode = 8323;
userData = {
KernOnSpecialSpacing = {
L = superiors;
R = superiors;
};
};
},
{
color = 3;
glyphname = fourinferior;
lastChange = "2023-10-19 00:56:07 +0000";
layers = (
{
layerId = "B61D43DE-5272-4FF4-A680-608B6BF5ED9E";
shapes = (
{
closed = 1;
nodes = (
(842,-164,l),
(842,-14,l),
(268,-14,l),
(322,114,l),
(482,632,l),
(250,632,l),
(22,-164,l)
);
},
{
closed = 1;
nodes = (
(702,-344,l),
(702,268,l),
(518,268,l),
(500,-102,l),
(500,-344,l)
);
}
);
width = 880;
}
);
unicode = 8324;
userData = {
KernOnSpecialSpacing = {
L = superiors;
R = superiors;
};
};
},
{
color = 3;
glyphname = fiveinferior;
lastChange = "2023-10-19 00:56:07 +0000";
layers = (
{
layerId = "B61D43DE-5272-4FF4-A680-608B6BF5ED9E";
shapes = (
{
closed = 1;
nodes = (
(646,-344,o),
(810,-208,o),
(810,10,cs),
(810,194,o),
(696,318,o),
(464,318,cs),
(424,318,o),
(350,310,o),
(314,294,c),
(334,500,l),
(748,500,l),
(748,660,l),
(148,660,l),
(118,120,l),
(152,136,o),
(276,156,o),
(398,156,cs),
(558,156,o),
(600,82,o),
(600,-4,cs),
(600,-148,o),
(454,-176,o),
(348,-176,cs),
(274,-176,o),
(190,-152,o),
(142,-112,c),
(76,-280,l),
(156,-324,o),
(278,-344,o),
(376,-344,cs)
);
}
);
width = 866;
}
);
unicode = 8325;
userData = {
KernOnSpecialSpacing = {
L = superiors;
R = superiors;
};
};
},
{
color = 3;
glyphname = sixinferior;
lastChange = "2023-10-19 00:56:07 +0000";
layers = (
{
layerId = "B61D43DE-5272-4FF4-A680-608B6BF5ED9E";
shapes = (
{
closed = 1;
nodes = (
(718,-338,o),
(876,-218,o),
(876,-2,cs),
(876,166,o),
(762,306,o),
(548,306,cs),
(434,306,o),
(304,250,o),
(248,152,c),
(280,170,l),
(278,184,o),
(278,200,o),
(278,216,cs),
(278,378,o),
(374,526,o),
(538,526,cs),
(594,526,o),
(674,512,o),
(716,472,c),
(800,614,l),
(750,656,o),
(670,684,o),
(532,684,cs),
(250,684,o),
(88,448,o),
(88,142,cs),
(88,-224,o),
(294,-338,o),
(478,-338,cs)
);
},
{
closed = 1;
nodes = (
(392,-184,o),
(338,-140,o),
(312,-48,cs),
(308,-34,o),
(306,-18,o),
(306,-4,c),
(312,88,o),
(400,152,o),
(506,152,cs),
(616,152,o),
(680,90,o),
(680,-20,cs),
(680,-140,o),
(586,-184,o),
(488,-184,cs)
);
}
);
width = 962;
}
);
unicode = 8326;
userData = {
KernOnSpecialSpacing = {
L = superiors;
R = superiors;
};
};
},
{
color = 3;
glyphname = seveninferior;
lastChange = "2023-10-19 00:56:07 +0000";
layers = (
{
layerId = "B61D43DE-5272-4FF4-A680-608B6BF5ED9E";
shapes = (
{
closed = 1;
nodes = (
(420,-318,l),
(790,660,l),
(46,660,l),
(46,492,l),
(638,492,l),
(558,590,l),
(186,-318,l)
);
}
);
width = 796;
}
);
unicode = 8327;
userData = {
KernOnSpecialSpacing = {
L = superiors;
R = superiors;
};
};
},
{
color = 3;
glyphname = eightinferior;
lastChange = "2023-10-19 00:56:07 +0000";
layers = (
{
layerId = "B61D43DE-5272-4FF4-A680-608B6BF5ED9E";
shapes = (
{
closed = 1;
nodes = (
(668,-346,o),
(874,-266,o),
(874,-54,cs),
(874,100,o),
(730,186,o),
(558,210,c),
(566,176,l),
(706,204,o),
(828,286,o),
(828,438,cs),
(828,622,o),
(654,690,o),
(474,690,cs),
(290,690,o),
(116,622,o),
(116,438,cs),
(116,286,o),
(230,202,o),
(382,178,c),
(386,210,l),
(210,186,o),
(68,100,o),
(68,-54,cs),
(68,-266,o),
(276,-346,o),
(472,-346,cs)
);
},
{
closed = 1;
nodes = (
(352,-196,o),
(288,-146,o),
(288,-44,cs),
(288,82,o),
(382,112,o),
(472,112,cs),
(562,112,o),
(654,82,o),
(654,-44,cs),
(654,-146,o),
(592,-196,o),
(472,-196,cs)
);
},
{
closed = 1;
nodes = (
(380,268,o),
(322,316,o),
(322,416,cs),
(322,508,o),
(368,550,o),
(478,550,cs),
(580,550,o),
(624,508,o),
(624,416,cs),
(624,316,o),
(572,268,o),
(478,268,cs)
);
}
);
width = 942;
}
);
unicode = 8328;
userData = {
KernOnSpecialSpacing = {
L = superiors;
R = superiors;
};
};
},
{
color = 3;
glyphname = nineinferior;
lastChange = "2023-10-19 00:56:07 +0000";
layers = (
{
layerId = "B61D43DE-5272-4FF4-A680-608B6BF5ED9E";
shapes = (
{
closed = 1;
nodes = (
(712,-338,o),
(880,-96,o),
(880,210,cs),
(880,576,o),
(668,684,o),
(484,684,cs),
(244,684,o),
(86,564,o),
(86,348,cs),
(86,180,o),
(200,40,o),
(414,40,cs),
(528,40,o),
(664,96,o),
(720,194,c),
(688,176,l),
(690,162,o),
(690,146,o),
(690,130,cs),
(690,-32,o),
(594,-180,o),
(424,-180,cs),
(368,-180,o),
(288,-166,o),
(246,-126,c),
(162,-268,l),
(212,-310,o),
(292,-338,o),
(430,-338,cs)
);
},
{
closed = 1;
nodes = (
(346,194,o),
(282,256,o),
(282,366,cs),
(282,486,o),
(376,530,o),
(474,530,cs),
(570,530,o),
(630,486,o),
(656,394,cs),
(660,380,o),
(662,364,o),
(662,350,c),
(656,258,o),
(568,194,o),
(456,194,cs)
);
}
);
width = 966;
}
);
unicode = 8329;
userData = {
KernOnSpecialSpacing = {
L = superiors;
R = superiors;
};
};
},
{
glyphname = .notdef;
lastChange = "2022-05-07 02:24:03 +0000";
layers = (
{
layerId = "B61D43DE-5272-4FF4-A680-608B6BF5ED9E";
shapes = (
{
closed = 1;
nodes = (
(1556,0,l),
(1556,1382,l),
(172,1382,l),
(172,0,l)
);
},
{
closed = 1;
nodes = (
(430,378,l),
(764,688,l),
(428,1018,l),
(540,1132,l),
(866,788,l),
(1186,1130,l),
(1302,1018,l),
(962,692,l),
(1302,356,l),
(1192,246,l),
(862,590,l),
(546,246,l)
);
}
);
width = 1728;
}
);
},
{
glyphname = "leftanglebracket-math";
lastChange = "2019-10-28 18:28:25 +0000";
layers = (
{
layerId = "B61D43DE-5272-4FF4-A680-608B6BF5ED9E";
shapes = (
{
closed = 1;
nodes = (
(646,-452,l),
(306,498,l),
(646,1446,l),
(442,1446,l),
(120,498,l),
(444,-452,l)
);
}
);
width = 826;
}
);
unicode = 10216;
},
{
glyphname = "rightanglebracket-math";
lastChange = "2019-10-28 18:28:25 +0000";
layers = (
{
layerId = "B61D43DE-5272-4FF4-A680-608B6BF5ED9E";
shapes = (
{
closed = 1;
nodes = (
(180,1446,l),
(520,498,l),
(180,-452,l),
(384,-452,l),
(706,496,l),
(402,1446,l)
);
}
);
width = 826;
}
);
unicode = 10217;
},
{
glyphname = period;
lastChange = "2023-11-10 06:07:35 +0000";
layers = (
{
layerId = "B61D43DE-5272-4FF4-A680-608B6BF5ED9E";
shapes = (
{
closed = 1;
nodes = (
(330,0,l),
(330,298,l),
(96,298,l),
(96,0,l)
);
}
);
width = 426;
}
);
unicode = 46;
userData = {
KernOnName = period;
KernOnSpecialSpacing = {
L = period;
R = period;
};
};
},
{
glyphname = comma;
lastChange = "2023-11-10 06:07:35 +0000";
layers = (
{
layerId = "B61D43DE-5272-4FF4-A680-608B6BF5ED9E";
shapes = (
{
closed = 1;
nodes = (
(240,-326,l),
(286,-258,o),
(330,-44,o),
(330,142,cs),
(330,298,l),
(104,298,l),
(104,94,ls),
(104,-68,o),
(90,-272,o),
(68,-326,c)
);
}
);
width = 446;
}
);
unicode = 44;
userData = {
KernOnName = comma;
KernOnSpecialSpacing = {
L = period;
R = period;
};
};
},
{
glyphname = exclam;
lastChange = "2023-11-10 06:07:35 +0000";
layers = (
{
layerId = "B61D43DE-5272-4FF4-A680-608B6BF5ED9E";
shapes = (
{
closed = 1;
nodes = (
(426,506,l),
(454,1538,l),
(180,1538,l),
(206,506,l)
);
},
{
closed = 1;
nodes = (
(430,0,l),
(430,298,l),
(202,298,l),
(202,0,l)
);
}
);
width = 634;
}
);
unicode = 33;
userData = {
KernOnName = exclam;
KernOnSpecialSpacing = {
L = "spaced-off";
};
};
},
{
glyphname = exclamdown;
lastChange = "2023-10-19 00:56:07 +0000";
layers = (
{
layerId = "B61D43DE-5272-4FF4-A680-608B6BF5ED9E";
shapes = (
{
closed = 1;
nodes = (
(454,-320,l),
(428,712,l),
(208,712,l),
(180,-320,l)
);
},
{
closed = 1;
nodes = (
(432,920,l),
(432,1218,l),
(204,1218,l),
(204,920,l)
);
}
);
width = 634;
}
);
metricLeft = exclam;
metricRight = exclam;
unicode = 161;
userData = {
KernOnSpecialSpacing = {
R = "spaced-off";
};
};
},
{
glyphname = question;
lastChange = "2023-10-19 01:03:29 +0000";
layers = (
{
layerId = "B61D43DE-5272-4FF4-A680-608B6BF5ED9E";
shapes = (
{
closed = 1;
nodes = (
(454,490,l),
(454,550,l),
(454,742,o),
(550,820,o),
(642,894,cs),
(728,964,o),
(808,1030,o),
(808,1184,cs),
(808,1418,o),
(668,1554,o),
(372,1554,cs),
(188,1554,o),
(48,1460,o),
(-20,1376,c),
(122,1182,l),
(156,1248,o),
(240,1332,o),
(366,1332,cs),
(472,1332,o),
(548,1272,o),
(548,1158,cs),
(548,1040,o),
(480,990,o),
(406,936,cs),
(322,874,o),
(232,806,o),
(232,620,cs),
(232,580,o),
(236,542,o),
(246,490,c)
);
},
{
closed = 1;
nodes = (
(470,0,l),
(470,298,l),
(244,298,l),
(244,0,l)
);
}
);
width = 848;
}
);
unicode = 63;
userData = {
KernOnSpecialSpacing = {
L = "spaced-off";
};
com.typemytype.robofont.mark = (
0.6,
1,
0.628,
1
);
};
},
{
glyphname = questiondown;
lastChange = "2023-10-19 00:56:07 +0000";
layers = (
{
layerId = "B61D43DE-5272-4FF4-A680-608B6BF5ED9E";
shapes = (
{
closed = 1;
nodes = (
(604,920,l),
(604,1218,l),
(378,1218,l),
(378,920,l)
);
},
{
closed = 1;
nodes = (
(394,728,l),
(394,668,ls),
(394,476,o),
(302,398,o),
(208,324,cs),
(120,256,o),
(40,188,o),
(40,34,cs),
(40,-200,o),
(180,-336,o),
(476,-336,cs),
(660,-336,o),
(800,-242,o),
(868,-158,c),
(726,36,l),
(692,-30,o),
(608,-114,o),
(482,-114,cs),
(376,-114,o),
(300,-54,o),
(300,60,cs),
(300,176,o),
(364,228,o),
(438,280,cs),
(524,342,o),
(616,410,o),
(616,598,cs),
(616,638,o),
(612,676,o),
(602,728,c)
);
}
);
width = 848;
}
);
unicode = 191;
userData = {
KernOnSpecialSpacing = {
R = "spaced-off";
};
com.typemytype.robofont.mark = (
0.6,
1,
0.628,
1
);
};
},
{
glyphname = bullet;
lastChange = "2023-10-03 00:56:07 +0000";
layers = (
{
layerId = "B61D43DE-5272-4FF4-A680-608B6BF5ED9E";
shapes = (
{
closed = 1;
nodes = (
(436,440,o),
(524,500,o),
(524,634,cs),
(524,760,o),
(434,830,o),
(338,830,cs),
(246,830,o),
(156,760,o),
(156,634,cs),
(156,500,o),
(244,440,o),
(338,440,cs)
);
}
);
width = 674;
}
);
unicode = 8226;
userData = {
KernOnSpecialSpacing = {
L = NoKerning;
R = NoKerning;
};
};
},
{
glyphname = asterisk;
lastChange = "2023-10-18 20:04:12 +0000";
layers = (
{
layerId = "B61D43DE-5272-4FF4-A680-608B6BF5ED9E";
shapes = (
{
closed = 1;
nodes = (
(518,1046,l),
(472,1044,l),
(668,736,l),
(832,852,l),
(600,1126,l),
(600,1088,l),
(920,1180,l),
(856,1364,l),
(550,1238,l),
(576,1208,l),
(594,1552,l),
(392,1552,l),
(414,1208,l),
(436,1240,l),
(130,1368,l),
(72,1184,l),
(388,1090,l),
(386,1128,l),
(156,854,l),
(322,736,l)
);
}
);
width = 990;
}
);
unicode = 42;
userData = {
KernOnSpecialSpacing = {
L = quotes;
R = quotes;
};
};
},
{
glyphname = numbersign;
lastChange = "2019-10-28 18:28:25 +0000";
layers = (
{
background = {
shapes = (
{
closed = 1;
nodes = (
(416,88,l),
(590,1434,l),
(414,1434,l),
(240,88,l)
);
}
);
};
layerId = "B61D43DE-5272-4FF4-A680-608B6BF5ED9E";
shapes = (
{
closed = 1;
nodes = (
(836,0,l),
(996,1394,l),
(820,1394,l),
(660,0,l)
);
},
{
closed = 1;
nodes = (
(1100,352,l),
(1100,506,l),
(86,506,l),
(86,352,l)
);
},
{
closed = 1;
nodes = (
(1152,874,l),
(1152,1026,l),
(138,1026,l),
(138,874,l)
);
},
{
closed = 1;
nodes = (
(430,0,l),
(590,1394,l),
(414,1394,l),
(254,0,l)
);
}
);
width = 1238;
}
);
unicode = 35;
},
{
glyphname = slash;
lastChange = "2023-10-19 00:56:07 +0000";
layers = (
{
layerId = "B61D43DE-5272-4FF4-A680-608B6BF5ED9E";
shapes = (
{
closed = 1;
nodes = (
(756,1758,l),
(560,1758,l),
(-36,-358,l),
(160,-360,l)
);
}
);
width = 720;
}
);
unicode = 47;
userData = {
KernOnSpecialSpacing = {
L = slash;
R = slash;
};
};
},
{
glyphname = backslash;
lastChange = "2023-10-19 00:56:07 +0000";
layers = (
{
layerId = "B61D43DE-5272-4FF4-A680-608B6BF5ED9E";
shapes = (
{
closed = 1;
nodes = (
(756,-358,l),
(160,1758,l),
(-36,1758,l),
(560,-360,l)
);
}
);
width = 720;
}
);
metricLeft = slash;
metricRight = slash;
unicode = 92;
userData = {
KernOnSpecialSpacing = {
L = "spaced-off";
R = "spaced-off";
};
};
},
{
glyphname = questiondown.cap;
lastChange = "2022-05-07 02:24:03 +0000";
layers = (
{
background = {
shapes = (
{
closed = 1;
nodes = (
(660,-160,o),
(800,-66,o),
(868,18,c),
(726,218,l),
(692,152,o),
(608,68,o),
(482,68,cs),
(376,68,o),
(300,122,o),
(300,236,cs),
(300,490,o),
(616,468,o),
(616,814,cs),
(616,854,o),
(612,892,o),
(602,944,c),
(394,944,l),
(396,884,l),
(396,512,o),
(40,550,o),
(40,230,cs),
(40,-4,o),
(180,-160,o),
(476,-160,cs)
);
}
);
};
layerId = "B61D43DE-5272-4FF4-A680-608B6BF5ED9E";
shapes = (
{
closed = 1;
nodes = (
(604,1136,l),
(604,1394,l),
(378,1394,l),
(378,1136,l)
);
},
{
closed = 1;
nodes = (
(394,944,l),
(394,884,ls),
(394,692,o),
(302,604,o),
(208,520,cs),
(120,442,o),
(40,364,o),
(40,210,cs),
(40,-24,o),
(180,-160,o),
(476,-160,cs),
(660,-160,o),
(800,-66,o),
(868,18,c),
(726,212,l),
(692,146,o),
(608,62,o),
(482,62,cs),
(376,62,o),
(300,122,o),
(300,236,cs),
(300,352,o),
(366,412,o),
(440,474,cs),
(526,548,o),
(616,628,o),
(616,814,cs),
(616,854,o),
(612,892,o),
(602,944,c)
);
}
);
width = 848;
}
);
userData = {
com.typemytype.robofont.mark = (
0.6,
1,
0.628,
1
);
};
},
{
glyphname = bullet.case;
lastChange = "2023-10-19 00:56:07 +0000";
layers = (
{
layerId = "B61D43DE-5272-4FF4-A680-608B6BF5ED9E";
shapes = (
{
closed = 1;
nodes = (
(436,520,o),
(524,580,o),
(524,714,cs),
(524,840,o),
(434,910,o),
(338,910,cs),
(246,910,o),
(156,840,o),
(156,714,cs),
(156,580,o),
(244,520,o),
(338,520,cs)
);
}
);
width = 680;
}
);
userData = {
KernOnSpecialSpacing = {
L = NoKerning;
R = NoKerning;
};
};
},
{
glyphname = slash.case;
lastChange = "2022-05-07 02:24:03 +0000";
layers = (
{
layerId = "B61D43DE-5272-4FF4-A680-608B6BF5ED9E";
shapes = (
{
closed = 1;
nodes = (
(756,1778,l),
(560,1778,l),
(-36,-338,l),
(160,-340,l)
);
}
);
width = 720;
}
);
metricLeft = slash;
metricRight = slash;
},
{
glyphname = backslash.case;
lastChange = "2022-05-07 02:24:03 +0000";
layers = (
{
layerId = "B61D43DE-5272-4FF4-A680-608B6BF5ED9E";
shapes = (
{
closed = 1;
nodes = (
(756,-338,l),
(160,1778,l),
(-36,1778,l),
(560,-340,l)
);
}
);
width = 720;
}
);
metricLeft = slash;
metricRight = slash;
},
{
glyphname = hyphen;
lastChange = "2023-11-10 06:07:35 +0000";
layers = (
{
layerId = "B61D43DE-5272-4FF4-A680-608B6BF5ED9E";
shapes = (
{
closed = 1;
nodes = (
(774,492,l),
(774,688,l),
(136,688,l),
(136,492,l)
);
}
);
width = 910;
}
);
unicode = 45;
userData = {
KernOnName = hyphen;
KernOnSpecialSpacing = {
L = hyphen;
R = hyphen;
};
};
},
{
glyphname = softhyphen;
lastChange = "2023-10-19 00:56:07 +0000";
layers = (
{
layerId = "B61D43DE-5272-4FF4-A680-608B6BF5ED9E";
shapes = (
{
closed = 1;
nodes = (
(774,492,l),
(774,688,l),
(136,688,l),
(136,492,l)
);
}
);
width = 910;
}
);
metricLeft = hyphen;
metricRight = hyphen;
unicode = 173;
userData = {
KernOnSpecialSpacing = {
L = hyphen;
R = hyphen;
};
};
},
{
glyphname = endash;
lastChange = "2023-11-10 06:07:35 +0000";
layers = (
{
layerId = "B61D43DE-5272-4FF4-A680-608B6BF5ED9E";
shapes = (
{
closed = 1;
nodes = (
(1162,492,l),
(1162,688,l),
(136,688,l),
(136,492,l)
);
}
);
width = 1298;
}
);
metricLeft = hyphen;
metricRight = hyphen;
unicode = 8211;
userData = {
KernOnName = endash;
KernOnSpecialSpacing = {
L = dashes;
R = dashes;
};
};
},
{
glyphname = emdash;
lastChange = "2023-10-19 00:56:07 +0000";
layers = (
{
layerId = "B61D43DE-5272-4FF4-A680-608B6BF5ED9E";
shapes = (
{
closed = 1;
nodes = (
(1770,492,l),
(1770,688,l),
(136,688,l),
(136,492,l)
);
}
);
width = 1906;
}
);
metricLeft = hyphen;
metricRight = hyphen;
unicode = 8212;
userData = {
KernOnSpecialSpacing = {
L = dashes;
R = dashes;
};
};
},
{
glyphname = figuredash;
lastChange = "2019-10-28 18:28:25 +0000";
layers = (
{
layerId = "B61D43DE-5272-4FF4-A680-608B6BF5ED9E";
shapes = (
{
closed = 1;
nodes = (
(1024,492,l),
(1024,688,l),
(136,688,l),
(136,492,l)
);
}
);
width = 1160;
}
);
metricLeft = hyphen;
metricRight = hyphen;
unicode = 8210;
},
{
glyphname = underscore;
lastChange = "2023-10-19 00:56:07 +0000";
layers = (
{
layerId = "B61D43DE-5272-4FF4-A680-608B6BF5ED9E";
shapes = (
{
closed = 1;
nodes = (
(1224,-386,l),
(1224,-230,l),
(-24,-230,l),
(-24,-386,l)
);
}
);
width = 1200;
}
);
unicode = 95;
userData = {
KernOnSpecialSpacing = {
L = underscore;
R = underscore;
};
com.typemytype.robofont.mark = (
0.6,
1,
0.628,
1
);
};
},
{
glyphname = hyphen.case;
lastChange = "2023-10-19 00:56:07 +0000";
layers = (
{
layerId = "B61D43DE-5272-4FF4-A680-608B6BF5ED9E";
shapes = (
{
closed = 1;
nodes = (
(774,594,l),
(774,790,l),
(136,790,l),
(136,594,l)
);
}
);
width = 910;
}
);
metricLeft = hyphen;
metricRight = hyphen;
userData = {
KernOnSpecialSpacing = {
L = hyphen;
R = hyphen;
};
};
},
{
glyphname = endash.case;
lastChange = "2023-10-19 00:56:07 +0000";
layers = (
{
layerId = "B61D43DE-5272-4FF4-A680-608B6BF5ED9E";
shapes = (
{
closed = 1;
nodes = (
(1162,594,l),
(1162,790,l),
(136,790,l),
(136,594,l)
);
}
);
width = 1298;
}
);
metricLeft = hyphen;
metricRight = hyphen;
userData = {
KernOnSpecialSpacing = {
L = dashes;
R = dashes;
};
};
},
{
glyphname = emdash.case;
lastChange = "2023-10-19 00:56:07 +0000";
layers = (
{
layerId = "B61D43DE-5272-4FF4-A680-608B6BF5ED9E";
shapes = (
{
closed = 1;
nodes = (
(1770,594,l),
(1770,790,l),
(136,790,l),
(136,594,l)
);
}
);
width = 1906;
}
);
metricLeft = hyphen;
metricRight = hyphen;
userData = {
KernOnSpecialSpacing = {
L = dashes;
R = dashes;
};
};
},
{
glyphname = parenleft;
lastChange = "2023-11-10 06:07:35 +0000";
layers = (
{
layerId = "B61D43DE-5272-4FF4-A680-608B6BF5ED9E";
shapes = (
{
closed = 1;
nodes = (
(732,-208,l),
(652,-152,o),
(378,52,o),
(378,660,cs),
(378,1268,o),
(642,1494,o),
(732,1530,c),
(644,1618,l),
(472,1588,o),
(126,1248,o),
(126,660,cs),
(126,72,o),
(472,-248,o),
(644,-296,c)
);
}
);
width = 772;
}
);
unicode = 40;
userData = {
KernOnName = parenleft;
KernOnSpecialSpacing = {
R = parenthesis;
};
};
},
{
glyphname = parenright;
lastChange = "2023-11-10 06:07:35 +0000";
layers = (
{
layerId = "B61D43DE-5272-4FF4-A680-608B6BF5ED9E";
shapes = (
{
closed = 1;
nodes = (
(354,-256,o),
(700,64,o),
(700,652,cs),
(700,1240,o),
(354,1580,o),
(182,1610,c),
(94,1522,l),
(184,1486,o),
(448,1260,o),
(448,652,cs),
(448,44,o),
(174,-160,o),
(94,-216,c),
(182,-304,l)
);
}
);
width = 772;
}
);
unicode = 41;
userData = {
KernOnName = parenright;
KernOnSpecialSpacing = {
L = parenthesis;
};
};
},
